<svg width="76" height="68" viewBox="0 0 76 68" fill="none" xmlns="http://www.w3.org/2000/svg">
<path d="M37.9381 40.6412C41.6328 40.6412 44.628 37.6461 44.628 33.9514C44.628 30.2566 41.6328 27.2615 37.9381 27.2615C34.2434 27.2615 31.2482 30.2566 31.2482 33.9514C31.2482 37.6461 34.2434 40.6412 37.9381 40.6412Z" fill="#00D8FF"/>
<path d="M37.9381 20.3505C46.9184 20.3505 55.2619 21.6394 61.5517 23.8038C69.1303 26.4125 73.7906 30.3677 73.7906 33.9492C73.7906 37.681 68.8517 41.8837 60.7138 44.5787C54.5611 46.617 46.4629 47.6826 37.9381 47.6826C29.1966 47.6826 20.9216 46.6834 14.6982 44.5566C6.82551 41.866 2.08334 37.6102 2.08334 33.9492C2.08334 30.3964 6.53368 26.4722 14.0062 23.8679C20.3202 21.6682 28.8694 20.3505 37.9381 20.3505Z" stroke="#00D8FF" stroke-width="3.20004" stroke-miterlimit="10"/>
<path d="M26.0993 27.1907C30.585 19.4109 35.871 12.8272 40.8895 8.46085C46.9361 3.19915 52.6908 1.13868 55.7925 2.92722C59.0247 4.79093 60.1986 11.1691 58.4676 19.5679C57.1588 25.9173 54.0371 33.4628 49.7769 40.8491C45.4106 48.4211 40.4098 55.091 35.4598 59.4198C29.1966 64.8959 23.139 66.8768 19.9687 65.0485C16.8913 63.2732 15.7151 57.4588 17.1897 49.6834C18.4366 43.1085 21.5671 35.0457 26.0993 27.1907Z" stroke="#00D8FF" stroke-width="3.20004" stroke-miterlimit="10"/>
<path d="M26.1103 40.8646C21.6113 33.0914 18.5472 25.2254 17.2693 18.6969C15.7306 10.8308 16.8183 4.81526 19.9179 3.0223C23.1478 1.15196 29.2585 3.32076 35.6698 9.01357C40.5181 13.318 45.4946 19.7912 49.7659 27.1709C54.1455 34.7362 57.4285 42.3989 58.7041 48.8478C60.3202 57.01 59.0114 63.2467 55.8434 65.0795C52.7681 66.8591 47.1439 64.9755 41.1438 59.8133C36.0766 55.4514 30.6535 48.7129 26.1103 40.8646Z" stroke="#00D8FF" stroke-width="3.20004" stroke-miterlimit="10"/>
</svg>
