<svg width="128" height="119" viewBox="0 0 128 119" fill="none" xmlns="http://www.w3.org/2000/svg">
<path d="M112.263 92.5008C112.519 104.025 96.1659 116.617 81.9626 117.927C75.2065 118.551 68.2712 116.657 61.7709 115.469C52.3789 113.776 41.1698 114.743 32.3664 111.802C27.6575 110.23 19.238 104.629 17.4466 100.922C13.6334 92.9844 12.5074 82.3264 15.9622 74.1869C17.293 71.0238 19.1356 68.0823 20.2104 64.8386C25.0216 50.0706 26.7618 31.5149 41.2978 20.2526C44.164 18.0364 44.9574 17.3715 49.1032 17.0088C56.9598 16.2835 64.0998 15.4776 72.0588 15.4575C80.1457 15.4374 89.9216 15.9612 93.9907 22.1665C99.3649 30.3665 105.072 37.7807 106.914 46.988C109.115 58.0086 112.237 68.042 112.263 79.2439C112.212 83.6561 112.161 88.0885 112.263 92.5008Z" fill="#0A2F44"/>
<path d="M125.622 10.9244C125.775 6.39123 130.894 2.14013 123.498 1.83792C107.375 1.17306 90.6637 3.22811 74.6179 1.73721C66.4798 0.99176 59.1094 0.367188 50.8434 0.347041C41.8607 0.347041 32.9038 0.387335 23.9212 0.347041C19.4938 0.326893 15.7063 0.387325 11.3557 1.09248C9.79466 1.3544 3.67826 1.19323 2.68019 1.73721C0.044273 3.22811 0.735252 1.63646 1.17031 5.18238C1.68214 9.5745 3.32004 15.6389 5.06026 19.8698C11.8932 20.5951 19.3914 19.9705 26.2755 19.9705C31.6497 19.9705 37.2287 20.3735 42.5773 20.0511C47.9003 19.7288 53.0954 18.0162 58.4696 18.4595L123.728 19.9705C124.649 20.716 125.34 21.5823 125.801 22.5293C125.366 18.7617 125.494 14.7322 125.622 10.9244Z" fill="#0A2F44"/>
<path d="M30.2935 42.5557C17.0372 46.6254 8.464 55.8126 4.59969 66.3698C2.39882 72.3737 1.34962 78.8409 1.37521 85.0665C1.37521 87.2625 2.01495 89.8011 3.9599 91.4734C6.16076 93.3672 9.71799 93.3672 12.1236 91.6949C14.8107 89.8212 16.1159 86.5775 17.4978 84.0591C19.1101 81.1579 20.5944 78.2164 21.9252 75.2145C24.6379 69.1703 26.7875 62.985 28.323 56.6991C28.9116 54.2814 30.5239 50.5541 27.9903 48.4991C24.9193 46.021 21.3109 48.5192 19.3916 50.5743C15.2713 54.9865 12.4307 60.1443 11.1511 65.5236C9.74356 71.4671 9.71804 78.297 12.7378 83.9584C14.0942 86.4969 16.4229 88.7937 20.0313 89.3176C22.9744 89.7608 26.0965 88.8945 27.5809 86.7589C27.9391 86.2552 27.0434 85.6508 26.5316 86.1142C24.9449 87.5446 22.2067 87.4842 20.1593 86.6581C17.7026 85.6507 16.3462 83.5151 15.5784 81.5407C13.915 77.2694 13.6335 72.5147 14.5036 68.1025C15.3993 63.5492 17.3955 59.1369 20.492 55.2283C21.2086 54.3217 21.9507 53.4554 22.7953 52.6293C23.2047 52.2264 23.6141 51.8033 24.1004 51.4608L24.8169 51.0578L24.6378 51.0779C24.5099 51.3399 24.6123 51.763 24.5611 52.0652C24.4587 52.6696 24.3051 53.2941 24.1771 53.8986C23.87 55.2686 23.5374 56.6386 23.1791 57.9885C21.8228 63.126 20.057 68.1831 17.9073 73.1594C15.7832 78.0552 13.4799 83.1122 10.281 87.6453C9.43648 88.834 8.08013 90.0429 6.92852 88.4714C5.70013 86.8193 5.87931 84.7643 5.93049 82.9308C6.08404 77.7127 6.72383 72.4744 8.3361 67.3973C11.4327 57.6258 18.7006 47.6328 30.6519 43.1601C31.0613 42.9989 30.7542 42.4146 30.2935 42.5557Z" fill="#0A2F44"/>
<path d="M37.3572 14.7121C34.9772 13.8054 31.599 12.5966 28.8352 13.1204C26.0969 13.6442 25.3036 16.1828 24.4079 18.117C22.9492 21.2197 21.4904 24.6044 21.081 27.9085C20.6203 31.7768 21.0554 35.766 21.0554 39.6343C21.0554 42.6967 21.081 45.7389 21.0554 48.8013C21.0554 50.131 20.4412 52.6092 21.9767 53.5964C23.1027 54.3418 29.2959 54.5433 30.729 54.0598C32.9554 53.2942 31.6246 46.1016 31.6246 44.389C31.6246 39.8357 30.6522 34.537 32.5716 30.1852C33.8 27.425 35.1051 23.859 37.3316 21.5219C38.7135 20.0713 40.4026 18.4393 42.1684 17.3312C43.4224 16.5656 45.3161 14.7524 46.9795 14.7121H37.3572Z" fill="#0A2F44"/>
<path d="M105.507 42.6967C105.507 38.5463 105.507 34.396 105.507 30.2456C105.507 26.8609 105.84 23.3351 105.584 19.9504C105.405 17.573 103.024 16.1627 102.641 13.9263H93.9907C94.2466 13.9666 94.5025 14.0069 94.7584 14.0472C95.1167 15.5582 95.8588 16.6865 95.9356 18.2781C96.0124 19.9705 95.9101 21.7032 95.9101 23.3956C95.9101 26.8206 95.3726 30.5277 96.1148 33.8923C96.7802 36.7935 96.8825 39.4127 96.857 42.3542C96.857 44.1675 96.0636 47.5925 97.5223 49.3252C99.1601 51.2593 102.871 49.5468 105.328 49.3252C106.147 47.4313 105.507 44.6711 105.507 42.6967Z" fill="#0A2F44"/>
</svg>
