<svg width="226" height="36" viewBox="0 0 226 36" fill="none" xmlns="http://www.w3.org/2000/svg">
<path d="M75.4515 11.4034C77.1917 11.5041 78.6249 12.3705 80.1348 12.9951C82.2333 13.8614 84.4342 14.2442 86.7118 14.6068C90.1411 15.1508 92.1884 16.7424 93.4679 18.9183C93.5447 18.8579 93.6471 18.8176 93.7239 18.7773C94.6452 18.3139 95.4385 17.8908 96.4877 17.6088C98.5094 17.0648 100.736 17.226 102.809 17.5282C106.417 18.052 110.537 21.0741 114.325 20.2481C114.402 20.2279 114.479 20.2279 114.555 20.2481C111.305 22.4844 106.699 20.4899 102.886 20.2884C102.271 20.2481 101.657 20.2682 101.069 20.3085C100.48 20.2884 99.8658 20.3085 99.2516 20.3891C98.5094 20.4697 97.8697 20.7316 97.2299 21.0137C95.9247 21.4166 94.6963 21.9404 93.5191 22.5449C92.4699 22.6859 91.3183 22.0412 91.0368 21.2554C90.96 20.9935 90.8832 20.7316 90.7553 20.4697C90.3202 19.2004 89.7572 18.052 88.0169 17.4275C87.6331 17.2864 87.2236 17.1857 86.8141 17.1051C86.1999 16.8432 85.5602 16.6014 84.9204 16.3798C81.3632 15.1508 77.2429 14.1434 75.3748 11.4235C75.3748 11.4034 75.4259 11.3833 75.4515 11.4034Z" fill="#0A2F44"/>
<path d="M118.829 32.1148C119.699 31.994 120.569 32.276 121.388 32.4171C122.565 32.6387 123.717 32.5984 124.92 32.5581C126.711 32.4775 127.965 33.0618 128.963 34.0087C128.989 33.9684 129.014 33.9281 129.066 33.9079C129.45 33.5856 129.782 33.2834 130.243 33.0618C131.164 32.5782 132.29 32.4372 133.365 32.3768C135.233 32.276 137.767 33.364 139.507 32.5581C139.533 32.5379 139.558 32.5379 139.609 32.5379C138.355 33.9684 135.745 33.4446 133.826 33.7266C133.519 33.7669 133.211 33.8475 132.93 33.9079C132.623 33.9684 132.341 34.0288 132.034 34.1296C131.676 34.2505 131.394 34.4318 131.139 34.6534C130.576 34.9758 130.038 35.3586 129.552 35.7817C129.04 35.963 128.375 35.7615 128.119 35.3989C128.042 35.2578 127.965 35.1369 127.863 35.0362C127.453 34.4519 126.967 33.9482 126.02 33.8072C125.816 33.7669 125.585 33.7669 125.355 33.7669C124.997 33.6863 124.638 33.646 124.306 33.6057C122.335 33.3438 120.16 33.2632 118.778 32.1148C118.778 32.135 118.803 32.1148 118.829 32.1148Z" fill="#0A2F44"/>
<path d="M56.2067 22.0009C57.0768 22.1016 57.7933 22.565 58.5355 22.9076C59.5847 23.3911 60.6852 23.6329 61.8368 23.8545C63.577 24.197 64.5494 25.0633 65.1381 26.1915C65.1892 26.1714 65.2148 26.1513 65.266 26.111C65.7523 25.9095 66.1617 25.6879 66.6991 25.567C67.7484 25.3252 68.8744 25.4461 69.9237 25.6476C71.7407 25.9901 73.7624 27.622 75.7073 27.2594C75.7329 27.2594 75.7841 27.2594 75.8097 27.2594C74.0951 28.3473 71.7919 27.2191 69.8469 27.0579C69.5398 27.0377 69.2327 27.0176 68.9256 27.0377C68.6185 27.0176 68.3114 27.0176 68.0043 27.0377C67.6205 27.0579 67.2878 27.1788 66.9551 27.3198C66.2897 27.5011 65.6499 27.7429 65.0101 28.025C64.4727 28.0653 63.9097 27.7228 63.7817 27.3198C63.7561 27.1788 63.705 27.0377 63.6538 26.9168C63.4746 26.252 63.2187 25.6677 62.3742 25.3051C62.1695 25.2245 61.9647 25.164 61.76 25.1036C61.4529 24.9626 61.1458 24.8215 60.8387 24.7007C59.0473 23.9955 57 23.4112 56.1299 21.9808C56.1555 22.0009 56.1811 22.0009 56.2067 22.0009Z" fill="#0A2F44"/>
<path d="M14.1603 0.020167C15.5422 -0.0604223 16.8218 0.523835 18.1014 0.886487C19.8928 1.39017 21.7098 1.51105 23.5779 1.61179C26.393 1.75282 28.2356 2.86094 29.5663 4.49287C29.6175 4.43243 29.6943 4.39212 29.7455 4.35183C30.4109 3.90859 30.9995 3.50564 31.7928 3.18328C33.3283 2.57886 35.1453 2.51841 36.8343 2.57885C39.8029 2.69974 43.4881 4.75479 46.4055 3.76757C46.4823 3.74742 46.5335 3.74741 46.5847 3.72727C44.2814 5.78229 40.3403 4.59359 37.2694 4.75477C36.7575 4.79506 36.2969 4.83536 35.8107 4.91595C35.3244 4.95624 34.8638 5.01669 34.3519 5.13757C33.7889 5.2786 33.3027 5.52036 32.8165 5.82257C31.8184 6.24567 30.9227 6.76952 30.0526 7.35379C29.2337 7.55526 28.2356 7.13216 27.9029 6.52774C27.8005 6.32627 27.6982 6.12479 27.5958 5.92332C27.0584 4.9361 26.4442 4.08992 24.9855 3.72727C24.6528 3.64668 24.3201 3.60638 23.9874 3.56608C23.45 3.4049 22.9126 3.26389 22.3751 3.14301C19.3554 2.458 15.9517 2.01473 14.0835 0C14.1091 0.0201473 14.1347 0.020167 14.1603 0.020167Z" fill="#0A2F44"/>
<path d="M51.6008 12.8943C52.2661 12.713 53.0083 12.8742 53.6992 12.9346C54.6717 12.995 55.5674 12.8742 56.5143 12.7332C57.9218 12.5115 59.0223 12.8742 59.9436 13.539C59.9692 13.4987 59.9947 13.4786 60.0203 13.4585C60.2762 13.1764 60.5066 12.9145 60.8393 12.6727C61.5047 12.2093 62.3747 12.0078 63.2193 11.8668C64.7036 11.625 66.8789 12.2698 68.1584 11.5042C68.184 11.484 68.2096 11.484 68.2608 11.4639C67.4675 12.713 65.2922 12.5317 63.8079 12.9145C63.5776 12.9749 63.3472 13.0555 63.1169 13.1361C62.8866 13.1965 62.6563 13.2771 62.4516 13.398C62.1956 13.5189 61.9909 13.7002 61.7861 13.8815C61.3767 14.1837 60.9928 14.5464 60.6601 14.9292C60.3018 15.1105 59.7388 15.0098 59.4573 14.7479C59.3805 14.6471 59.3038 14.5665 59.2014 14.486C58.7664 14.0629 58.3313 13.6801 57.5636 13.6599C57.3844 13.6599 57.2053 13.6599 57.0261 13.6801C56.719 13.6398 56.4375 13.6398 56.156 13.6398C54.5438 13.5995 52.8035 13.7204 51.5496 12.9145C51.5752 12.8943 51.5752 12.8943 51.6008 12.8943Z" fill="#0A2F44"/>
<path d="M0.26384 10.114C0.980401 10.114 1.62018 10.4162 2.25997 10.6378C3.15567 10.94 4.07697 11.0206 5.02385 11.1213C6.45698 11.2422 7.37826 11.8467 8.01805 12.713C8.04364 12.6929 8.06923 12.6727 8.09482 12.6324C8.4531 12.4309 8.7602 12.2093 9.16966 12.0884C9.98859 11.8063 10.8843 11.8064 11.7544 11.887C13.2643 12.0078 15.0813 13.1361 16.5912 12.6928C16.6168 12.6928 16.6424 12.6928 16.668 12.6928C15.4396 13.7002 13.469 12.9951 11.8823 13.0152C11.6264 13.0152 11.3705 13.0353 11.1402 13.0756C10.9099 13.0756 10.654 13.1159 10.398 13.1562C10.0909 13.2167 9.83503 13.3375 9.60471 13.4786C9.09288 13.6801 8.60666 13.9218 8.14602 14.2039C7.71096 14.2845 7.22473 14.0629 7.07118 13.7405C7.04559 13.6398 6.9944 13.5189 6.94321 13.4181C6.71289 12.9145 6.43137 12.4511 5.68922 12.2496C5.53567 12.2093 5.35654 12.169 5.1774 12.1488C4.92148 12.0481 4.63996 11.9675 4.35845 11.9071C2.84856 11.484 1.10835 11.2019 0.212646 10.1341C0.212646 10.114 0.238249 10.114 0.26384 10.114Z" fill="#0A2F44"/>
<path d="M178.483 9.42898C179.737 9.40883 180.837 9.99309 181.963 10.3356C183.525 10.8393 185.137 11.0206 186.8 11.1818C189.308 11.4235 190.869 12.4511 191.944 13.942C191.995 13.9017 192.072 13.8614 192.123 13.8412C192.737 13.4786 193.3 13.1159 193.991 12.8741C195.399 12.3906 197.011 12.4108 198.521 12.5316C201.157 12.7331 204.33 14.7076 206.966 13.942C207.018 13.9218 207.069 13.9218 207.146 13.9218C204.996 15.6746 201.541 14.4456 198.803 14.4859C198.342 14.4859 197.933 14.5263 197.497 14.5665C197.088 14.5867 196.653 14.627 196.192 14.7076C195.68 14.8083 195.22 15.0098 194.785 15.2515C193.889 15.5941 193.045 16.0172 192.251 16.5208C191.509 16.6619 190.639 16.2589 190.357 15.7149C190.306 15.5336 190.204 15.3523 190.102 15.1709C189.692 14.2643 189.206 13.4987 187.926 13.1159C187.645 13.0353 187.338 12.9749 187.031 12.9346C186.57 12.7533 186.109 12.6324 185.623 12.4914C182.962 11.7661 179.967 11.2422 178.432 9.38867C178.432 9.42897 178.457 9.42898 178.483 9.42898Z" fill="#0A2F44"/>
<path d="M211.061 22.2628C211.675 22.1218 212.315 22.2829 212.929 22.3635C213.799 22.4643 214.618 22.3837 215.463 22.3031C216.742 22.1621 217.689 22.5247 218.457 23.1493C218.457 23.1291 218.508 23.0889 218.508 23.0687C218.764 22.8269 218.969 22.6053 219.276 22.4038C219.89 22.021 220.683 21.8599 221.451 21.7793C222.782 21.6181 224.676 22.2829 225.853 21.6382C225.878 21.6181 225.904 21.6181 225.93 21.6181C225.162 22.7061 223.242 22.4441 221.886 22.7463C221.681 22.8068 221.451 22.8471 221.272 22.9277C221.067 22.9881 220.863 23.0486 220.658 23.1291C220.427 23.2299 220.223 23.3709 220.044 23.5321C219.66 23.794 219.301 24.0962 218.994 24.4186C218.662 24.5596 218.15 24.4387 217.919 24.1969C217.868 24.1164 217.791 24.0156 217.715 23.9552C217.356 23.5522 216.998 23.2097 216.307 23.1493C216.154 23.1493 216 23.1493 215.847 23.1493C215.591 23.109 215.335 23.0889 215.079 23.0687C213.646 22.9881 212.085 23.0082 211.01 22.2628C211.035 22.2628 211.035 22.2628 211.061 22.2628Z" fill="#0A2F44"/>
<path d="M165.508 17.8908C166.122 17.911 166.685 18.2132 167.248 18.4348C168.016 18.737 168.861 18.8579 169.68 18.9586C170.959 19.1198 171.727 19.6839 172.239 20.4697C172.264 20.4495 172.29 20.4294 172.316 20.4294C172.648 20.248 172.93 20.0869 173.314 19.966C174.056 19.7444 174.875 19.7847 175.642 19.8854C176.973 20.0466 178.534 21.1144 179.916 20.7719C179.942 20.7719 179.967 20.7719 179.993 20.7719C178.841 21.6181 177.101 20.9331 175.694 20.8928C175.463 20.8928 175.233 20.8928 175.028 20.9129C174.823 20.9129 174.593 20.9331 174.363 20.9734C174.107 21.0137 173.851 21.1144 173.621 21.2151C173.16 21.3763 172.699 21.5778 172.264 21.7994C171.88 21.8599 171.471 21.6382 171.343 21.3562C171.317 21.2554 171.292 21.1547 171.241 21.054C171.061 20.5906 170.831 20.1876 170.191 19.966C170.038 19.9257 169.884 19.8854 169.731 19.8451C169.5 19.7444 169.27 19.6638 169.014 19.6034C167.683 19.1803 166.174 18.8579 165.431 17.8707C165.483 17.911 165.483 17.8908 165.508 17.8908Z" fill="#0A2F44"/>
<path d="M133.8 4.08996C134.798 3.98922 135.745 4.33173 136.692 4.5332C137.997 4.81526 139.302 4.81527 140.659 4.79513C142.68 4.77498 144.088 5.48013 145.163 6.58823C145.214 6.54794 145.24 6.50764 145.291 6.48749C145.751 6.14499 146.135 5.82265 146.673 5.56073C147.722 5.05705 149.027 4.93616 150.23 4.89587C152.354 4.85557 155.143 6.14498 157.165 5.31894C157.191 5.2988 157.242 5.29881 157.293 5.29881C155.809 6.8703 152.891 6.1853 150.691 6.44722C150.332 6.48751 150 6.54795 149.667 6.62854C149.334 6.66883 149.002 6.74942 148.643 6.85016C148.234 6.97104 147.901 7.17251 147.594 7.41428C146.929 7.75679 146.314 8.17988 145.726 8.64327C145.163 8.82459 144.421 8.56267 144.114 8.15972C144.037 8.01869 143.96 7.87768 143.858 7.73665C143.397 7.05164 142.911 6.46736 141.836 6.28604C141.58 6.24574 141.35 6.2256 141.094 6.2256C140.71 6.12486 140.3 6.0644 139.917 5.98381C137.716 5.64131 135.233 5.45998 133.749 4.13026C133.749 4.11011 133.775 4.08996 133.8 4.08996Z" fill="#0A2F44"/>
<path d="M161.542 11.5847C162.002 11.4235 162.54 11.5042 163.052 11.5042C163.743 11.5042 164.408 11.3631 165.048 11.2422C166.046 11.0206 166.865 11.2221 167.556 11.6653C167.581 11.6452 167.581 11.625 167.607 11.6049C167.76 11.4034 167.914 11.2019 168.144 11.0206C168.579 10.658 169.194 10.4766 169.782 10.3356C170.831 10.0938 172.418 10.4565 173.288 9.83192C173.314 9.83192 173.339 9.81178 173.339 9.81178C172.853 10.7386 171.292 10.6983 170.268 11.0408C170.089 11.1012 169.936 11.1616 169.782 11.2422C169.629 11.3027 169.449 11.3631 169.321 11.4437C169.142 11.5444 169.014 11.6855 168.886 11.8265C168.605 12.0683 168.375 12.3302 168.17 12.6123C167.914 12.7533 167.505 12.713 167.3 12.5317C167.249 12.4712 167.172 12.4108 167.095 12.3503C166.762 12.0481 166.404 11.8265 165.841 11.8467C165.713 11.8467 165.585 11.8668 165.483 11.887C165.252 11.887 165.048 11.887 164.843 11.887C163.691 11.9272 162.437 12.1086 161.49 11.5847C161.516 11.6049 161.516 11.5847 161.542 11.5847Z" fill="#0A2F44"/>
<path d="M124.587 11.9474C125.099 11.9071 125.585 12.1086 126.046 12.2295C126.711 12.3906 127.377 12.4309 128.068 12.4511C129.091 12.4712 129.782 12.854 130.294 13.4383C130.32 13.4181 130.345 13.398 130.371 13.398C130.601 13.2368 130.806 13.0757 131.113 12.9548C131.676 12.713 132.341 12.6928 132.956 12.6928C134.03 12.713 135.438 13.4383 136.487 13.0353C136.513 13.0353 136.538 13.0354 136.564 13.0152C135.745 13.7808 134.286 13.398 133.16 13.4786C132.981 13.4987 132.802 13.5189 132.648 13.5592C132.469 13.5793 132.29 13.5995 132.111 13.6599C131.906 13.7204 131.727 13.801 131.548 13.9218C131.19 14.083 130.883 14.2845 130.55 14.5061C130.268 14.5867 129.885 14.4457 129.757 14.2241C129.705 14.1435 129.68 14.083 129.629 14.0024C129.424 13.6398 129.194 13.3376 128.656 13.2167C128.528 13.1965 128.426 13.1764 128.272 13.1764C128.068 13.116 127.888 13.0756 127.684 13.0353C126.558 12.8137 125.304 12.6727 124.587 11.9675V11.9474Z" fill="#0A2F44"/>
</svg>
