<svg width="1388" height="219" viewBox="0 0 1388 219" fill="none" xmlns="http://www.w3.org/2000/svg">
<path d="M1387.9 3.26758V189.751C1380.66 192.753 1373.14 195.493 1365.48 197.931C1357.58 200.49 1349.57 202.746 1341.58 204.721C1338.84 205.406 1336.11 206.03 1333.34 206.635C1333.34 206.635 1333.34 206.655 1333.32 206.635C1325.64 208.307 1317.86 209.717 1310 210.926C1297.77 212.84 1285.38 214.291 1273.15 215.52C1263.02 216.547 1252.73 217.454 1242.39 218.038C1237.76 218.3 1233.13 218.481 1228.47 218.582C1220.18 218.763 1211.88 218.642 1203.67 218.119C1199.11 217.816 1194.56 217.413 1190.03 216.89C1174.24 215.076 1158.58 212.014 1143.43 208.488C1135.49 206.655 1128.76 205.305 1120.47 205.365L1118.02 200.752L1114.18 193.539L1097.44 162.049C1097.06 158.362 1097.57 155.883 1101.2 153.123C1101.59 152.821 1101.97 152.559 1102.35 152.297C1104.71 150.786 1107.29 149.98 1110.54 149.799C1112.9 149.658 1115.81 149.739 1118.07 150.363C1119.93 150.887 1122.11 152.801 1124.13 152.962C1124.23 149.658 1128.61 147.845 1131.91 146.455C1135.24 145.024 1137.36 145.367 1140.84 144.863C1142.25 141.841 1138.49 138.396 1139.92 135.011C1140.33 134.044 1141.64 133.399 1141.97 132.674C1142.61 131.263 1142.12 129.591 1142.17 128.12C1142.35 122.862 1145.48 116.898 1152.82 115.79C1155.1 115.428 1157.5 115.508 1159.6 116.254C1161.29 116.878 1163.08 118.994 1165.08 118.631C1164.82 116.133 1169.43 114.662 1171.89 114.118C1176.26 113.171 1179.1 114.058 1182.99 115.367C1183.04 112.385 1186.57 107.993 1190.06 106.482C1191.28 105.938 1198.48 104.629 1202.42 104.891C1197.5 101.103 1194.15 93.1246 1196.17 88.6116C1198.42 88.5109 1199.63 88.8937 1199.81 87.02C1200.04 84.4814 1195.79 82.2652 1197.25 79.4446C1198.35 77.3291 1204.92 75.0323 1207.53 74.5286C1209.53 74.1458 1211.42 74.2264 1213.19 75.0122C1214.39 75.5158 1214.85 76.4023 1216.31 76.3822C1216.39 74.2264 1214.34 72.0102 1213.96 69.794C1213.42 66.6107 1213.83 62.9439 1215.8 60.1032C1218.21 56.6177 1223.66 54.2806 1227.85 52.2457C1232.84 49.828 1238.73 47.7327 1244.59 47.2693C1251.71 46.7052 1261.51 46.403 1266.45 51.4197C1268.31 53.3337 1269.52 55.4491 1271.51 57.343C1272.49 58.2496 1274.51 59.7808 1273.92 61.0299C1268.9 58.3504 1264.58 55.3887 1257.98 56.799C1255.8 57.2624 1246.54 60.6673 1247.23 63.2663C1248.79 63.2864 1249.56 62.3999 1250.91 61.9164C1252.78 61.2515 1254.32 61.2717 1256.36 61.312C1260.64 61.3725 1263.71 61.0702 1267.62 62.3194C1273.43 64.1528 1276.73 66.5503 1279.22 71.1036C1278.42 68.424 1280.27 65.14 1283.72 64.3341C1288.43 63.226 1289.73 65.8855 1293.19 67.0741C1297.28 65.4624 1298.9 63.2663 1303.99 63.1857C1308.7 63.1253 1312.02 64.6565 1316.14 66.0063C1313.51 61.2919 1309.52 54.5828 1310.92 49.0423C1312.1 44.3479 1319.16 46.7858 1323.49 46.0806C1320.44 40.7214 1320.16 36.1681 1327.71 33.69C1331.32 32.5013 1330.4 31.494 1330.3 28.4517C1330.09 22.1859 1331.73 17.0282 1337.79 12.5958C1349.67 3.9526 1367.76 -1.97071 1383.96 1.73639C1385.4 2.05875 1386.67 2.60272 1387.9 3.26758Z" fill="#FFFFCA"/>
<path d="M1154.76 43.8443C1151.87 41.2453 1146.17 37.921 1142.05 36.8733C1136.29 35.4227 1126.26 37.7799 1125.49 43.0988C1126.23 38.0419 1111.59 36.5912 1107.55 37.6389C1101.28 39.2507 1094.09 47.3096 1094.91 52.4673C1092.6 48.9617 1088.07 46.8261 1083.19 46.6246C1079.6 46.4836 1077.96 47.1082 1075.23 48.1357C1073.43 45.5165 1073.46 41.4064 1069.14 40.6207C1066.65 40.1573 1064.94 40.7416 1063.1 41.5878C1061.18 38.2635 1059 33.7706 1053.63 35.1205C1049.2 36.2286 1046.95 37.2158 1045.82 40.6005C1043.65 38.8276 1042.32 36.0473 1040.81 33.9117C1038.4 30.4665 1035.97 27.0212 1033.13 23.7977C1030.59 20.9166 1027.34 17.552 1022.99 16.2827C1016.47 14.3486 1002.93 18.1161 1002.47 23.4552C1002.19 26.6384 1003.42 30.2448 1002.42 33.3274C997.147 30.5269 993.743 26.3363 986.398 27.4444C982.329 28.0689 983.225 30.4866 983.481 33.2669C980.947 27.0213 966.974 28.9352 962.829 32.6222C957.454 37.3568 953.59 44.348 952.72 50.5936C952.131 55.0059 953.616 57.9474 955.586 61.8761C953.641 64.052 948.83 62.3999 946.885 64.8982C945.657 66.4697 946.68 68.1419 946.092 69.794C944.3 70.1365 942.509 67.6785 941.076 66.9734C937.826 65.3817 934.371 65.5429 930.916 66.369C929.329 66.7518 924.697 69.2097 923.162 71.5669C918.76 67.5979 910.827 63.5685 904.608 63.7297C898.799 63.8908 893.322 67.2756 892.58 71.7282C892.708 65.8854 891.607 60.0628 884.058 57.1616C878.991 55.2073 868.447 56.6982 866.912 61.5739C865.555 57.4235 865.811 52.4874 861.64 49.284C859.848 47.914 853.758 45.0531 851.506 47.3096C853.681 39.6738 841.346 39.1298 835.076 39.6939C830.341 40.117 817.674 42.7966 815.729 46.7858C814.603 49.1027 817.546 51.6614 816.65 53.5956C813.784 53.8776 810.713 54.2 807.923 54.744C805.057 55.288 805.211 55.5498 805.441 57.9071C805.467 59.4786 805.927 60.9896 806.797 62.4201C807.156 62.9439 807.514 63.4677 807.872 63.9714C807.693 66.4294 807.258 65.9459 803.368 66.5906C797.124 67.6181 789.421 68.1218 787.783 73.9242C786.81 77.3493 788.73 81.3384 787.425 84.6224C784.328 83.3531 781.18 82.2652 777.828 83.4942C774.936 84.562 772.274 86.335 771.967 88.9138C770.509 88.5109 771.558 87.846 770.79 86.9998C769.459 85.4686 768.001 84.5418 765.672 84.0986C760.374 83.0509 757.099 84.6627 754.002 87.7251C751.98 85.8917 752.723 83.7763 748.935 83.877C746.913 83.9374 743.279 84.8642 742.793 86.6573C743.151 83.9576 737.112 80.7542 734.578 78.961C730.381 75.9792 728.206 75.6971 722.781 75.9792C725.724 73.7429 727.029 72.8967 731.021 73.622C732.761 73.9444 734.809 74.2264 736.293 75.0525C735.423 73.7429 735.448 72.2721 734.578 70.8417C732.761 67.8599 728.257 67.8196 724.674 67.8196C719.454 67.8196 712.007 68.4441 709.78 73.0982C708.833 75.0927 709.447 78.5178 709.678 80.6332C706.453 74.3473 696.396 74.9517 690.561 78.4574C688.59 79.646 688.821 80.4116 687.541 81.7212C686.543 82.7286 684.905 83.1114 683.933 84.1389C681.962 86.1939 682.679 88.2691 683.344 90.5055C683.6 91.3517 685.698 95.2401 685.443 96.1064C684.88 97.8592 682.423 96.7511 680.759 97.013C679.045 97.2749 678.738 97.9801 677.356 98.6853C674.182 96.8519 672.826 96.5698 668.757 97.5167C666.684 98.0002 664.688 99.4106 662.589 98.9069C661.438 98.6248 660.516 97.3958 659.007 97.0735C657.292 96.731 654.63 96.6907 652.89 97.1943C650.664 97.8189 648.616 99.4307 646.876 100.66C645.213 98.4838 641.195 97.3958 638.175 97.0332C631.521 96.2273 625.456 99.0278 623.895 104.085C623.025 106.865 620.517 107.167 621.643 110.048C623.051 113.675 628.885 119.034 631.931 121.552C647.67 134.548 669.32 139.745 689.742 146.374C716.229 154.997 741.974 163.56 769.971 168.637C797.917 173.694 825.607 175.628 854.244 175.628C871.365 175.628 888.357 174.379 905.504 174.621C912.695 174.721 919.63 174.681 926.668 173.452C935.036 171.175 943.302 168.657 951.466 165.897C956.2 164.386 960.96 162.875 965.695 161.343C1007.95 147.804 1052.45 138.778 1093.93 123.809C1099.97 121.552 1105.99 119.296 1112.03 117.039C1118.3 114.581 1124.18 111.66 1129.71 108.296C1135.06 103.5 1133.04 100.418 1129.35 94.9782L1156.22 50.6541C1159.73 50.6138 1155.97 44.9121 1154.76 43.8443ZM919.477 72.8564C920.577 72.9974 921.652 72.9773 922.727 72.9168C922.701 73.4205 922.931 73.8839 923.392 74.307C922.266 73.8436 918.914 73.0377 919.477 72.8564Z" fill="#FFFFCA"/>
<path d="M737.931 76.503C737.572 75.8583 737.009 75.3949 736.37 75.0323C736.702 75.5561 737.189 76.0598 737.931 76.503Z" fill="#FFFFCA"/>
<path d="M490.794 84.4411C490.615 81.8421 490.256 79.8475 489.233 77.4097C488.286 75.1532 486.597 72.4535 484.319 70.6604C482.067 68.8874 478.868 67.88 476.437 66.2683C473.238 64.1326 469.246 63.1051 465.254 63.8506C460.775 64.6766 455.682 64.4751 451.178 65.825C445.958 67.3764 442.835 70.5797 443.629 74.6092C442.912 71.9095 435.849 70.7006 432.65 71.7282C429.144 72.8363 424.896 77.2485 425.664 79.9482C424 75.7173 412.535 72.8564 406.649 72.9974C403.783 73.0579 400.021 73.4608 397.283 74.1861C395.722 74.3473 394.57 74.8913 393.828 75.7979C393.828 76.5433 393.341 76.9866 392.343 77.1075C389.861 75.4554 390.066 71.9296 388.377 69.8343C386.355 67.3562 382.798 64.6766 379.957 62.6619C376.733 60.3852 372.715 59.0555 368.134 58.6324C364.781 58.3302 364.321 59.1159 361.941 59.8211C359.356 57.3833 360.149 54.341 356.874 51.9435C352.856 49.002 345.869 46.5642 340.111 45.859C335.991 45.3553 332.331 45.7381 329.593 47.9946C327.316 49.8482 327.52 49.7474 323.861 49.4251C310.272 48.1759 302.978 55.9327 299.856 64.2334C299.344 65.5631 298.269 79.7065 294.098 78.3365C293.151 74.3272 286.267 71.2446 280.841 70.5596C276.721 70.0357 270.989 70.2977 267.022 71.3252C265.077 71.8289 263.107 73.2996 261.238 73.6018C258.654 74.0249 259.293 73.622 257.425 72.2721C255.173 70.6402 252.716 70.2171 249.415 70.5395C245.602 70.9021 236.747 72.8967 235.263 75.5561C234.342 74.6092 234.367 72.6751 234.111 71.5267C233.497 68.6859 232.806 67.0741 230.529 64.737C225.026 59.0958 214.124 54.5627 205.807 60.6069C204.784 61.3523 203.606 62.6216 201.892 62.5208C200.817 60.8687 202.02 58.4108 201.508 56.6177C200.689 53.8776 198.437 52.1047 195.852 50.1101C192.935 47.8737 192.013 45.4561 190.273 42.6959C187.791 38.8074 178.168 36.1279 172.154 36.0271C168.546 35.9667 161.867 36.5308 160.741 39.3716C159.077 36.3293 157.772 35.1608 152.73 35.1809C148.406 35.2011 144.592 36.8733 143.031 39.8148C141.982 41.8094 143.031 44.6099 140.395 46.0605C138.758 46.9671 137.273 46.403 135.456 46.6246C132.923 46.9268 131.925 47.7125 130.312 49.2236C128.393 51.0368 127.19 53.2128 126.115 55.3282C125.732 56.114 125.399 58.8943 123.684 59.1764C122.686 59.3375 120.946 58.2496 119.845 58.0885C118.003 57.8064 115.853 58.3906 113.985 58.169C110.197 57.7258 108.662 56.799 104.491 57.7258C100.14 58.6928 96.9667 60.9292 94.1516 63.2462C95.2521 57.1012 91.2086 52.0846 85.9624 47.5716C83.4032 45.3755 79.9484 42.2929 75.649 42.1922C71.5544 42.0915 67.5877 42.4944 63.8769 43.6226C65.4124 40.0767 67.1782 37.8202 72.7316 37.8001C75.0604 37.7799 79.6924 38.0016 81.5094 39.3111C81.663 37.0143 78.7711 35.06 76.3144 33.6699C74.8557 32.8438 73.1666 32.1588 71.8359 31.1918C70.2236 30.0031 69.7118 29.0964 67.3318 28.5928C60.5756 27.1623 51.5162 27.6056 47.2936 31.8365C44.7601 34.3952 44.1971 36.6316 44.2738 39.6335C44.2994 40.9834 44.6577 42.5347 44.0947 43.804C42.6872 43.1592 41.8683 42.031 40.256 41.5475C38.2087 40.943 34.7794 41.3258 32.5274 41.346C25.848 41.4266 14.7925 45.6978 16.1488 51.1174L0.793945 123.446C21.088 132.372 41.6891 140.511 64.6447 145.749C85.297 150.464 106.589 152.458 128.291 152.7C144.567 152.882 160.689 152.277 176.914 151.693C197.976 150.927 219.038 150.927 240.1 150.343C267.022 149.577 294.072 147.724 320.739 144.883C362.069 140.491 400.968 130.155 438.638 118.007C453.379 113.252 467.838 107.752 482.912 103.5C486.29 102.554 490.282 102.332 493.532 101.325C493.199 95.6229 491.152 90.0622 490.794 84.4411Z" fill="#FFFFCA"/>
</svg>
