<svg width="1920" height="363" viewBox="0 0 1920 363" fill="none" xmlns="http://www.w3.org/2000/svg">
<path d="M1919.36 206.071V295.908C1905.51 298.85 1891.93 302.436 1878.08 305.317C1876.52 305.639 1874.96 305.942 1873.4 306.224C1866.33 307.493 1859.19 308.359 1852 308.943C1851.98 308.964 1851.93 308.964 1851.9 308.964C1849.75 309.125 1847.6 309.286 1845.43 309.407C1841.77 309.628 1838.13 309.81 1834.47 309.931C1834.47 309.931 1834.47 309.931 1834.45 309.931C1834.19 309.931 1833.94 309.931 1833.71 309.951C1827.95 310.132 1822.21 310.233 1816.48 310.293C1812.64 310.334 1808.8 310.374 1804.97 310.434C1804.97 310.434 1804.97 310.434 1804.94 310.434C1804.2 310.434 1803.46 310.434 1802.69 310.455C1802.38 310.455 1802.07 310.455 1801.74 310.475C1794.27 310.535 1786.74 310.616 1779.25 310.656C1777.89 310.676 1776.56 310.676 1775.23 310.676C1774.51 310.696 1773.8 310.696 1773.08 310.696H1772C1771.98 310.676 1771.98 310.696 1771.98 310.696C1770.34 310.696 1768.73 310.716 1767.12 310.696C1764.92 310.716 1762.71 310.716 1760.51 310.716H1760.49C1759.05 310.716 1757.62 310.716 1756.19 310.696H1755.83C1748.92 310.676 1742.04 310.616 1735.15 310.495C1733.92 310.475 1732.67 310.434 1731.44 310.414C1723.97 310.253 1716.52 310.031 1709.07 309.729C1709.05 309.729 1709.05 309.729 1709.05 309.729C1704.21 309.528 1699.38 309.286 1694.54 309.004C1692.85 308.903 1691.19 308.823 1689.5 308.742H1689.47C1688.7 308.682 1687.91 308.641 1687.12 308.621C1679.54 308.258 1671.97 308.017 1664.37 307.896C1663.85 307.876 1663.34 307.856 1662.83 307.856C1661.45 307.835 1660.09 307.815 1658.74 307.795C1653.31 307.714 1647.86 307.694 1642.43 307.674C1640.28 307.674 1638.11 307.674 1635.96 307.694C1632.35 307.674 1628.77 307.694 1625.19 307.735C1624.93 307.714 1624.67 307.714 1624.42 307.735C1616.64 307.755 1608.86 307.815 1601.1 307.835C1597.85 307.876 1594.58 307.876 1591.33 307.876C1590.25 307.876 1589.15 307.876 1588.08 307.856C1587.34 307.876 1586.57 307.856 1585.83 307.856C1578.81 307.815 1571.78 307.735 1564.74 307.674C1563.1 307.654 1561.46 307.634 1559.83 307.634C1556.17 307.614 1552.53 307.614 1548.92 307.634C1546.85 307.634 1544.8 307.654 1542.76 307.694C1542.76 307.694 1542.76 307.715 1542.73 307.694C1538.46 307.755 1534.21 307.856 1529.96 308.037C1528.48 308.097 1527.02 308.158 1525.53 308.238C1524.07 308.299 1522.59 308.359 1521.13 308.44C1518.85 308.541 1516.6 308.661 1514.32 308.782C1513.74 308.823 1513.12 308.843 1512.53 308.883C1511.94 308.903 1511.33 308.943 1510.74 308.984C1499.74 309.588 1488.78 310.334 1477.86 311.18H1477.83C1472.64 311.583 1467.47 312.006 1462.27 312.469C1459.51 312.691 1456.74 312.933 1454 313.215C1452.37 313.336 1450.73 313.497 1449.09 313.658C1447.66 313.779 1446.22 313.92 1444.79 314.061H1444.77C1442.08 314.323 1439.37 314.585 1436.68 314.867H1436.6C1435.94 314.927 1435.3 315.008 1434.63 315.068C1432.94 315.25 1431.25 315.411 1429.56 315.592C1428.59 315.693 1427.65 315.794 1426.7 315.894C1425.98 315.975 1425.27 316.035 1424.57 316.116C1423.22 316.257 1421.89 316.398 1420.56 316.559C1419.46 316.68 1418.36 316.801 1417.26 316.922C1416.62 316.982 1415.95 317.063 1415.31 317.123C1402.34 318.574 1389.36 320.145 1376.36 321.797C1375.05 321.959 1373.75 322.14 1372.44 322.301H1372.42C1369.04 322.744 1365.66 323.188 1362.28 323.631C1356.68 324.376 1351.08 325.122 1345.47 325.867H1345.45C1341.4 326.411 1337.41 326.935 1333.37 327.479H1333.34C1330.3 327.862 1327.25 328.265 1324.23 328.668C1323.13 328.809 1322.06 328.95 1320.98 329.091H1320.95C1302.07 331.549 1283.23 333.946 1264.37 336.203C1219.56 341.542 1174.7 346.035 1129.33 348.573C1120.57 349.077 1111.77 349.48 1102.97 349.822C1089.07 350.366 1075.15 350.769 1061.2 351.092H1061.18C1042.78 351.515 1024.38 351.757 1005.95 351.837C994.638 351.918 983.301 351.918 971.989 351.877C965.822 351.877 959.68 351.877 953.512 351.817C946.219 351.777 938.925 351.696 931.657 351.615C920.243 351.495 908.83 351.333 897.441 351.152C897.441 351.152 897.441 351.152 897.416 351.152C874.563 350.769 851.735 350.266 828.959 349.742C823.149 349.601 817.34 349.46 811.556 349.319C803.342 349.117 795.127 348.936 786.912 348.714C741.205 347.566 695.243 346.035 649.562 342.851H649.537C639.812 342.187 630.087 341.421 620.414 340.575C603.216 339.104 586.07 337.351 569.026 335.236C548.758 332.737 528.617 330.018 508.502 327.378H508.477C493.224 325.364 477.997 323.389 462.719 321.576C449.744 320.045 436.744 318.614 423.692 317.365C423.001 317.284 422.285 317.224 421.594 317.164C419.418 316.962 417.269 316.761 415.093 316.559C399.969 315.209 384.844 313.819 369.72 312.369C364.934 311.925 360.174 311.462 355.414 310.978C351.678 310.636 347.941 310.273 344.205 309.89C342.644 309.749 341.083 309.588 339.522 309.427C338.549 309.326 337.577 309.246 336.604 309.125C336.092 309.085 335.606 309.044 335.094 308.984C333.201 308.802 331.281 308.601 329.388 308.42C329.26 308.4 329.132 308.379 329.004 308.379C328.338 308.319 327.699 308.238 327.033 308.178C324.423 307.916 321.812 307.654 319.202 307.372H319.125C317.155 307.171 315.184 306.969 313.214 306.747C313.188 306.747 313.188 306.747 313.188 306.747C312.779 306.707 312.369 306.667 311.96 306.627C310.348 306.465 308.735 306.284 307.123 306.123C304.922 305.901 302.721 305.659 300.546 305.438C298.934 305.257 297.321 305.095 295.735 304.934C295.428 304.894 295.121 304.854 294.813 304.833C294.609 304.793 294.43 304.773 294.225 304.753H294.199C292.613 304.592 291.026 304.41 289.465 304.249C287.725 304.068 286.01 303.866 284.295 303.685C283.476 303.604 282.658 303.504 281.839 303.423C281.685 303.403 281.557 303.383 281.404 303.383C281.173 303.343 280.968 303.322 280.738 303.302C279.587 303.181 278.461 303.06 277.309 302.919C275.057 302.678 272.779 302.416 270.527 302.154C268.122 301.892 265.716 301.63 263.336 301.348C261.57 301.146 259.804 300.945 258.039 300.744C257.194 300.643 256.375 300.542 255.531 300.461C253.765 300.24 251.973 300.038 250.208 299.837C249.389 299.736 248.544 299.656 247.725 299.555C246.394 299.394 245.064 299.253 243.733 299.112C242.095 298.91 240.457 298.709 238.819 298.527H238.794C237.233 298.346 235.723 298.185 234.162 298.004H234.136C233.906 297.983 233.65 297.943 233.42 297.923C232.933 297.862 232.447 297.822 231.961 297.762H231.935C231.628 297.721 231.347 297.701 231.04 297.661C229.965 297.54 228.89 297.419 227.815 297.318C224.539 296.936 221.264 296.593 217.988 296.251C217.655 296.21 217.323 296.17 216.99 296.15C215.531 295.989 214.072 295.848 212.614 295.707C211.36 295.566 210.08 295.445 208.826 295.324C206.881 295.122 204.936 294.941 202.991 294.76C199.127 294.377 195.237 294.034 191.373 293.692C187.534 293.37 183.721 293.067 179.882 292.785C177.809 292.624 175.736 292.483 173.638 292.362C173.612 292.342 173.561 292.342 173.51 292.342C172.665 292.282 171.795 292.221 170.951 292.181C170.49 292.141 170.004 292.12 169.543 292.08C167.138 291.939 164.706 291.798 162.301 291.677C159.844 291.556 157.362 291.415 154.879 291.294H154.854C154.547 291.274 154.24 291.274 153.907 291.254C142.621 290.69 131.233 290.146 119.768 289.703C119.563 289.683 119.358 289.683 119.128 289.683C116.057 289.542 112.986 289.441 109.915 289.34C108.943 289.3 107.945 289.26 106.947 289.239C97.5544 288.917 88.1112 288.695 78.6679 288.575C77.5419 288.575 76.4159 288.554 75.2899 288.554H75.2643C64.5926 288.434 53.921 288.474 43.3005 288.736C41.7906 288.776 40.3063 288.816 38.7964 288.857C38.1055 288.877 37.4401 288.897 36.7491 288.917H36.7235C33.3454 289.018 29.993 289.139 26.6149 289.3C24.3884 289.401 22.162 289.501 19.9355 289.642C13.2561 289.985 6.60235 290.448 -0.000244141 290.992V16.5052C0.665134 16.6866 1.3561 16.888 2.02148 17.0895C8.41935 19.0639 13.9727 22.0458 20.217 24.1209C28.0224 26.7199 35.6743 28.2108 43.3261 31.3941C47.3952 33.0663 51.413 34.7385 55.4053 36.3503C66.0257 40.6215 76.6462 44.5302 88.4951 47.2903C91.3613 47.9552 94.2275 48.5999 97.0938 49.2245C99.1155 49.6476 101.112 50.0707 103.133 50.4938C110.683 52.0652 118.232 53.5561 125.731 55.1881C132.026 56.5581 138.27 58.2303 144.643 59.3988C147.611 59.9831 150.606 60.4465 153.625 60.7286C155.161 60.8696 156.696 60.9704 158.257 61.0107C164.809 61.1718 172.589 61.6554 179.498 61.2524C180.931 61.2121 182.313 61.0912 183.644 60.93C190.349 60.1645 198.922 56.2559 204.68 54.1807C216.504 50.0102 228.787 46.9478 240.611 42.8377C244.833 41.367 248.928 39.7552 252.997 38.1233C253.023 38.1233 253.048 38.1032 253.074 38.1032C256.298 36.7936 259.523 35.4638 262.747 34.1744C263.336 33.9327 263.925 33.6909 264.513 33.4692C265.588 33.0462 266.663 32.6231 267.738 32.2C268.761 31.8172 269.785 31.4344 270.809 31.0516C271.986 30.6084 273.189 30.1852 274.391 29.7622C275.722 29.2988 277.053 28.8353 278.409 28.4123C280.047 27.8884 281.429 27.3042 282.734 26.8005C285.933 25.5111 288.62 24.4433 293.022 24.544C293.124 24.5239 293.252 24.544 293.355 24.544C295.735 24.6447 298.268 24.9873 300.853 25.4507C308.454 26.8811 316.566 29.601 322.939 31.6762C329.132 33.8722 335.171 36.2697 341.083 38.8889C343.13 39.7754 345.152 40.682 347.174 41.6289C349.144 42.314 351.115 42.9183 353.111 43.5227C358.05 45.0136 363.091 46.2829 368.184 47.3911C369.029 47.5925 369.873 47.7738 370.743 47.9552C384.819 50.8564 394.799 60.0839 407.595 65.5841C409.412 66.3698 411.28 67.1354 413.123 67.8809C413.123 67.8809 413.148 67.8809 413.148 67.901L413.174 67.9212C413.2 67.9212 413.2 67.9413 413.225 67.9413C414.658 68.4853 416.04 69.0494 417.499 69.5934C422.899 71.6685 428.375 73.5826 433.929 75.3958C448.618 80.1909 463.692 84.2405 478.56 88.5319C487.133 91.0302 494.862 93.3269 502.949 95.0394C508.758 96.2886 514.747 97.2355 521.375 97.7191C526.851 98.1422 532.251 98.5048 537.6 98.9279C549.602 99.8748 561.323 101.084 573.249 103.864C588.476 107.43 602.935 111.016 615.935 118.39C618.52 119.881 620.593 121.412 623.613 122.339C633.798 125.563 646.364 126.086 657.24 128H657.291C657.496 128.021 657.7 128.061 657.905 128.101C658.161 128.141 658.391 128.182 658.622 128.222C669.728 130.317 680.758 132.654 691.737 135.153C701.104 137.248 710.419 139.464 719.709 141.721C723.522 142.648 727.309 143.574 731.097 144.501C746.349 148.208 761.141 152.359 775.319 157.516C783.687 160.559 791.851 164.004 799.759 167.912C800.962 168.517 802.139 169.121 803.316 169.726C815.165 175.931 831.902 180.726 845.67 183.305C854.448 184.957 861.025 187.375 869.905 187.657C876.584 187.898 883.187 189.389 889.892 189.833C897.518 190.336 905.375 190.497 913.257 190.417C921.83 190.336 930.378 189.994 938.644 189.51C943.685 189.228 948.701 188.986 953.691 188.805C958.579 188.604 963.467 188.442 968.355 188.322C980.742 188.019 993.102 187.898 1005.54 187.818C1007.92 187.778 1010.33 187.757 1012.71 187.757H1012.73C1013.14 187.737 1013.58 187.737 1013.98 187.737C1014.91 187.737 1015.8 187.757 1016.67 187.818C1024.38 188.281 1030.88 190.84 1038.96 189.873C1040.73 189.671 1042.49 189.43 1044.26 189.107C1045.67 188.865 1047.1 188.583 1048.51 188.281C1049.3 188.12 1050.09 187.939 1050.89 187.757C1051.58 187.596 1052.27 187.435 1052.99 187.254C1054.11 186.972 1055.26 186.69 1056.39 186.367C1060.64 185.219 1064.86 183.889 1068.98 182.438C1069.01 182.459 1069.01 182.438 1069.01 182.438C1074.51 180.545 1079.81 178.469 1084.77 176.455C1087 175.548 1089.25 174.601 1091.45 173.654C1094.39 172.405 1097.31 171.136 1100.23 169.846C1103.15 168.557 1106.06 167.268 1108.95 165.958C1113.05 164.104 1117.14 162.251 1121.24 160.377C1124.44 158.947 1127.61 157.496 1130.81 156.086C1136.13 153.708 1141.48 151.371 1146.88 149.155C1148.67 148.41 1150.49 147.664 1152.31 146.939C1154.41 146.093 1156.53 145.267 1158.65 144.461C1159.68 144.078 1160.7 143.695 1161.72 143.312C1161.98 143.192 1162.24 143.111 1162.52 143.01C1162.52 143.01 1162.52 143.01 1162.54 143.01C1162.72 142.93 1162.93 142.869 1163.11 142.809C1164.21 142.406 1165.31 142.003 1166.41 141.62C1168.35 140.935 1170.3 140.27 1172.27 139.625C1174.24 138.961 1176.21 138.336 1178.21 137.732C1186.57 135.193 1195.4 133.581 1203.95 131.446C1207.28 130.64 1210.55 129.713 1213.75 128.625C1217.49 127.376 1219.05 126.852 1222.96 126.53C1227.67 126.167 1232.72 126.691 1237.45 126.651C1247.17 126.59 1256.77 125.542 1266.44 124.837H1266.47C1270.72 124.515 1274.94 124.253 1279.24 124.173C1283.59 124.092 1287.92 124.031 1292.27 123.971C1309.98 123.709 1327.69 123.568 1345.39 123.205C1354.61 123.024 1363.82 122.782 1373.01 122.42C1391.23 121.714 1409.42 120.606 1427.57 118.713C1432.51 118.209 1437.45 117.665 1442.36 117.081H1442.39C1449.73 116.234 1457.1 115.328 1464.42 114.421H1464.45C1469.97 113.736 1475.5 113.051 1481.03 112.386C1482.31 112.225 1483.59 112.084 1484.87 111.923C1489.96 111.298 1494.23 111.117 1498.3 111.218C1503.75 111.318 1508.9 111.963 1515.32 112.769C1519.31 113.273 1522.74 113.353 1526.07 112.87H1526.1C1526.66 112.789 1527.22 112.689 1527.78 112.588C1527.96 112.548 1528.14 112.507 1528.32 112.467C1528.48 112.447 1528.63 112.406 1528.78 112.366C1529.17 112.286 1529.55 112.205 1529.91 112.104C1530.14 112.044 1530.37 111.983 1530.6 111.903C1531.04 111.782 1531.47 111.661 1531.91 111.5C1532.24 111.399 1532.57 111.298 1532.9 111.157C1533.24 111.057 1533.57 110.936 1533.9 110.815C1572.93 96.067 1609.09 79.3447 1644.58 59.7615C1644.94 59.5802 1645.28 59.3787 1645.63 59.1772C1650.34 56.5581 1655.49 53.3748 1660.78 50.4131C1666.36 47.2903 1672.12 44.4294 1677.7 42.6363C1686.89 39.7351 1699.55 38.7277 1709.41 36.8742C1719.31 35.0206 1729.19 33.3484 1739.09 31.8172C1760.72 28.4324 1782.34 25.5715 1804.15 22.2673C1806.4 21.9248 1808.68 21.6025 1810.95 21.3204H1810.98C1820.99 20.0108 1831.2 19.1244 1841.36 18.0566C1841.38 18.0566 1841.41 18.0565 1841.43 18.0364C1843.43 17.8148 1845.43 17.6133 1847.42 17.3716H1847.45C1862.37 15.6187 1877.01 13.2011 1890.65 8.1844C1900.14 4.71906 1909.51 2.76475 1919.36 0.608986V201.719C1920.05 202.868 1919.85 204.46 1919.36 206.071Z" fill="#0A6684"/>
<path d="M811.403 223.136C811.736 219.993 804.903 217.031 802.599 215.379C795.024 210.02 787.014 204.822 778.595 200.289C771.966 196.723 764.161 194.728 757.738 191.525C756.535 190.175 754.999 189.127 753.106 188.382C750.137 187.395 747.194 186.408 744.251 185.36C739.465 183.547 734.731 182.257 729.715 180.827C718.583 177.664 708.551 172.163 698.033 167.973C688.41 164.145 678.967 160.538 670.266 155.481C664.38 152.056 658.11 148.913 652.096 145.71C648.129 143.594 644.649 140.794 640.554 138.86C635.769 136.583 628.27 135.475 625.481 131.466C625.967 134.145 630.42 136.583 632.621 138.598C637.867 143.433 642.499 148.611 648.334 153.044C659.006 161.143 668.935 169.323 676.664 179.396C681.731 185.984 684.341 193.6 688.538 200.511C691.532 205.467 693.708 211.592 697.316 216.185C701.872 222.028 710.88 224.224 716.407 229.362C722.114 234.66 723.65 239.758 727.335 245.862C729.126 248.804 731.609 254.062 734.219 256.278C736.778 258.434 734.987 257.306 737.904 257.689C741.129 256.218 744.635 255.271 748.371 254.848C754.999 254.082 761.628 253.317 768.256 252.591C789.701 250.033 810.814 248.945 832.49 248.804L811.403 223.136Z" fill="#045A78"/>
<path d="M691.097 250.355C686.67 245.923 682.703 242.477 678.967 237.521C671.392 227.508 662.998 217.092 653.631 208.066C638.891 193.862 623.357 180.706 607.234 167.469C601.348 162.634 596.486 156.67 590.293 152.137C584.688 148.027 576.575 148.248 569.41 147.221C562.321 146.193 556.665 144.239 550.498 141.539C547.043 140.028 543.307 139.343 539.801 137.832C535.373 135.938 531.407 133.541 527.261 131.305C523.217 129.108 519.148 127.759 515.719 124.938C514.056 123.568 512.443 121.09 510.473 120.526C509.705 123.81 506.941 126.288 506.097 129.471C504.971 133.803 507.632 137.812 509.986 141.539C511.931 144.582 513.467 147.906 516.103 150.646C518.713 153.366 522.091 155.381 524.343 158.322C529.129 164.588 530.434 172.304 531.125 179.436C531.79 186.146 533.71 193.036 536.781 199.322C539.493 204.822 544.125 208.892 547.273 214.11C550.293 219.127 553.262 222.995 557.612 227.528C564.292 234.499 569.794 242.719 575.117 250.335C577.65 253.981 582.282 259.462 582.948 263.975L682.755 259.441C687.412 258.333 693.349 258.253 697.598 256.439C694.219 255.694 693.119 252.39 691.097 250.355Z" fill="#045A78"/>
<path d="M1465.6 123.427C1462.76 123.89 1462.12 126.429 1460.35 127.92C1456.59 131.103 1452.55 132.292 1447.63 134.327C1439.44 137.732 1432.07 142.789 1427.47 149.115C1422.4 156.106 1413.75 159.753 1408.71 166.885C1405.13 171.922 1401.08 176.777 1399.16 182.398C1397.47 187.375 1394.71 192.109 1391.95 196.783C1386.39 206.152 1382.43 216.286 1373.88 224.325C1365.56 232.182 1356.78 240.181 1346.83 246.749C1342.45 249.63 1336.23 253.982 1330.32 251.403C1333.83 235.003 1345.93 221.101 1351.26 205.286C1352.61 201.276 1355.3 197.388 1356.17 193.278C1356.89 189.933 1356.63 186.609 1357.6 183.285C1359.93 175.286 1362.39 167.852 1362.29 159.531C1362.18 151.835 1363.23 143.735 1362.31 136.059C1362.08 134.166 1360.8 129.35 1358.63 128.121C1355.66 126.449 1346.47 129.753 1343.5 130.539C1334.7 132.856 1321.85 135.274 1314.66 140.331C1307.49 145.388 1303.91 154.615 1299.51 161.163C1294.62 168.436 1288.51 175.185 1283.41 182.338C1278.35 189.45 1274.15 196.642 1268.29 203.452C1259.33 213.848 1249.32 223.136 1236.53 230.691C1232.23 233.23 1228.03 235.909 1223.73 238.448C1221.48 239.778 1219.41 241.369 1216.31 241.269L1229.75 263.934C1231.77 268.689 1232.18 272.074 1238.6 273.142C1243 273.867 1249.5 273.001 1253.83 273.001C1289.32 273.001 1324.59 272.799 1360.01 271.066C1374.24 270.381 1388.41 269.858 1402.67 269.938C1403.97 269.938 1410.27 270.643 1412.21 270.079C1417.18 268.649 1417.92 260.207 1418.92 256.943C1422.53 245.338 1427.42 233.915 1431.31 222.35C1435.53 209.778 1436.94 196.824 1440.88 184.171C1442.92 177.583 1444.08 170.713 1447.02 164.326C1449.94 157.959 1454.54 151.794 1458 145.569C1460.97 140.391 1469.1 129.592 1465.6 123.427Z" fill="#045A78"/>
<path d="M1919.36 74.8518V126.812C1918.75 129.794 1918.11 132.755 1917.44 135.737C1913.96 151.029 1909.53 166.018 1904.18 180.948C1903.88 181.814 1903.54 182.7 1903.24 183.567C1901.6 188.019 1899.94 192.472 1898.17 196.904C1895.28 204.218 1892.16 211.471 1888.6 218.583C1886.71 222.391 1884.94 227.649 1882.43 232.041C1882.41 232.041 1882.41 232.061 1882.41 232.061C1882.41 232.081 1882.38 232.081 1882.38 232.102C1882.38 232.122 1882.35 232.122 1882.35 232.142C1882.35 232.162 1882.33 232.202 1882.3 232.222V232.243C1881.02 234.439 1879.57 236.413 1877.8 237.884C1877.49 238.146 1877.16 238.388 1876.85 238.609C1876.83 238.629 1876.8 238.649 1876.78 238.67C1874.37 240.342 1871.91 240.926 1868.18 241.45C1852.54 243.706 1836.47 242.86 1820.63 242.679C1819.6 242.659 1818.58 242.639 1817.56 242.639C1812.44 242.598 1807.32 242.659 1802.2 242.8C1799.95 242.86 1797.7 242.921 1795.42 243.001C1762.54 244.13 1729.83 247.615 1696.87 247.454C1696.48 247.454 1696.13 247.454 1695.74 247.434C1695.41 247.434 1695.08 247.434 1694.77 247.414C1687.42 247.313 1680.11 246.729 1672.79 246.285C1667.18 245.943 1661.55 245.701 1655.92 245.802L1630.97 239.758C1649.93 233.411 1664.65 217.757 1678.26 206.132C1678.39 206.031 1678.49 205.95 1678.6 205.85C1687.14 198.556 1695.46 191.122 1703.7 183.627C1708.26 179.517 1712.76 175.367 1717.26 171.216C1725.35 163.762 1734.51 156.791 1741.6 148.712C1747.82 141.62 1747.74 134.589 1750.12 126.691C1752.15 119.942 1758.01 114.401 1761.67 108.236C1763.99 104.307 1765.79 100.278 1767.7 96.2281C1769.68 92.0979 1771.7 87.8468 1773.85 83.6562C1775.69 79.9894 1777.61 76.3226 1779.61 72.7968C1782.96 66.9138 1788.23 61.6755 1792.27 56.0745C1797.19 49.2647 1803.97 43.0191 1810.98 37.4584C1815.25 34.0535 1820.45 31.5553 1824.83 28.2713C1828.56 25.4506 1831.73 22.1666 1836.19 20.0109C1837.39 19.4266 1839.31 18.6408 1841.36 18.0364C1841.38 18.0364 1841.41 18.0364 1841.43 18.0163C1843.51 17.432 1845.71 17.0492 1847.42 17.3514H1847.45C1848.37 17.5126 1849.16 17.835 1849.73 18.4394C1851.16 19.9504 1849.8 26.6796 1849.62 28.4526C1847.83 44.6913 1844.99 60.648 1841.46 76.5442C1839.49 85.409 1837.29 94.2335 1834.93 103.119V103.139C1834.52 104.831 1834.06 106.503 1833.6 108.196C1830.25 120.687 1826.46 133.44 1824.93 146.133C1823.32 159.39 1816.99 172.224 1811.21 184.655C1810.49 186.146 1809.98 187.677 1809.57 189.208C1808.86 191.928 1808.42 194.668 1807.83 197.368C1807.35 199.503 1806.76 201.639 1805.84 203.694C1807.12 201.538 1808.34 199.362 1809.57 197.166C1810.98 194.648 1812.39 192.109 1813.77 189.571C1818.38 181.25 1823.11 173.009 1829.23 165.414C1835.55 157.597 1841.49 149.699 1847.52 141.721C1852.08 135.717 1857.15 130.277 1862.01 124.414C1867.95 117.242 1874.52 110.291 1879.69 102.776C1883.1 97.8197 1886.48 91.9972 1891.11 87.2626C1893.08 85.2479 1895.28 83.4144 1897.79 81.9437C1904.18 78.1963 1912.37 77.5113 1919.36 74.8518Z" fill="#045A78"/>
<path d="M282.734 26.7803C281.685 27.9488 280.61 29.1376 279.587 30.3464C276.848 33.5297 274.315 36.8137 272.344 40.279C267.507 48.761 262.338 57.4042 258.397 66.1482C255.454 72.6558 253.765 79.8282 249.849 85.9731C246.65 90.9898 246.087 97.175 242.018 101.769C240.611 103.34 238.666 104.529 237.309 106.12C232.882 111.258 230.067 117.685 226.817 123.326C220.01 135.193 213.484 147.161 206.139 158.826C203.042 163.742 198.845 168.476 193.804 172.304C191.296 174.198 188.225 175.488 185.231 176.878C183.03 177.885 180.88 178.953 179.012 180.323C170.669 186.428 162.634 192.935 154.828 199.604C154.265 200.067 153.702 200.551 153.165 201.034C145.308 207.764 137.656 214.634 130.107 221.424C123.427 227.427 118.923 234.62 114.189 241.591C108.891 249.388 102.724 256.923 96.9147 264.519C96.326 265.284 95.7374 266.07 95.1488 266.836C89.6211 274.129 83.3768 280.959 78.6679 288.574C78.2073 289.219 77.8234 289.884 77.4395 290.549C75.8017 293.43 74.5989 297.742 71.6815 300.179C71.0417 300.723 70.3251 301.187 69.4806 301.509C66.8959 302.516 63.8761 303.161 60.7027 303.584C59.7814 303.705 58.8345 303.826 57.8877 303.907C54.2537 304.269 50.5685 304.43 47.216 304.632C46.3715 304.672 45.5526 304.733 44.7592 304.793C44.5289 304.813 44.273 304.833 44.0427 304.854C41.8418 305.035 39.7433 305.317 37.7216 305.68C35.7254 306.042 33.7805 306.506 31.8355 307.07C30.2233 307.513 28.6366 308.037 26.9988 308.601C25.6424 309.084 24.3372 309.508 23.0065 309.89C21.343 310.354 19.654 310.737 17.9394 311.019C16.2759 311.301 14.5357 311.462 12.7443 311.522C12.1301 311.542 11.5159 311.542 10.8761 311.542C7.31892 311.522 3.65934 311.583 -0.000244141 311.603V271.469C7.57483 266.01 15.2779 260.711 24.2349 257.266C31.8355 254.344 39.4618 251.786 47.344 249.408C59.0137 245.882 66.4352 237.078 76.5438 231.558C92.2058 222.995 107.305 213.042 120.894 202.525C122.02 201.639 123.12 200.752 124.17 199.826H124.195C126.703 197.63 129.006 195.313 131.182 192.855C138.091 185.038 145.129 176.938 151.143 168.476C155.545 162.251 159.409 155.844 162.224 149.175C163.478 146.234 163.248 143.474 164.067 140.512C165.167 136.603 167.726 132.775 169.313 128.967C173.228 119.458 178.756 110.392 183.747 101.204C185.717 97.578 185.128 94.6768 185.999 90.8488C186.485 88.7132 187.662 86.8798 187.585 84.6837C187.457 79.5865 183.388 76.1815 180.957 71.9506C180.906 71.8902 180.88 71.8096 180.829 71.7491C179.166 68.7472 179.294 64.7782 179.498 61.2322C180.931 61.1919 182.313 61.071 183.644 60.9099C190.349 60.1443 198.922 56.2357 204.68 54.1606C216.504 49.9901 228.788 46.9277 240.611 42.8176C244.833 41.3469 248.928 39.7351 252.997 38.1031C253.023 38.1031 253.048 38.083 253.074 38.083C256.298 36.7734 259.523 35.4437 262.747 34.1542C263.336 33.9125 263.925 33.6707 264.513 33.4491C265.588 33.026 266.663 32.6029 267.738 32.1798C268.761 31.797 269.785 31.4142 270.809 31.0314C271.986 30.5882 273.189 30.1651 274.392 29.742C275.722 29.2786 277.053 28.8152 278.409 28.3921C280.047 27.8683 281.429 27.284 282.734 26.7803Z" fill="#045A78"/>
<path d="M540.722 264.277C536.295 265.707 528.233 262.927 523.473 262.826C520.274 262.766 516.845 263.35 513.749 262.605C508.272 261.275 500.671 257.044 496.295 254.183C491.97 251.383 489.078 249.066 487.364 244.815C484.728 238.388 480.812 233.713 475.796 228.233C472.597 224.768 471.036 220.739 467.786 217.253C465.355 214.654 462.284 212.458 459.853 209.94C454.069 203.915 448.925 197.529 442.911 191.626C432.24 181.089 422.105 170.511 413.839 158.624C411.331 155.038 408.849 151.472 406.597 147.825C407.493 150.404 407.928 153.144 409.335 155.562C410.487 157.557 412.816 159.168 413.66 161.284C415.042 164.749 413.967 169.242 413.916 172.808C413.763 186.488 420.493 201.337 427.659 213.566C435.029 226.158 441.785 238.871 448.772 251.604C450.461 254.707 452.099 257.366 452.508 260.711C452.636 261.819 452.278 262.766 452.636 263.874C449.181 261.617 442.707 261.839 438.535 261.094C432.342 259.985 426.098 258.253 420.007 256.822C411.076 254.727 400.506 250.718 391.217 250.637C389.604 247.817 390.858 242.598 390.935 239.476C391.037 233.794 388.401 230.127 385.1 225.11C381.645 219.872 379.854 214.291 379.342 208.388C378.856 202.666 377.013 197.307 375.99 191.626C374.787 184.977 373.584 177.502 373.635 170.793C373.686 164.628 371.639 158.886 371.69 152.741C371.741 148.107 371.511 143.474 371.639 138.86C371.793 134.024 373.738 129.572 373.661 124.757C373.456 112.85 373.635 100.943 373.635 89.0154C373.635 83.354 374.301 77.9747 371.895 72.5953C367.749 63.3276 362.093 53.5561 354.928 45.4972C354.339 44.8323 353.725 44.1675 353.111 43.5026C358.05 44.9935 363.092 46.2829 368.184 47.391C369.003 49.6878 369.541 51.8436 369.796 52.8308C371.153 58.3311 375.145 62.844 378.011 67.9816C379.624 70.8828 380.443 73.2199 382.72 75.839C384.921 78.3776 388.376 81.037 390.039 83.7569C392.01 86.9805 390.039 90.325 390.807 93.6291C391.805 97.9608 393.213 102.615 395.695 106.564C398.664 111.318 401.146 116.255 404.294 120.949C406.136 123.689 409.054 125.422 411.127 127.94C413.507 130.882 415.426 135.193 416.885 138.376C419.239 143.574 423.129 147.725 426.405 152.6C430.627 158.906 436.334 161.929 442.681 166.824C449.565 172.143 455.4 177.865 460.672 184.151C468.17 193.076 478.919 199.523 486.801 208.328C496.577 219.227 505.201 230.852 515.566 241.41C520.837 246.769 527.005 252.068 532.712 257.145C534.785 258.998 539.34 261.779 540.722 264.277Z" fill="#045A78"/>
<path d="M1203.95 131.446C1203.9 131.486 1203.87 131.526 1203.82 131.566C1200.6 134.75 1197.99 138.799 1195.17 142.245C1188.29 150.666 1183.25 159.934 1176.44 168.436C1163.34 184.836 1151.79 201.719 1141.38 219.227C1136.06 228.153 1130.22 235.446 1127.38 245.056C1126.15 249.207 1123.57 250.536 1120.68 253.8C1117.32 257.628 1114.76 261.154 1110.8 264.76C1104.42 270.523 1096.47 272.96 1089.5 277.937C1082.6 282.873 1076.61 286.64 1068.32 290.106C1062.94 292.342 1059.23 295.989 1054.67 299.051C1041.52 307.876 1028.75 316.761 1016.54 326.451C1011.25 330.662 1005.59 333.987 1000.09 337.895C995.917 340.837 991.208 342.61 986.73 345.249C982.226 347.888 976.954 349.742 971.989 351.898C970.223 352.643 968.534 353.449 966.896 354.315C963.646 356.068 954.177 363.079 949.699 362.515C948.342 358.586 950.492 355.061 953.512 351.817C955.969 349.137 959.014 346.679 961.189 344.342C969.711 335.115 979.129 325.968 985.911 315.834C988.239 312.389 991.541 309.286 993.665 305.861C996.224 301.711 997.222 296.654 999.321 292.322C1004 282.732 1007.77 272.839 1012.78 263.31C1018.57 252.329 1020.43 240.422 1026.32 229.503C1032.1 218.784 1035.15 207.159 1040.75 196.36C1041.96 194.043 1043.11 191.605 1044.26 189.087C1058.21 186.689 1072.51 181.451 1084.77 176.455C1116.04 163.681 1145.12 147.805 1178.21 137.732C1186.57 135.193 1195.4 133.581 1203.95 131.446Z" fill="#045A78"/>
<path d="M1660.78 50.4131C1660.45 50.8362 1660.12 51.2392 1659.81 51.6421C1650.16 63.8313 1642.41 77.3299 1637.37 91.151C1631.43 107.45 1624.93 124.656 1613.49 139.061C1605.25 149.437 1594.22 156.489 1582.81 164.81C1574.98 170.491 1567.55 176.858 1560.13 182.882C1553.81 187.999 1548.8 194.567 1541.96 199.282C1534.39 204.5 1522.36 205.064 1516.17 211.289C1512.63 214.815 1509.85 218.684 1505.98 222.068C1501.55 225.957 1497.56 229.885 1494.39 234.459C1488.78 242.518 1484.97 251.08 1479.88 259.26C1475.25 266.674 1464.42 268.588 1456.13 273.122C1449.37 276.829 1442.05 279.931 1435.14 283.437C1427.44 287.366 1418.25 293.712 1409.12 295.143C1424.57 284.344 1437.17 272.658 1448.14 258.938C1459.17 245.157 1469.39 231.034 1480.95 217.515C1488.12 209.114 1496.46 200.591 1502.17 191.505C1508.1 182.036 1515.01 171.7 1518.6 161.465C1519.98 157.516 1518.9 153.547 1519.88 149.578C1520.72 146.153 1522.28 142.889 1522.95 139.424C1524.51 131.284 1521.98 123.346 1525 115.328C1525.3 114.482 1525.66 113.656 1526.07 112.85H1526.1C1528.71 112.487 1531.21 111.802 1533.9 110.795C1572.93 96.0468 1609.09 79.3447 1644.58 59.7615C1649.57 57.0013 1655.1 53.5763 1660.78 50.4131Z" fill="#045A78"/>
</svg>
