<svg width="1920" height="265" viewBox="0 0 1920 265" fill="none" xmlns="http://www.w3.org/2000/svg">
<path d="M1875.06 9.29417C1889.8 6.03031 1904.59 3.12908 1919.36 0.0868416V248.765C1916.54 248.584 1913.73 248.302 1910.94 247.879C1906.72 247.234 1902.44 246.569 1898.17 245.904C1892.1 244.977 1886.04 244.091 1879.97 243.446C1876.55 243.083 1873.09 242.842 1869.64 242.64C1861.19 242.157 1852.69 242.016 1844.25 241.472C1841.41 241.29 1838.59 241.049 1835.75 240.746C1828.48 239.981 1821.14 239.256 1813.77 238.57C1812.39 238.45 1810.98 238.309 1809.57 238.208C1798.03 237.16 1786.44 236.294 1774.97 235.609C1761.38 234.783 1748.05 233.513 1734.54 232.929C1729.22 232.667 1723.89 232.526 1718.49 232.567C1713.58 232.607 1708.64 232.627 1703.7 232.627C1688.29 232.667 1672.89 232.627 1657.51 232.587C1652.52 232.567 1647.6 232.587 1642.74 232.708C1623.09 233.05 1604.18 234.34 1584.29 237.039C1581.35 237.442 1578.38 237.765 1575.41 238.006C1567.86 238.651 1560.26 238.832 1552.63 238.853C1543.27 238.873 1533.88 238.631 1524.56 238.631H1503.34C1482.95 238.651 1462.55 238.631 1442.13 238.49H1439.47C1424.63 238.49 1409.88 239.296 1395.14 240.243H1395.12C1382.12 241.089 1369.12 242.056 1356.09 242.681C1348.75 243.023 1341.43 243.265 1334.06 243.325C1317.09 243.446 1298 241.149 1281.57 245.058C1278.5 245.783 1275.53 246.569 1272.51 247.194C1270.1 247.717 1267.65 248.12 1265.06 248.322C1250.55 249.49 1235.66 248.805 1221.07 249.047C1199.19 249.49 1177.28 250.216 1155.45 251.626C1154.18 251.707 1152.87 251.787 1151.59 251.888H1151.56C1146.22 252.23 1140.87 252.573 1135.52 252.915C1128.81 253.338 1122.11 253.741 1115.4 254.104C1113.38 254.205 1111.33 254.306 1109.31 254.406H1109.06C1108.01 254.467 1106.98 254.527 1105.96 254.567C1104.55 254.628 1103.15 254.688 1101.76 254.749H1101.74C1091.22 255.192 1080.73 255.454 1070.18 255.434C1063.91 255.434 1057.67 255.333 1051.43 255.152C1051.19 255.152 1050.96 255.152 1050.73 255.132H1050.66C1049.99 255.111 1049.38 255.111 1048.74 255.071H1048.71C1044.85 254.97 1041.01 254.829 1037.15 254.688C1036.94 254.668 1036.71 254.668 1036.51 254.668C1035.58 254.628 1034.66 254.588 1033.74 254.547C1031.87 254.467 1030.03 254.386 1028.16 254.306C1023.97 254.124 1019.77 253.923 1015.57 253.721C1015.24 253.701 1014.91 253.681 1014.57 253.681C1012.19 253.56 1009.84 253.459 1007.48 253.379C995.482 252.915 983.557 252.754 971.631 252.774H971.605C964.645 252.794 957.735 252.895 950.8 253.056C938.234 253.318 925.72 253.762 913.155 254.306C892.477 255.192 871.773 256.32 850.916 257.267C844.569 257.549 838.223 257.791 831.876 257.972C825.734 258.174 819.618 258.315 813.476 258.416C811.147 258.456 808.793 258.496 806.438 258.516H806.361C802.292 258.577 798.223 258.617 794.154 258.617H794.129C760.066 258.778 726.004 257.771 691.993 256.018C684.188 255.635 676.382 255.192 668.577 254.708C665.813 254.547 663.049 254.386 660.26 254.205C657.982 254.064 655.679 253.923 653.376 253.762C652.224 253.681 651.098 253.621 649.946 253.54C612.122 251.082 574.554 249.128 536.883 248.362C517.024 247.959 497.14 247.899 477.178 248.261C468.426 248.443 459.648 248.705 450.845 249.047H450.666C440.864 249.45 431.088 249.954 421.286 250.478C407.083 251.223 392.88 252.029 378.651 252.633C369.464 253.036 360.276 253.359 351.064 253.52C340.008 253.701 328.952 253.782 317.871 253.802C304.589 253.842 291.282 253.802 278 253.802C254.123 253.802 230.195 253.6 206.318 252.976C203.375 252.915 200.458 252.815 197.515 252.734C196.056 252.694 194.597 252.633 193.139 252.573C180.343 252.049 167.624 251.001 154.879 250.155C154.316 250.115 153.728 250.075 153.165 250.034C149.326 249.772 145.538 249.551 141.7 249.349H141.674C136.991 249.108 132.282 248.926 127.573 248.846C126.447 248.825 125.321 248.805 124.195 248.825H124.17C98.1686 248.664 70.8881 252.472 45.4246 255.293C38.4126 256.078 31.4005 256.884 24.3884 257.67C16.2759 258.577 8.13784 259.443 -0.000244141 260.209V118.271C0.613951 117.767 1.17696 117.264 1.71438 116.74C4.63181 114 6.98623 110.998 8.95677 107.673C16.6598 94.6583 37.1586 86.6397 55.4053 85.3301C55.7636 85.2898 56.0963 85.2697 56.4545 85.2495C70.3763 84.4436 79.8707 75.055 92.6409 71.5494C95.7374 70.7032 99.0899 70.0584 102.545 69.454C107.765 68.5675 113.242 67.8422 118.488 66.8348C121.943 66.1498 126.678 65.7872 129.825 64.9411C135.276 63.5106 140.113 61.0123 145.462 59.1789C146.844 58.6954 148.277 58.2521 149.761 57.8895C172.282 52.2684 198.078 56.9828 221.366 54.7062C229.632 53.9003 241.558 54.0212 250.796 51.6035C253.279 50.9588 255.556 50.1529 257.501 49.0851C257.603 49.0448 257.68 48.9844 257.783 48.9239C258.039 48.7829 258.294 48.6419 258.525 48.4605C259.062 48.1583 259.548 47.8158 260.009 47.4532L260.137 47.3524C260.163 47.3323 260.163 47.3323 260.188 47.292C266.279 42.3962 271.96 36.493 277.283 30.9727C277.795 30.4085 278.307 29.8847 278.819 29.3407C279.587 28.5348 280.278 27.7491 280.917 26.9634C281.429 26.3589 281.89 25.7545 282.325 25.1501C282.555 24.8479 282.785 24.5255 282.99 24.2233C284.142 22.5914 285.14 20.9393 286.138 19.1663C286.855 17.9575 287.546 16.7084 288.288 15.3787C288.876 14.331 290.335 11.0671 292.28 8.60917C293.611 6.89665 295.146 5.58708 296.784 5.58708H296.861C300.879 5.70796 301.237 10.3015 303.335 12.276C303.361 12.276 303.412 12.3163 303.412 12.3566C306.048 14.734 307.251 14.6936 311.192 15.016C314.109 15.2578 316.72 14.5728 319.688 15.2578C319.765 15.2981 319.868 15.2981 319.944 15.3384C328.185 17.3934 333.201 24.4449 342.234 26.1373C342.823 26.2179 343.386 26.3388 343.975 26.4194C357.257 28.1923 370.078 22.1482 383.718 25.2508C384.307 25.3717 384.87 25.5329 385.458 25.6941C395.311 28.5147 397.742 34.035 403.654 40.6031C413.276 51.3214 424.127 60.2467 435.515 69.454C437.435 71.0054 439.354 72.5567 441.299 74.1282C451.484 81.4215 458.394 90.931 467.991 98.7079C478.714 107.371 490.204 109.91 504.587 114.665C512.597 117.264 519.686 121.313 527.312 124.537C539.417 129.654 552.033 133.704 564.88 137.471C570.766 139.164 576.064 140.856 581.924 141.863C583.664 142.186 584.97 143.072 586.684 143.314C588.271 143.556 590.062 143.072 591.572 143.354C594.745 143.939 595.539 145.047 599.557 144.966C600.734 144.946 601.86 144.845 602.96 144.684C607.516 144.08 611.661 142.609 616.294 141.602C630.011 138.579 641.885 133.402 655.065 129.453C661.13 127.66 668.295 126.108 675.487 125.101C681.501 124.255 687.54 123.791 692.991 123.791C712.953 123.811 732.683 125.302 752.696 125.302C757.277 125.302 761.807 124.799 766.285 123.973C766.95 123.852 767.565 123.731 768.23 123.59C768.23 123.59 768.23 123.59 768.256 123.59C772.709 122.703 777.11 121.535 781.435 120.225C781.742 120.145 782.024 120.064 782.305 119.983C785.786 118.936 789.241 117.828 792.721 116.74C801.269 114.08 809.765 111.381 818.313 108.721C823.226 107.21 828.14 105.699 833.079 104.228C834.307 103.845 835.536 103.483 836.764 103.12C839.17 102.395 841.601 101.69 844.032 101.005C846.182 100.4 848.306 99.7757 850.43 99.131C851.607 98.7885 852.759 98.4258 853.936 98.0833C858.517 96.6932 863.098 95.2829 867.704 93.933C868.984 93.5502 870.263 93.1876 871.543 92.8249C871.671 92.7645 871.824 92.7242 871.978 92.704C873.667 92.2205 875.33 91.7571 877.019 91.3139C877.813 91.0922 878.632 90.8706 879.425 90.6691H879.451L879.911 90.5483C880.193 90.4677 880.474 90.3871 880.756 90.3266C881.805 90.0445 882.88 89.8028 883.955 89.5409C887.077 88.7954 890.225 88.1507 893.372 87.4858C897.16 86.6799 900.947 85.8539 904.633 84.766C909.316 83.3557 914.767 80.9985 920.218 80.0515C921.549 79.8299 922.828 79.6889 924.133 79.6486C925.848 79.6284 927.511 79.7896 929.149 80.2127C931.017 80.6559 933.039 82.2274 934.805 82.9527C937.339 84.0003 940.051 84.8465 942.738 85.6726C944.683 86.2569 946.628 86.8411 948.496 87.506C955.688 89.964 962.495 93.0667 969.43 95.9679C980.844 100.703 992.437 105.014 1004.16 109.104C1004.7 109.305 1005.26 109.487 1005.8 109.668C1016.52 113.395 1027.37 116.941 1038.27 120.447C1039.58 120.87 1040.91 121.293 1042.21 121.696C1047.54 123.388 1052.91 125.04 1058.28 126.652C1071.85 130.782 1085.51 134.751 1099.13 138.801C1106.7 141.078 1112.9 144.946 1120.42 147.223C1128.94 149.822 1137.69 151.454 1146.34 153.67C1149.39 154.435 1152.43 154.959 1155.48 155.201C1168.46 156.329 1181.28 153.307 1194.35 151.333C1199.29 150.567 1204 150.084 1208.79 149.801C1211.99 149.6 1215.24 149.479 1218.59 149.439C1229.26 149.358 1238.63 152.461 1248.97 154.073C1250.63 154.355 1252.37 154.597 1254.14 154.798C1262.09 155.765 1270.82 156.249 1278.6 155.543C1285.72 154.879 1291.63 151.574 1298.08 149.439C1301.43 148.311 1304.91 147.545 1308.77 147.585C1314.84 147.646 1320.34 148.149 1326.38 147.102C1326.56 147.061 1326.74 147.021 1326.92 146.981C1342.84 143.959 1358.04 134.288 1369.25 125.262C1373.55 121.777 1375.52 117.425 1380.25 114.403C1381.2 113.778 1382.2 113.254 1383.24 112.811C1386.55 111.441 1390.23 110.837 1394.04 110.152C1400.24 109.023 1407.97 109.023 1414.36 108.298C1420.66 107.613 1426.95 106.606 1433.25 106.001C1440.03 105.336 1446.56 105.034 1453.26 103.825C1458.02 103.019 1462.01 101.045 1466.65 99.957C1474.53 98.0632 1482.59 97.1364 1490.11 94.7188C1491.75 94.1546 1493.44 93.7919 1495.16 93.4696C1495.97 93.3084 1496.79 93.1472 1497.59 92.9659C1498.74 92.7443 1499.86 92.4824 1500.96 92.1802C1502.3 91.7974 1503.6 91.3139 1504.88 90.7497C1505.01 90.7094 1505.11 90.649 1505.24 90.6087C1505.62 90.4475 1506.03 90.2662 1506.42 90.0849C1507.16 89.7625 1507.87 89.3999 1508.59 89.0372C1510.72 87.9694 1512.81 86.8008 1514.99 85.733C1528.6 79.1449 1541.81 71.9926 1555.19 65.1022C1555.24 65.0619 1555.32 65.0417 1555.37 65.0216C1555.73 64.8201 1556.11 64.6388 1556.47 64.4374C1557.16 64.0949 1557.85 63.7322 1558.55 63.3494C1561.69 61.657 1564.84 59.9042 1568.07 58.2924C1568.94 57.8492 1569.81 57.406 1570.7 57.003C1571.34 56.7008 1571.98 56.3986 1572.62 56.1165C1573.03 55.9352 1573.41 55.7538 1573.82 55.5927C1574.57 55.2703 1575.33 54.9681 1576.1 54.6659C1578.66 53.6585 1580.99 52.49 1583.5 51.805C1585.39 51.3214 1587.36 51.1603 1589.56 51.6035C1594.17 52.5706 1599.24 54.0615 1603.41 55.4315C1609.42 57.3656 1613.57 60.9518 1619.84 63.0069C1624.5 64.5381 1629.1 65.7066 1633.81 66.9154C1635.52 67.3587 1637.27 67.8221 1639.03 68.2854C1643.71 69.5749 1647.91 70.9248 1652.9 70.9046C1657.64 70.8643 1660.83 71.509 1665.26 72.2746C1675.14 74.0073 1685.51 71.9926 1695.43 72.2344C1708.38 72.5164 1721.41 74.7326 1734.38 73.967C1736.41 73.8461 1738.38 73.5842 1740.3 73.1611C1745.54 71.9926 1750.41 69.8972 1755.04 67.6004C1765.15 62.6845 1775.56 56.9627 1785.18 51.4423C1800.85 42.4969 1814.41 30.3682 1831.81 23.7599C1834.4 22.7929 1836.42 21.2617 1838.44 19.8513C1840.31 18.5216 1842.2 17.2322 1844.61 16.5069C1854.26 13.5654 1865.03 11.5104 1875.06 9.29417Z" fill="#56BDB5"/>
<path d="M1208.79 149.801C1207.58 150.567 1206.43 151.393 1205.38 152.38C1199.63 157.881 1195.4 163.119 1192.56 169.868C1189.8 176.477 1184.37 180.486 1176.59 183.427C1170.37 185.785 1164.54 189.069 1160.57 193.481C1157.99 196.362 1156.58 199.303 1154.82 202.527C1152.84 206.174 1149.93 208.551 1146.5 211.452C1142.68 214.696 1138.13 216.65 1133.16 218.705C1124.54 222.291 1116.1 226.12 1107.47 229.686C1097.54 233.796 1087 237.301 1076.1 239.497C1070.64 240.585 1063.97 242.721 1058.23 242.761C1060.08 239.719 1064.12 235.73 1067.11 233.07C1071.57 229.101 1077.04 224.931 1082.31 221.667C1088.17 218.02 1093.19 213.346 1097.9 208.833C1100.18 206.637 1102.63 205.287 1105.53 203.655C1108.65 201.882 1110.85 199.968 1113.48 197.813C1118.35 193.843 1126.18 191.406 1129.86 186.57C1130.76 184.797 1132.04 183.226 1133.7 181.836C1135.14 181.05 1136.47 180.184 1137.69 179.217C1138.77 177.887 1139.2 175.671 1139.77 174.16C1141.46 169.647 1141.2 166.06 1145.27 162.333C1147.96 159.855 1151.05 157.961 1154.25 155.946C1154.58 155.745 1155.02 155.483 1155.48 155.221C1168.46 156.349 1181.28 153.307 1194.35 151.333C1199.29 150.587 1204 150.084 1208.79 149.801Z" fill="#41AEB2"/>
<path d="M1298.77 150.225C1294.37 154.012 1295.11 160.157 1294.01 164.852C1293.34 167.612 1293.01 170.714 1292.14 173.414C1291.42 175.731 1288.97 177.524 1287.25 179.418C1285.25 181.614 1283.87 183.951 1282.11 186.268C1280.24 188.706 1279.85 191.083 1278.32 193.622C1277.4 195.153 1274.66 200.271 1272.15 200.492C1271.28 198.417 1271.92 195.737 1271.92 193.582C1271.92 189.633 1270.46 186.268 1269.62 182.44C1268.95 179.478 1268.47 177.121 1266.78 174.361C1265.32 171.964 1264.17 169.868 1262.99 167.35C1261.71 164.67 1259.54 162.313 1257.82 159.774C1256.77 158.203 1255.21 156.551 1254.14 154.818C1262.09 155.785 1270.82 156.269 1278.6 155.564C1285.72 154.899 1291.63 151.595 1298.08 149.459L1298.77 150.225Z" fill="#41AEB2"/>
<path d="M1172.09 242.902C1172.4 236.536 1174.98 230.915 1176.31 224.709C1177.05 221.163 1177.69 217.698 1178.64 214.192C1179.48 211.069 1181.4 208.229 1182.38 205.126C1183.09 202.769 1184.99 199.303 1185.01 196.845C1181.84 202.043 1175.54 207.04 1170.09 210.767C1165.41 213.971 1161.21 217.436 1156.73 220.821C1153.25 223.42 1149.16 224.387 1145.22 226.381C1141.2 228.416 1138.51 229.907 1133.8 230.834C1129.53 231.7 1124.41 233.01 1120.78 235.065C1117.58 236.858 1114.28 239.235 1112.08 241.774C1110.8 243.225 1108.29 244.998 1108.06 246.831C1110.21 247.516 1113.33 246.952 1115.61 246.73C1124.87 245.844 1134.03 245.904 1143.38 245.944C1148.26 245.965 1153.89 246.67 1158.63 245.501C1163.62 244.272 1165.51 241.25 1168.2 237.886L1172.09 242.902Z" fill="#41AEB2"/>
<path d="M1379.38 135.376V153.247C1379.38 155.664 1379.84 158.364 1379.43 160.762C1379.05 163.139 1376.92 165.134 1375.54 167.31C1368.86 177.786 1363 188.988 1360.34 200.512C1359.8 202.89 1358.29 204.784 1357.35 207.101C1356.14 210.002 1354.33 212.54 1352.48 215.22C1350 218.806 1348.52 223.561 1344.75 226.422C1345.14 224.87 1344.29 224.044 1343.83 222.634C1342.94 219.793 1343.55 216.449 1343.55 213.568C1343.55 205.71 1343.48 198.236 1344.99 190.519C1345.45 188.263 1345.91 186.188 1346.11 183.911C1346.24 182.48 1346.93 182.017 1347.29 180.869C1348.08 178.209 1347.31 174.804 1345.6 172.447C1343.65 169.808 1340.23 166.947 1337.77 164.549C1335.23 162.091 1333.98 159.694 1332.09 156.994C1329.48 153.347 1326.89 151.575 1326.92 147.384V147.001C1342.84 143.979 1358.04 134.288 1369.25 125.262C1373.55 121.797 1375.52 117.445 1380.25 114.403C1381.2 113.798 1382.2 113.274 1383.24 112.831C1383.22 115.289 1382.76 117.566 1381.94 120.024C1380.2 125.161 1379.38 130.057 1379.38 135.376Z" fill="#41AEB2"/>
<path d="M1585.39 52.5102C1583.73 53.6586 1584.27 55.0487 1583.93 56.5396C1582.68 61.919 1580.04 67.3386 1578.35 72.6776C1575.44 81.885 1573.03 90.367 1566.25 98.305C1560.41 105.115 1555.88 111.824 1553.71 119.802C1552.51 124.295 1550.48 128.586 1549.49 133.14C1547.57 141.944 1537.59 148.774 1534.21 157.316C1531.29 164.69 1524.56 171.44 1520.39 178.451C1518.01 182.46 1516.17 186.228 1513.12 189.975C1510.08 193.743 1507.06 197.611 1504.45 201.56C1502.17 204.985 1499.63 208.611 1497.84 212.198C1497.05 213.769 1496.87 217.154 1494.8 217.819C1493.67 214.434 1494.31 209.901 1494.46 206.436C1494.67 202.728 1495.33 199.062 1495.82 195.395C1496.44 190.741 1498.28 186.288 1498.51 181.574C1498.71 177.806 1498.66 174.019 1498.53 170.231C1498.25 161.829 1498.07 153.347 1498.33 144.946C1498.41 142.71 1498.84 140.715 1499.35 138.499C1499.58 137.431 1500.09 136.424 1499.38 135.416C1495 139.829 1492.37 145.49 1488.76 150.305C1484.48 156.007 1480.54 162.051 1476.6 167.914C1474.3 171.339 1472.71 174.965 1470.02 178.229C1464.47 184.979 1459.12 191.869 1453.62 198.659C1447.94 205.67 1442.92 212.943 1436.88 219.773C1434.12 222.896 1429.36 226.784 1429 230.733C1423.86 231.277 1418.33 230.794 1413.11 230.794C1408.73 230.794 1400.42 232.002 1396.32 230.632C1398.91 227.671 1402.59 225.455 1405.18 222.392C1412.21 214.071 1417.46 204.622 1424.01 196.04C1431.92 185.684 1437.29 174.784 1443.61 163.804C1451.34 150.386 1463.4 140.352 1476.6 130.037C1481.87 125.927 1487.32 122.522 1490.19 117.102C1493.03 111.763 1496.41 105.961 1496.69 100.078C1496.77 98.4057 1495.21 96.1895 1495.77 94.5979C1496.08 93.6913 1496.54 93.53 1497.46 93.0264C1499.66 91.7772 1503.37 91.4549 1505.85 90.3468C1509 88.9566 1511.92 87.2239 1514.99 85.7331C1528.6 79.1449 1541.81 71.9725 1555.19 65.1022C1562.08 61.5765 1568.73 57.4865 1576.1 54.6458C1578.66 53.6586 1580.99 52.4699 1583.5 51.805L1585.39 52.5102Z" fill="#41AEB2"/>
<path d="M1838.44 19.8513C1836.62 21.7855 1834.98 23.8405 1833.35 26.0366C1826.95 34.6596 1820.88 43.8669 1816.07 53.0944C1813.77 57.4865 1813.44 61.5361 1812.46 66.1498C1811.59 70.1995 1809.27 73.3827 1806.71 76.8682C1803.58 81.0992 1800.13 85.1689 1797.67 89.6618C1796.57 91.6765 1795.55 93.6912 1794.06 95.5448C1789.43 101.267 1782.75 106.142 1777.63 111.622C1773.51 116.014 1770.52 120.668 1766.83 125.282C1763.28 129.775 1759.18 133.925 1755.32 138.257C1746.9 147.726 1739.86 157.921 1731.34 167.31C1724.86 174.442 1718.01 181.473 1712.07 188.887C1709.33 192.332 1707.69 196.221 1705.01 199.686C1703.57 201.54 1701.32 203.333 1700.42 205.388C1700.86 203.031 1700.3 200.653 1700.63 198.296C1701.4 192.856 1704.31 187.88 1706.34 182.682C1707.97 178.411 1709.23 174.039 1710.84 169.768C1715.11 158.445 1715.93 146.538 1720.1 135.295C1721.72 130.944 1723.53 126.33 1723.61 121.777C1723.71 116.599 1724.22 110.192 1726.86 105.397C1727.45 104.309 1728.58 103.463 1729.24 102.395C1730.11 101.005 1730.29 99.5339 1730.9 98.0632C1731.88 95.7865 1733.41 93.6913 1734.46 91.4348C1737.2 85.5115 1740.07 80.5351 1740.27 74.1081C1740.3 73.7857 1740.3 73.4633 1740.3 73.1611C1745.54 72.0127 1750.4 69.8973 1755.04 67.6206C1765.15 62.6845 1775.56 56.9627 1785.18 51.4625C1800.85 42.4969 1814.41 30.3884 1831.81 23.7801C1834.4 22.7929 1836.42 21.2818 1838.44 19.8513Z" fill="#41AEB2"/>
<path d="M1894.72 88.8962C1890.72 89.3395 1886.5 98.5871 1884.89 100.602C1879.36 107.492 1872.6 114.947 1865.36 120.81C1861.47 123.953 1856.97 126.491 1853.28 129.836C1850.01 132.797 1847.52 136.283 1844.86 139.587C1838.98 146.92 1833.27 154.294 1827.38 161.628C1819.14 171.903 1804.66 178.431 1796.47 188.746C1795.16 190.398 1794.7 191.265 1793.04 192.655C1785.16 199.183 1774.41 204.119 1765.58 209.861C1755.96 216.127 1746.77 222.815 1738.17 229.948C1732.34 234.783 1726.89 238.691 1723.58 244.917L1797.8 264.057C1808.93 261.962 1820.17 260.35 1831.5 259.201C1839.03 258.798 1846.53 259 1854 259.766C1854.2 259.786 1864.13 260.974 1865.34 259.866C1867.33 258.013 1867.33 252.593 1867.82 250.055C1869.02 243.91 1871.09 238.006 1872.45 231.902C1873.55 226.946 1872.86 222.07 1873.53 217.094C1873.96 213.951 1874.88 210.808 1875.5 207.685C1876.34 203.293 1877.24 198.84 1879.62 194.75C1881.79 191.023 1883.74 188.122 1884.84 184.052C1887.01 176.094 1889.24 168.498 1889.9 160.318C1890.21 156.611 1891.08 152.985 1891.26 149.278C1891.52 143.455 1890.59 137.612 1891.39 131.81C1892.59 123.126 1897.79 115.188 1897.61 106.384C1897.53 101.186 1899.19 93.2077 1894.72 88.8962Z" fill="#41AEB2"/>
<path d="M1664.14 156.329C1661.86 158.223 1660.89 160.923 1659.43 163.179C1656.1 168.297 1651.44 173.132 1647.35 177.867C1642.41 183.609 1637.7 189.492 1631.58 194.509C1625.88 199.183 1620.63 204.058 1615.03 208.813C1604.71 217.577 1592.15 224.367 1581.5 232.768C1574.36 238.389 1568.73 244.957 1560.9 250.095C1561.8 251.747 1565.99 251.042 1567.71 250.84C1573.52 250.155 1579.28 249.067 1585.08 248.382C1601.39 246.448 1617.71 244.796 1634.02 242.923L1645.53 243.93C1643.92 239.618 1642.59 236.697 1642.77 232.124C1643.07 224.689 1644.99 217.658 1648.12 210.626C1652.31 201.157 1657.64 191.829 1661.27 182.259C1663.73 175.812 1665.65 168.881 1667.08 162.232C1667.46 160.318 1668.72 152.521 1664.14 156.329Z" fill="#41AEB2"/>
<path d="M795.511 208.954C792.619 202.164 790.93 194.75 786.912 188.303C782.664 181.493 775.984 176.235 771.634 169.425C769.177 165.597 768.665 161.85 767.027 157.84C765.466 153.952 761.628 150.849 759.35 147.142C757.328 143.878 756.688 140.252 755.23 136.806C754.283 134.57 754.769 131.87 751.135 131.991C745.94 132.173 742.639 137.612 740.822 140.594C738.851 143.838 737.418 147.565 735.729 150.93C733.631 155.1 730.585 159.13 728.922 163.381C727.744 166.383 726.977 169.485 725.492 172.407C723.624 176.094 723.675 179.519 722.345 183.246C721.014 186.993 719.632 190.701 718.327 194.468C717.431 197.087 715.998 199.545 715.461 202.265C715.23 203.434 715.589 204.945 714.386 205.69C718.097 205.146 721.731 205.771 725.237 206.798C738.211 210.566 749.779 217.053 762.83 220.74C774.014 223.883 785.684 225.515 796.918 228.376C796.995 228.175 797.046 227.973 797.123 227.772L811.198 231.801C805.031 224.588 799.068 217.295 795.511 208.954Z" fill="#41AEB2"/>
<path d="M725.544 133.059C725.16 130.984 725.339 131.064 722.319 131.064C717.303 131.064 713.797 136.142 710.214 138.68C701.564 144.805 695.32 153.186 685.8 158.606C676.689 163.804 669.114 170.452 660.157 175.751C655.346 178.592 651.072 181.211 647.49 185.039C645.826 186.812 642.167 189.25 641.45 191.406C643.088 192.272 645.186 190.197 646.159 189.512L680.707 198.578C687.054 189.109 695.243 180.486 701.769 171.097C704.379 167.35 707.118 163.723 709.421 159.835C711.084 157.034 711.954 154.053 713.49 151.272C714.718 149.056 715.998 146.115 718.071 144.362C720.272 142.488 722.78 141.319 724.29 138.902C725.441 137.129 725.902 135.054 725.544 133.059Z" fill="#41AEB2"/>
<path d="M383.718 25.271C381.441 26.7417 379.393 27.8498 377.5 30.0257C374.787 33.1687 372.663 36.352 371.204 39.9785C369.669 43.8065 366.29 46.2847 362.119 48.4606C356.003 51.6438 353.136 57.003 349.323 61.6167C348.402 62.745 346.585 65.2836 344.487 64.4978C343.463 64.0949 342.03 59.7834 341.748 58.9573C340.75 56.0763 341.134 50.979 341.595 47.977C342.234 43.7662 344.231 39.7972 344.205 35.3849C344.179 33.3702 344.205 31.3555 344.205 29.3407C344.205 28.7162 344.026 27.5678 343.975 26.4194C357.257 28.2125 370.078 22.1683 383.718 25.271Z" fill="#41AEB2"/>
<path d="M346.841 76.7474C346.534 77.7749 345.434 79.165 344.896 80.1926C343.719 82.3685 342.542 84.1616 341.646 86.3375C341.467 86.7606 340.699 89.2992 340.136 89.6014C338.985 90.2461 336.4 89.7827 335.069 89.7827C328.185 89.7827 321.71 88.7753 314.75 88.7753H302.619C299.267 88.7753 295.147 89.3999 293.278 86.5591C292.024 84.6653 293.022 80.3336 293.022 78.198C293.022 76.687 293.048 75.1759 293.022 73.6649C293.022 73.0201 292.894 72.2344 292.997 71.63C293.176 70.4211 293.739 70.2197 294.02 69.1921C294.404 67.7012 294.072 66.2506 294.584 64.8201C295.095 63.3897 295.684 62.886 295.582 61.0728C295.428 58.232 295.172 59.7028 293.304 58.3328C291.538 57.0232 291.717 56.177 291.743 54.3234C291.82 48.5008 292.485 42.9603 294.276 37.3594C295.633 33.0075 296.528 28.4543 299.113 24.2838C300.29 22.3496 301.416 20.5162 302.338 18.4813C303.285 16.3457 302.978 14.8548 303.361 12.6789C303.387 12.5782 303.387 12.4573 303.413 12.3566C306.048 14.7541 307.251 14.7138 311.192 15.0361C314.11 15.2779 316.72 14.5728 319.689 15.2779C319.766 15.2981 319.868 15.3182 319.945 15.3585C320.098 18.4007 320.687 20.9595 322.453 24.0622C324.884 28.2931 325.14 32.6248 328.569 36.4326C330.744 38.8704 331.154 41.9127 334.25 43.6856C335.76 44.552 337.782 45.3377 339.113 46.4055C340.93 47.8964 341.493 49.6694 343.412 51.12C344.666 52.0871 346.457 53.175 346.867 54.5048C347.225 55.6733 346.765 57.3254 346.765 58.5544V68.1243C346.765 70.683 347.558 74.2693 346.841 76.7474Z" fill="#41AEB2"/>
<path d="M290.821 17.3329C289.746 22.0676 287.904 26.782 286.88 31.4764C286.471 33.3702 286.829 35.3044 286.343 37.1579C285.882 38.9107 284.705 41.7313 283.809 43.6655C282.632 46.2645 280.738 49.1858 278.947 51.5229C277.77 53.0541 275.671 54.807 275.057 56.459C274.212 58.6752 275.799 61.3347 274.852 63.5912C274.366 64.7597 273.214 65.6059 272.805 66.8349C272.37 68.0639 272.805 69.2526 272.293 70.4412C271.602 72.053 268.992 74.1685 267.738 75.6594C264.411 79.6284 261.98 84.4839 259.753 88.8962C258.115 92.2004 258.474 95.021 257.987 98.4057C257.45 102.254 253.509 104.188 250.54 106.948C248.032 109.285 247.034 113.557 243.119 114.745C241.993 115.088 240.432 115.511 239.254 115.753C237.514 116.095 235.748 115.612 234.059 115.934C232.908 116.156 232.805 116.82 231.628 117.042C230.246 117.304 228.659 116.861 227.252 117.082C224.053 117.586 220.701 118.654 217.322 119.258C207.879 120.971 198.82 120.991 189.197 121.011C178.423 121.031 167.291 120.709 156.594 119.782C150.657 119.278 144.438 117.687 138.501 118.049C145.615 115.652 151.911 111.804 156.619 107.009C159.895 103.644 161.994 99.9772 167.086 98.3655C171.718 96.8947 175.762 95.3031 179.447 92.8249C180.88 91.8579 181.981 90.9109 183.235 89.823C185.18 88.1306 187.56 87.365 189.377 85.5719C191.705 83.2751 193.906 80.8776 196.261 78.5606C200.125 74.7326 204.962 71.7508 208.673 67.802C210.182 66.1902 211.948 64.0143 214.021 62.7853C215.378 61.9794 217.45 62.0197 218.858 61.5966C222.825 60.4079 227.38 58.3529 231.705 57.4865C237.796 56.2777 244.014 55.0286 249.747 52.9131C262.517 48.2188 270.706 37.9034 278.844 29.3407C283.195 24.7673 285.319 20.7177 288.313 15.3787C288.902 14.331 290.361 11.0671 292.305 8.60918C292.561 11.6111 291.205 15.4794 290.821 17.3329Z" fill="#41AEB2"/>
<path d="M145.462 59.1991C143.747 64.4777 137.733 69.6757 134.381 74.1685C132.205 77.11 129.237 82.1267 125.449 84.0004C121.994 85.7129 119.051 87.3449 116.466 89.9842C114.829 91.6564 113.421 93.4898 111.348 94.9001C109.454 96.1694 107.126 96.7133 105.155 97.8214C103.338 98.8288 102.673 100.32 101.137 101.428C99.7297 102.415 97.9127 102.858 96.5307 103.886C94.3043 105.558 91.7707 106.868 89.4419 108.56C89.0836 106.162 93.2038 103.563 94.6881 101.67C96.8122 98.9497 98.6036 95.9075 99.8064 92.8652C101.649 88.2112 101.086 83.3154 101.086 78.4801C101.086 75.599 100.421 72.5366 102.186 69.9376C102.289 69.7764 102.391 69.6354 102.545 69.4742C107.765 68.5877 113.242 67.8624 118.488 66.8349C121.943 66.17 126.677 65.7872 129.825 64.9612C135.276 63.5106 140.113 61.0325 145.462 59.1991Z" fill="#41AEB2"/>
<path d="M434.799 114.161C434.082 113.093 432.419 112.106 431.574 110.958C430.448 109.426 429.118 108.097 427.736 106.686C424.076 102.899 420.826 98.6878 418.42 94.3158C417.755 93.107 416.271 91.3542 415.989 90.2058C415.273 87.2844 416.066 87.5463 412.893 85.1891C408.542 81.9252 405.19 78.8225 402.784 74.7125C401.479 72.456 399.38 70.6226 397.922 68.4669C396.744 66.7342 396.258 64.7598 395.132 62.9868C394.006 61.234 391.933 59.5617 391.575 57.5672L390.295 62.604C391.268 65.2634 392.752 67.9027 392.88 70.6427C392.957 72.2747 392.42 74.0073 393.034 75.599C397.922 76.0825 397.717 77.7951 400.481 80.7366C403.577 83.9803 404.934 86.9419 406.623 90.8303C407.826 93.5704 409.361 96.4918 409.489 99.3728C409.643 102.677 408.158 105.619 408.209 108.943C408.235 110.313 407.774 112.187 408.158 113.516C408.696 115.41 410.052 115.229 412.048 116.196C414.172 117.243 414.71 118.714 416.194 120.064C417.294 121.071 418.625 121.575 419.572 122.643C422.003 125.383 423.129 128.828 423.692 132.152C424.306 135.799 425.433 139.385 425.97 143.052C426.303 145.329 427.608 147.666 427.352 149.922C429.118 148.895 428.811 146.699 429.297 145.188C430.013 143.072 429.681 141.199 430.039 139.063C430.909 134.087 432.163 128.848 434.082 124.013C435.029 121.656 436.386 116.558 434.799 114.161Z" fill="#41AEB2"/>
<path d="M675.487 125.121C672.16 127.519 668.475 129.533 665.378 132.072C662.307 134.59 661.539 136.746 659.953 139.929C658.724 142.387 657.726 144.724 656.728 147.223C655.986 149.157 655.96 151.595 655.167 153.347C653.939 156.067 649.409 158.465 646.824 160.379C642.704 163.401 642.32 168.297 638.686 171.44C635.973 170.896 634.643 168.619 632.851 167.068C630.267 164.791 627.631 162.575 624.585 160.661C622.41 159.271 619.518 158.122 617.496 156.672C614.451 154.476 611.687 151.957 609.41 149.157C608.028 147.464 605.392 146.014 602.96 144.704C607.516 144.08 611.662 142.629 616.294 141.602C630.011 138.579 641.885 133.422 655.065 129.473C661.13 127.66 668.295 126.128 675.487 125.121Z" fill="#41AEB2"/>
<path d="M906.142 100.662C905.323 104.571 905.835 108.963 905.938 112.952C906.04 117.505 901.331 119.319 897.569 122.502C892.195 127.055 888.305 132.314 885.26 138.015C884.083 140.211 882.419 142.004 880.96 144.06C879.195 146.538 878.171 149.419 876.815 152.038C875.586 154.435 874.998 156.833 873.923 159.291C871.543 164.771 874.127 170.473 872.387 175.973C871.492 178.793 869.367 182.259 867.55 184.717C864.019 189.472 863.174 193.622 863.788 199.122C864.556 205.851 864.966 212.198 864.966 219.008C864.966 221.123 866.808 228.598 863.353 229.464C860.359 226.502 858.235 223.138 856.981 219.531C856.162 217.174 854.627 215.018 853.731 212.701C852.963 210.667 851.658 209.599 850.507 207.725C849.048 205.368 847.768 203.011 846.284 200.653C844.288 197.49 840.935 195.052 839.656 191.567C837.813 186.611 834.589 182.158 832.337 177.444C830.52 173.656 829.445 170.936 824.659 168.881C819.285 166.584 816.188 164.046 812.554 160.318C810.661 158.384 808.357 156.692 807.513 154.274C806.745 152.098 806.31 150.063 804.314 148.25C800.117 144.382 793.207 142.367 788.319 139.184C784.148 136.484 779.49 134.087 775.447 131.266C773.937 130.218 773.246 129.15 772.197 127.861C770.815 126.169 768.614 125.605 767.206 124.134C770.943 121.938 777.827 121.353 782.28 120.004C785.76 118.956 789.215 117.848 792.695 116.76C809.816 111.441 826.681 105.961 844.006 101.025C857.339 97.2371 870.365 92.7645 883.929 89.5409C890.813 87.909 897.851 86.7606 904.607 84.766C909.29 83.3758 914.741 81.0186 920.192 80.0717C913.103 85.31 907.627 93.2883 906.142 100.662Z" fill="#41AEB2"/>
<path d="M1055.65 191.386C1054.73 190.539 1053.81 189.693 1052.88 188.867C1045.74 182.4 1037.22 176.356 1029.47 170.352C1026.96 168.397 1024.04 167.148 1021.18 165.597C1010.66 159.875 1006.33 149.822 995.533 144.12C991.976 142.246 988.035 140.493 984.273 138.861C982.968 138.277 981.586 137.915 980.511 136.988C979.795 136.363 979.488 135.175 978.976 134.429C977.543 132.394 975.598 130.561 973.576 128.868C969.225 125.222 964.593 122.119 960.934 117.989C951.388 107.21 942.559 97.3581 927.716 90.7901C930.813 92.1601 937.518 96.391 939.207 98.7885C940.64 100.823 940.026 104.248 940.972 106.525C941.612 108.097 942.841 109.386 943.659 110.877C946.244 115.571 945.681 120.951 948.036 125.746C948.906 127.519 950.595 129.453 951.618 131.286C954.817 137.068 957.991 143.999 963.851 148.17C967.332 150.648 971.119 152.501 974.907 154.738C979.667 157.558 981.919 160.097 984.094 164.59C985.809 168.136 987.088 171.52 989.699 174.744C991.285 176.718 994.075 178.612 995.226 180.788C996.096 182.4 996.071 184.818 996.531 186.53C997.811 191.285 999.91 195.798 1001.34 200.472C1002.78 205.126 1005.54 209.357 1007.1 213.951C1010.45 223.923 1014.65 233.977 1020.54 243.366C1022.69 246.771 1025.48 250.095 1027.8 253.439C1028.93 255.051 1027.63 255.373 1029.98 256.159C1032 256.844 1035.94 255.152 1037.45 254.648C1050.15 250.377 1063.4 247.214 1076.38 243.527C1086.56 240.626 1097.9 235.75 1108.72 234.541C1108.16 232.748 1102.92 230.149 1100.87 228.92C1094.24 224.931 1088.46 220.498 1082.6 215.784C1072.95 208.047 1064.5 199.565 1055.65 191.386Z" fill="#41AEB2"/>
<path d="M957.121 116.982C959.731 120.89 966.59 124.053 971.401 126.128C978.541 129.211 986.346 130.118 994.177 131.286C999.219 132.032 1003.59 134.228 1008.33 135.678C1014.55 137.592 1021.13 140.393 1026.86 143.133C1040.06 149.459 1053.27 156.168 1065.99 163.119C1070.93 165.819 1075.99 167.813 1081.52 169.586C1085.54 170.876 1088.58 172.991 1092.35 174.462C1086.97 174.603 1081.37 172.89 1076.04 172.407C1068.21 171.702 1060.56 170.291 1053.09 168.599C1049.89 167.874 1048.18 166.987 1045.62 165.396C1038.17 160.782 1028.47 158.485 1020.66 154.254C1014.88 151.111 1009.46 147.827 1003.24 145.188C997.786 142.871 992.386 141.763 986.653 140.151C976.289 137.25 959.117 137.673 959.68 126.048L957.121 116.982Z" fill="#41AEB2"/>
<path d="M476.001 115.974C475.975 118.372 479.609 121.212 481.401 123.006C486.084 127.68 490.972 132.273 495.783 136.867C502.386 143.173 508.528 149.862 514.746 156.39C517.971 159.774 522.168 163.562 527.107 165.375C532.712 167.451 538.495 167.672 543.793 170.372C548.322 172.669 552.571 174.885 556.921 177.423C561.4 180.043 564.906 183.266 569 186.228C573.504 189.472 578.674 192.917 583.485 195.878C585.046 196.846 587.298 197.43 588.655 198.558C590.344 199.948 589.832 201.238 592.084 199.706C592.468 199.444 593.415 197.047 593.517 196.926C594.285 195.858 595.436 194.811 596.332 193.823C597.535 192.494 601.834 189.21 601.527 187.396C601.399 186.671 600.247 185.946 599.582 185.523C596.23 183.387 592.289 181.634 588.859 179.458C584.841 176.92 581.31 174.019 577.42 171.379C573.249 168.559 568.668 166.121 564.496 163.3C561.425 161.225 558.661 158.989 555.283 157.216C551.854 155.402 548.092 154.073 544.663 152.26C537.676 148.552 532.225 144.321 527.184 139.164C524.804 136.706 522.117 134.61 519.762 132.092C518.099 130.299 516.487 128.526 514.644 126.813C512.674 124.96 510.14 124.355 507.658 123.328C506.224 122.744 504.97 121.837 503.563 121.293C500.978 120.286 498.035 120.125 495.476 119.077C490.102 116.921 484.549 114.866 479.251 112.469C477.05 111.461 474.926 110.313 472.751 109.326C471.292 108.661 469.245 108.137 468.042 107.291C469.501 109.729 472.725 111.703 474.593 114.04C478.586 119.057 481.836 124.255 486.186 129.11L476.001 115.974Z" fill="#41AEB2"/>
</svg>
