<svg width="1920" height="349" viewBox="0 0 1920 349" fill="none" xmlns="http://www.w3.org/2000/svg">
<path d="M1920 228.097C1919.77 228.076 1919.56 228.056 1919.36 228.036V327.906C1915.6 327.745 1911.86 327.584 1908.1 327.403C1878.23 325.912 1848.39 324.36 1818.58 322.89C1811.88 322.547 1805.2 322.225 1798.52 321.923C1784.03 321.217 1769.55 320.553 1755.06 319.968C1755.06 319.968 1755.06 319.968 1755.04 319.968C1755.01 319.948 1755.01 319.948 1754.96 319.948C1744.08 319.485 1733.21 319.042 1722.31 318.679C1722.28 318.659 1722.28 318.679 1722.25 318.679C1689.65 317.47 1656.97 316.584 1624.29 316.241C1567.55 315.637 1511.05 318.175 1454.36 318.618C1398.52 319.001 1342.2 315.032 1287.02 308.222C1283.18 307.739 1279.32 307.255 1275.48 306.752C1261.66 304.918 1247.84 303.085 1234.02 301.231C1193.94 295.852 1153.89 290.412 1113.74 285.617C1090.73 282.877 1067.7 280.359 1044.59 278.203C1022.05 276.108 999.475 274.335 976.801 273.045C972.041 272.783 967.306 272.521 962.546 272.3C948.855 271.655 935.163 271.171 921.446 270.769C900.384 270.184 879.323 269.822 858.261 269.399C850.302 269.258 842.369 269.076 834.41 268.895C781.051 267.626 727.693 266.477 674.309 266.034C667.604 265.994 660.899 265.953 654.194 265.913C632.621 265.812 611.022 265.671 589.397 265.591C584.458 265.55 579.519 265.55 574.579 265.51C533.147 265.389 491.689 265.51 450.333 266.316C433.084 266.679 415.861 267.303 398.638 268.008C382.771 268.653 366.93 269.419 351.064 270.184C342.49 270.587 333.892 271.01 325.319 271.393C325.319 271.393 325.319 271.393 325.293 271.393C306.074 272.28 286.855 273.065 267.584 273.569C261.186 273.73 254.763 273.851 248.339 273.932C248.032 273.952 247.725 273.952 247.392 273.952H247.367C246.676 273.952 245.934 273.972 245.217 273.972H245.192C221.852 274.254 198.436 274.113 174.969 274.113H174.943C129.876 274.133 84.7843 274.738 40.3831 280.016C26.8708 281.628 13.4353 283.28 -0.000244141 284.831V9.37722C23.4415 4.05833 49.1354 0.814615 73.4729 0.693731C82.4555 0.613142 92.1546 -0.112134 101.24 0.53258C102.75 0.653464 104.259 0.77435 105.718 0.975823C114.624 2.14437 121.866 7.26175 129.851 10.3241C136.837 13.0037 143.926 15.361 151.143 17.4765C162.275 20.7605 173.663 23.4602 185.231 25.8779C191.808 27.2479 198.436 28.5172 205.115 29.7462C242.018 36.5157 278.716 43.5672 314.724 52.9559C315.773 53.2379 316.822 53.4999 317.871 53.8021C340.213 59.7053 362.324 66.2128 384.332 72.8816H384.358C397.154 76.7499 409.898 80.6988 422.617 84.5872C430.218 86.9041 436.283 89.1808 443.398 90.7321C446.161 91.3365 449.104 91.8402 452.355 92.1827C463.999 93.3915 475.617 93.3915 487.236 93.4923C494.862 93.5527 502.514 93.6736 510.166 94.2176C513.569 94.4594 516.999 94.7616 520.402 95.0839C521.631 95.2048 522.885 95.3458 524.113 95.4667C538.803 96.9576 553.441 98.8112 568.335 98.4486C570.306 98.4083 572.302 98.2874 574.323 98.0859C575.322 98.0053 576.345 97.9046 577.343 97.7635C578.367 97.6628 579.391 97.5218 580.44 97.3606C580.875 97.3203 581.336 97.2397 581.771 97.1591C581.873 97.1591 581.975 97.139 582.103 97.0987C582.129 97.1188 582.154 97.0987 582.18 97.0786C582.897 96.9778 583.613 96.8569 584.33 96.736C585.123 96.6151 585.942 96.4741 586.761 96.3129C587.759 96.1316 588.757 95.9503 589.755 95.7287C590.804 95.5272 591.828 95.3055 592.877 95.0839C594.822 94.6608 596.742 94.2176 598.661 93.7542C600.452 93.311 602.244 92.8879 603.984 92.4446C607.004 91.679 609.947 90.8933 612.762 90.1479C613.402 89.9867 614.041 89.8054 614.681 89.6442C615.321 89.4629 615.935 89.3017 616.549 89.1405C625.66 86.7228 634.822 83.741 644.06 81.2025C648.948 79.8324 653.862 78.6034 658.775 77.6565C659.722 77.455 660.618 77.2939 661.514 77.173H661.539C663.126 76.9514 664.636 76.8305 666.35 76.8506C668.116 76.8708 669.857 76.9514 671.571 77.0319C671.571 77.0319 671.597 77.0319 671.622 77.0319C673.004 77.0924 674.335 77.1528 675.691 77.2133C678.404 77.2939 681.142 77.3341 684.034 77.1327C687.873 76.8506 691.686 76.4678 695.499 76.0447C697.393 75.8433 699.312 75.6015 701.206 75.3597C702.46 75.1985 703.74 75.0373 705.019 74.856C706.785 74.6142 708.525 74.3725 710.291 74.1106C711.75 73.9091 713.183 73.6875 714.642 73.4457C714.872 73.4256 715.128 73.3852 715.358 73.345C715.716 73.2845 716.049 73.2442 716.407 73.1636C718.608 72.8211 720.783 72.4585 722.959 72.0958C725.134 71.7332 727.309 71.3504 729.485 70.9676C732.991 70.3632 736.497 69.7184 739.977 69.0737C746.989 67.7843 754.001 66.4748 761.013 65.2055C764.059 64.6615 767.104 64.1175 770.149 63.5937C773.502 63.0094 776.88 62.4453 780.258 61.9215C781.87 61.6595 783.483 61.4178 785.095 61.176C787.245 60.8537 789.42 60.5313 791.595 60.2492C792.977 60.0679 794.359 59.8866 795.766 59.7052C797.532 59.4836 799.298 59.2822 801.064 59.0807C801.806 58.9799 802.548 58.8994 803.265 58.8389C804.007 58.7583 804.749 58.6777 805.466 58.6173C805.773 58.577 806.08 58.5568 806.361 58.5166H806.438C806.643 58.4964 806.848 58.4763 807.052 58.4561C808.102 58.3554 809.151 58.2546 810.226 58.174L814.064 57.8718C816.598 57.6704 819.132 57.5092 821.665 57.3883C825.171 57.2271 828.498 57.4689 831.876 57.9726C832.951 58.1338 834.026 58.3151 835.101 58.5166C854.525 62.264 874.204 65.004 893.884 67.744C899.31 68.4894 904.888 69.0536 910.493 69.5976C922.495 70.7258 934.754 71.6526 946.526 73.4457C951.158 74.1307 955.688 74.9769 960.115 76.0044C965.643 77.2938 970.889 79.2482 976.238 80.9405C976.545 81.0211 976.826 81.1219 977.133 81.2025C977.287 81.2629 977.415 81.3031 977.568 81.3434C979.001 81.7867 980.46 82.1897 981.919 82.5725C989.929 84.6073 998.246 85.8162 1006.49 87.0854C1006.79 87.1459 1007.1 87.1862 1007.41 87.2467C1009.25 87.5287 1011.09 87.8309 1012.94 88.1331C1013.01 88.1533 1013.06 88.1533 1013.14 88.1734C1015.93 88.6569 1018.74 89.1002 1021.56 89.5031H1021.59C1022.63 89.6643 1023.71 89.8255 1024.78 89.9464C1025.12 90.0068 1025.45 90.0673 1025.81 90.0874C1027.24 90.3091 1028.7 90.4903 1030.16 90.6717C1031 90.7925 1031.87 90.8933 1032.74 90.9739C1033.02 91.0343 1033.31 91.0746 1033.61 91.0948C1035.17 91.2963 1036.74 91.4574 1038.32 91.6186C1065.55 94.6205 1093.34 95.6481 1120.5 98.6903C1121.78 98.8313 1123.06 98.9724 1124.31 99.1134C1126.77 99.4156 1129.22 99.7178 1131.68 100.06C1135.72 100.604 1140.51 100.967 1145.37 101.068C1146.22 101.088 1147.04 101.108 1147.88 101.108C1148.67 101.108 1149.47 101.108 1150.26 101.088H1150.39C1153.2 101.048 1155.94 100.907 1158.47 100.645H1158.5C1159.06 100.584 1159.6 100.524 1160.14 100.443C1160.29 100.423 1160.47 100.403 1160.62 100.383C1160.75 100.363 1160.91 100.342 1161.03 100.322C1161.88 100.201 1162.72 100.08 1163.54 99.9193C1165.56 99.5365 1167.53 99.0731 1169.53 98.5291C1171.35 98.0456 1173.14 97.4814 1174.9 96.8972C1175.31 96.7561 1175.62 96.595 1176.03 96.4338H1176.23C1176.62 96.3129 1176.98 96.192 1177.34 96.051C1177.51 95.9906 1177.72 95.91 1177.9 95.8294C1177.92 95.8294 1177.92 95.8294 1177.92 95.8294C1178.69 95.5473 1179.46 95.2653 1180.25 94.963C1181.48 94.4997 1182.74 94.0161 1183.96 93.5124C1186.01 92.6864 1188.08 91.8402 1190.13 90.9739C1192.18 90.1277 1194.23 89.2614 1196.27 88.4353C1196.96 88.1533 1197.63 87.8712 1198.29 87.6093L1201.57 86.3198C1202.31 86.0378 1203.05 85.7558 1203.8 85.4938C1205.18 84.9902 1206.59 84.5066 1207.97 84.0432C1208.81 83.7813 1209.66 83.4992 1210.53 83.2575C1220.1 80.457 1230.1 79.1474 1239.73 76.6089C1240.78 76.3268 1241.8 76.0246 1242.82 75.7224H1242.85C1243.13 75.6418 1243.39 75.5612 1243.67 75.4806C1244.74 75.1583 1245.82 74.8359 1246.89 74.5337C1247.87 74.2718 1248.84 74.03 1249.84 73.8285C1250.14 73.7479 1250.48 73.6875 1250.81 73.6472C1251.93 73.4256 1253.09 73.2845 1254.26 73.2241C1255.54 73.1838 1256.72 73.2241 1257.79 73.345C1262.63 73.8285 1265.7 75.8835 1270.87 77.8177C1283.49 82.5724 1297.46 85.7557 1310.69 89.3823C1317.81 91.3365 1325.02 93.0491 1332.27 93.7139C1338.79 94.2982 1345.34 94.0161 1351.82 92.2633C1352.87 91.9812 1353.89 91.679 1354.91 91.3164C1355.76 91.0142 1356.6 90.7523 1357.45 90.4299C1370.68 85.7154 1383.42 80.0339 1396.47 75.0777C1398.04 74.4934 1399.6 73.9091 1401.13 73.3651L1404.23 72.2771C1406.12 71.6123 1408.04 70.9676 1409.94 70.343C1411.65 69.7588 1413.37 69.1946 1415.11 68.6507C1416.67 68.147 1418.23 67.6433 1419.81 67.1598C1424.5 65.6689 1429.21 64.2182 1433.92 62.7273C1435.83 62.1431 1437.78 61.5185 1439.7 60.8939C1449.09 57.8315 1457.25 53.8021 1465.67 49.9741C1468.05 48.8862 1470.49 47.8385 1472.94 46.7908C1477.6 44.8567 1479.08 43.4061 1484.41 44.0508C1488.43 44.5343 1492.85 46.1864 1497.2 47.5161C1499.12 48.1206 1501.02 48.6645 1502.86 49.007C1512.17 50.78 1521.75 52.0493 1531.44 52.9358C1557.88 55.4139 1585.26 55.2124 1611.24 55.2124C1631.97 55.2527 1652.95 55.9377 1673.66 55.3333C1675.19 55.293 1676.73 55.2124 1678.26 55.1318C1694.21 54.2856 1709.94 51.6463 1725.91 50.8807C1732.75 50.5583 1739.58 50.6994 1746.46 50.8002H1746.49C1754.5 50.9412 1762.51 51.0016 1770.44 50.1755C1782.91 48.9264 1795.39 47.8385 1807.83 46.3677C1808.42 46.3073 1808.98 46.2267 1809.57 46.1662C1811.11 45.9648 1812.62 45.7834 1814.15 45.582C1824.24 44.2925 1834.24 42.983 1844.25 41.4719C1848.63 40.8071 1853.03 40.1019 1857.4 39.3363C1861.96 38.5707 1866.54 38.0066 1871.09 37.382C1876.06 36.697 1881.02 35.9516 1885.89 34.7427C1892.03 33.2115 1898.09 31.5595 1904.18 29.9477C1909.02 28.6582 1913.83 27.389 1918.72 26.2204C1918.92 26.16 1919.16 26.1197 1919.36 26.0593V50.6994C1920.05 51.8478 1919.85 53.4596 1919.36 55.0714V226.988C1919.56 227.351 1919.77 227.734 1920 228.097Z" fill="#00496B"/>
<path d="M1465.67 49.9942C1451.83 64.3391 1437.17 78.9862 1432.43 96.8971C1431.15 101.652 1429.69 106.467 1427.26 110.96C1425.42 114.345 1422.68 117.004 1420.3 120.107C1417.15 124.257 1415.8 129.274 1413.29 133.686C1409.19 141 1404.33 147.104 1397.22 152.846C1389.95 158.749 1381.63 163.766 1374.34 169.689C1368.02 174.847 1362.87 180.77 1356.53 185.908C1347.47 193.242 1337.54 199.85 1328.25 207.002C1314.15 217.862 1301.84 229.97 1287.84 240.91C1283.74 244.093 1279.8 247.398 1275.56 250.44C1272.97 252.293 1270.08 253.986 1267.93 256.182C1266.96 253.381 1273 247.76 1274.4 246.028C1282.23 236.397 1290.37 226.948 1298.28 217.378C1309.18 204.141 1316.3 189.736 1325.41 175.814C1330.6 167.876 1331.55 160.16 1332.96 151.456C1334.67 140.98 1337.03 130.422 1342.27 120.671C1343.78 117.891 1345.55 115.151 1347.29 112.451C1349.51 109.026 1353.48 106.326 1355.22 102.74C1356.83 99.4559 1356.94 94.8018 1357.37 91.3768C1357.42 91.0544 1357.45 90.7522 1357.45 90.4299C1370.68 85.7154 1383.42 80.054 1396.48 75.0978C1410.76 69.6782 1425.14 65.6285 1439.7 60.8939C1449.09 57.8517 1457.25 53.802 1465.67 49.9942Z" fill="#003F5F"/>
<path d="M1919.36 55.0713C1918.8 56.9047 1917.85 58.6978 1917.34 59.7253C1913.14 68.3685 1908.41 76.5282 1902.49 84.5065C1891.72 98.9924 1880.82 113.438 1870.92 128.327C1869.56 130.362 1868.23 132.417 1866.9 134.472C1865.49 136.648 1864.13 138.844 1862.78 141.04C1862.78 141.06 1862.78 141.06 1862.78 141.08C1861.52 143.055 1860.29 145.009 1859.07 146.983C1858.27 148.253 1857.45 149.542 1856.64 150.811C1856.35 151.275 1856.05 151.718 1855.77 152.181C1855.74 152.181 1855.74 152.181 1855.74 152.202C1854.56 154.015 1853.39 155.808 1852.16 157.601L1852.13 157.621C1852.08 157.742 1852 157.843 1851.9 157.964C1851.7 158.266 1851.49 158.568 1851.29 158.87C1850.03 160.704 1848.73 162.517 1847.42 164.33C1845.76 166.687 1844.04 169.025 1842.3 171.341C1842.07 171.664 1841.84 171.986 1841.59 172.309C1840.95 173.175 1840.31 174.041 1839.64 174.908C1838.85 175.995 1838.06 177.084 1837.24 178.171C1836.16 179.622 1835.11 181.053 1834.04 182.503C1833.45 183.309 1832.84 184.135 1832.25 184.941C1831.17 186.432 1830.07 187.943 1829 189.454C1828.82 189.736 1828.61 190.018 1828.41 190.3C1827.41 191.731 1826.41 193.161 1825.44 194.612C1825.26 194.853 1825.11 195.095 1824.95 195.337C1824.75 195.619 1824.54 195.901 1824.36 196.183C1822.88 198.399 1821.4 200.616 1819.89 202.832C1819.89 202.852 1819.89 202.852 1819.89 202.872C1818.07 205.531 1816.25 208.151 1814.46 210.81C1814.41 210.83 1814.41 210.85 1814.41 210.871C1814.05 211.354 1813.72 211.858 1813.41 212.341C1812.8 213.228 1812.18 214.114 1811.62 215.001C1811.47 215.202 1811.34 215.404 1811.21 215.605C1809.93 217.499 1808.68 219.393 1807.45 221.307C1803.43 227.492 1799.64 233.738 1796.37 240.104C1794.68 243.368 1793.12 246.672 1791.63 249.997C1790.48 252.535 1789.38 255.074 1788.31 257.632C1784.62 266.316 1781.14 275.06 1776.99 283.602C1776.87 283.905 1776.74 284.187 1776.59 284.489C1775.97 285.758 1775.33 287.027 1774.64 288.297C1772.67 292.084 1770.49 295.832 1768.22 299.519C1767.22 301.171 1766.19 302.803 1765.15 304.435C1761.84 309.633 1758.39 314.77 1754.96 319.948C1754.93 319.968 1754.91 320.009 1754.91 320.049C1754.4 320.814 1753.89 321.58 1753.37 322.346C1748.49 329.8 1743.65 337.073 1741.17 345.253C1738.07 344.729 1734.49 345.334 1731.42 345.535C1721.77 346.16 1712.25 347.046 1702.78 348.114H1573.64L1266.78 320.915C1273.38 316.563 1280.16 312.353 1287.02 308.222C1301.94 299.257 1317.29 290.654 1332.27 281.749C1350.97 270.607 1370.29 260.09 1388.93 248.868C1395.86 244.678 1402.59 240.004 1407.68 234.362C1419.02 221.811 1427.67 208.272 1435.66 194.45C1436.91 192.254 1438.16 190.038 1439.39 187.842C1439.98 186.855 1440.52 185.888 1441.06 184.901C1441.18 184.679 1441.31 184.437 1441.44 184.216C1441.75 183.692 1442.03 183.168 1442.33 182.644C1445.71 176.62 1449.07 170.556 1452.6 164.552C1453.06 163.766 1453.52 163.001 1454 162.215C1455.72 159.354 1457.56 156.473 1459.4 153.572C1459.43 153.551 1459.43 153.551 1459.43 153.531C1459.84 152.907 1460.22 152.302 1460.61 151.678C1460.71 151.517 1460.81 151.335 1460.91 151.174C1465.19 144.425 1469.28 137.554 1471.92 130.503C1475.02 122.263 1479.24 115.13 1484.13 107.535C1485.3 105.681 1485.89 103.767 1486.79 101.853C1488.35 98.5895 1491.01 95.7286 1493.03 92.6662C1495.1 89.5031 1497.46 86.3601 1499.4 83.1768C1500.43 81.4643 1500.35 79.3286 1501.81 77.878C1503.37 76.3267 1507.26 75.4403 1509.49 74.5941C1517.22 71.6526 1524.74 68.3081 1532.67 65.6688C1534.98 64.9032 1535.67 64.2988 1537.41 63.0295C1539.89 61.2162 1545.98 58.174 1549.38 58.0934C1550.61 59.6649 1548.13 62.4251 1547.31 63.8354C1545.9 66.2732 1545.06 68.7513 1543.88 71.2697C1541.63 75.9842 1539.63 80.2958 1538.05 85.2319C1536.54 89.9463 1534.77 94.6003 1532.95 99.2544C1529.14 109.086 1524.94 118.858 1522.97 129.032C1522.08 133.626 1521 137.212 1518.93 141.523C1517.29 144.908 1514.66 148.192 1513.79 151.738C1513.58 152.524 1513.4 153.35 1513.22 154.216C1513.22 154.216 1513.22 154.216 1513.2 154.216C1513.17 154.438 1513.12 154.68 1513.04 154.921C1512.97 155.365 1512.89 155.808 1512.79 156.251C1512.71 156.795 1512.61 157.339 1512.53 157.883C1512.43 158.427 1512.35 158.991 1512.3 159.555C1512.12 160.966 1511.99 162.376 1511.99 163.766C1511.99 164.068 1511.99 164.371 1512.02 164.673C1512.05 166.385 1512.25 168.057 1512.69 169.589C1513.97 174.243 1515.83 177.446 1514.81 182.463C1514.78 182.584 1514.76 182.664 1514.73 182.785V182.805C1514.5 183.994 1514.22 185.203 1513.89 186.432C1513.27 188.769 1512.53 191.126 1511.82 193.403C1511.61 194.007 1511.41 194.591 1511.23 195.176C1509.49 200.616 1507.41 205.854 1504.88 211.072C1500.71 219.635 1497.92 228.681 1494.54 237.445C1491.11 246.39 1487.99 255.577 1485.46 264.704C1484.69 267.525 1481.44 274.516 1483.15 277.417C1487.25 276.047 1490.34 272.884 1493.57 270.567C1503.47 263.415 1513.27 256.343 1522.23 248.405C1542.78 230.192 1559.72 209.581 1574.98 188.406C1575.59 187.56 1576.18 186.714 1576.79 185.868C1576.87 185.747 1576.97 185.626 1577.05 185.505C1578.02 184.135 1578.97 182.765 1579.89 181.395C1579.91 181.375 1579.91 181.375 1579.89 181.355C1579.91 181.335 1579.91 181.335 1579.89 181.314C1579.91 181.294 1579.89 181.274 1579.89 181.274C1580.68 180.085 1581.48 179.038 1582.27 177.849C1582.29 177.829 1582.29 177.829 1582.29 177.809C1583.04 176.681 1583.8 175.593 1584.57 174.484C1588.28 169.085 1593.55 164.371 1598.44 159.575C1599.11 158.89 1599.77 158.226 1600.44 157.541C1600.67 157.299 1600.87 157.077 1601.1 156.835C1603.97 153.793 1606.61 150.63 1609.29 147.487C1611.62 144.747 1613.98 142.027 1616.56 139.428C1621.68 134.27 1626.62 129.113 1631.28 123.673C1635.7 118.515 1641.39 114.586 1647.3 110.497C1650.8 108.099 1654.1 105.5 1658.22 103.767C1661.99 102.176 1665.29 101.189 1668.56 98.8313C1670.1 97.7433 1671.51 96.5546 1672.79 95.2854C1675.32 92.7871 1677.34 90.0067 1678.83 87.0249C1680.46 83.7409 1681.13 79.5705 1684.84 77.2334C1686.91 75.9238 1690.14 75.3798 1692.64 74.8761C1697.02 74.0098 1701.81 73.4457 1706.26 73.2039C1709.15 73.0427 1712.04 73.1636 1714.94 73.0629C1719.8 72.8614 1724.4 71.854 1729.16 71.2899C1735.64 70.5444 1742.32 70.5646 1748.82 69.8796C1756.96 69.0133 1764.25 66.7567 1772.08 64.9233C1777.28 63.7145 1782.55 62.5661 1787.82 61.458C1800.08 58.8791 1812.46 56.6025 1824.77 54.5676C1831.4 53.4797 1839.8 51.3239 1846.6 51.6664C1848.98 51.7873 1850.31 51.9485 1850.19 54.0035C1850.06 56.2197 1846.32 57.8114 1843.43 59.0403H1843.4C1842.59 59.4231 1841.87 59.7455 1841.28 60.0477C1832.66 64.5809 1824.8 70.0206 1817.74 76.0044C1817.35 76.3267 1816.94 76.6692 1816.56 77.0117C1811.31 81.565 1806.63 86.5817 1802.2 91.7998C1801.23 92.9482 1800.28 94.1168 1799.36 95.2854C1795.52 100.02 1791.86 104.815 1788.25 109.509C1781.27 118.596 1776 128.206 1770.44 137.756C1768.32 141.423 1766.14 145.09 1763.81 148.696C1763.69 148.877 1763.58 149.059 1763.46 149.24C1761.64 152.04 1759.75 154.801 1757.78 157.541C1757.72 157.581 1757.67 157.621 1757.65 157.682C1757.21 158.367 1756.7 159.011 1756.19 159.696C1753.91 162.819 1751.53 165.902 1749.15 168.984V169.004C1749.07 169.065 1749.05 169.125 1749 169.186C1748.97 169.246 1748.95 169.286 1748.9 169.307C1747.15 171.523 1745.41 173.739 1743.65 175.955C1743.65 175.975 1743.62 175.996 1743.62 175.996C1738.76 182.08 1733.9 188.144 1729.29 194.33C1729.27 194.33 1729.27 194.35 1729.27 194.35C1728.75 195.055 1728.22 195.74 1727.71 196.465C1726.12 198.601 1724.61 200.757 1723.12 202.932C1721.97 204.585 1720.87 206.257 1719.82 207.949C1719.75 208.03 1719.7 208.11 1719.64 208.191C1719.39 208.594 1719.13 208.997 1718.9 209.4C1718.9 209.42 1718.9 209.42 1718.9 209.42C1718.52 209.984 1718.19 210.528 1717.85 211.092V211.153C1717.49 211.717 1717.14 212.241 1716.8 212.825C1714.99 215.928 1713.3 219.05 1711.58 222.173C1708.31 228.217 1704.95 234.201 1700.5 239.842C1695.46 246.209 1687.35 253.079 1685.22 260.614C1684.89 261.803 1684.25 264.342 1685.71 265.288C1686.91 266.054 1693.11 265.631 1693.28 265.631C1698.97 265.429 1703.93 264.785 1709.05 262.972C1711.2 262.206 1714.12 261.863 1715.88 260.997C1717.55 260.151 1719.06 258.68 1720.44 257.048C1721.49 255.819 1722.46 254.51 1723.35 253.341C1723.89 252.656 1724.38 252.011 1724.86 251.447C1733.51 241.575 1743.52 232.428 1752.5 222.717C1754.73 220.32 1756.93 217.882 1759.08 215.444C1759.29 215.243 1759.44 215.061 1759.62 214.86C1760.54 213.832 1761.46 212.785 1762.36 211.737C1762.56 211.515 1762.77 211.273 1762.94 211.052C1763.38 210.568 1763.79 210.105 1764.2 209.621C1765.53 208.11 1766.83 206.579 1768.11 205.048C1769.09 203.92 1770.03 202.791 1770.98 201.643C1771.47 201.079 1771.95 200.535 1772.39 199.971C1772.39 199.951 1772.41 199.951 1772.41 199.951C1772.39 199.931 1772.39 199.931 1772.41 199.931C1773.16 199.044 1773.9 198.158 1774.61 197.271C1776.89 194.571 1779.07 191.851 1781.27 189.152C1781.29 189.111 1781.32 189.071 1781.35 189.031C1781.78 188.487 1782.22 187.963 1782.6 187.419C1782.6 187.419 1782.6 187.419 1782.62 187.399C1782.98 186.976 1783.32 186.553 1783.65 186.15C1784.29 185.364 1784.9 184.558 1785.54 183.772C1789.36 178.977 1793.07 173.981 1796.42 168.964C1797.39 167.514 1798.26 166.002 1799.08 164.491C1799.85 163.121 1800.56 161.751 1801.28 160.361V160.341C1801.43 160.039 1801.59 159.777 1801.74 159.475C1803.56 156.07 1805.45 152.705 1808.09 149.663C1812.57 144.465 1817.56 139.489 1822.75 134.673C1825.59 132.034 1828.51 129.455 1831.45 126.917C1840.72 118.878 1849.21 110.174 1858.94 102.478C1865.13 97.562 1871.48 93.0691 1876.78 87.6697C1876.8 87.6495 1876.83 87.6294 1876.85 87.6092C1878.11 86.3198 1879.33 84.9699 1880.46 83.5596C1881.08 82.794 1881.69 82.0284 1882.3 81.2427V81.2225C1882.33 81.2024 1882.35 81.1621 1882.35 81.142C1882.35 81.1218 1882.38 81.1218 1882.38 81.1016C1882.38 81.0815 1882.41 81.0815 1882.41 81.0613C1882.41 81.0613 1882.41 81.0412 1882.43 81.0412C1888.19 73.7479 1893.95 65.7695 1900.78 59.2619C1905.69 54.5676 1910.76 51.1627 1918.29 49.692C1918.77 49.9539 1919.13 50.2964 1919.36 50.6993C1920.05 51.8679 1919.85 53.4595 1919.36 55.0713Z" fill="#003F5F"/>
<path d="M1359.26 152.907C1352.89 162.456 1347.16 172.369 1340.99 182.019C1338.54 185.908 1335.21 189.272 1332.42 193C1327.86 199.064 1325.1 205.954 1320.62 212.099C1318.04 215.665 1315.07 219.05 1312.46 222.596C1310.54 225.195 1308.82 227.19 1305.96 229.245C1296.49 236.014 1286.76 242.058 1278.24 249.694C1274.4 253.119 1269.93 256.363 1266.67 260.131C1263.14 264.241 1260.35 268.754 1257.85 273.287C1252.98 282.091 1246.1 288.961 1238.93 296.557C1237.5 298.068 1235.86 299.74 1234.02 301.251C1231.36 303.447 1228.29 305.341 1224.81 306.127C1220.05 307.195 1214.78 307.255 1209.89 308.001C1200.55 309.391 1191.41 311.446 1182.02 312.675C1165.97 314.79 1149.39 316.08 1133.24 315.918C1130.37 315.898 1127.94 315.475 1125.1 315.133C1120.65 314.589 1116.27 314.468 1111.85 313.622C1108.11 312.896 1104.48 311.909 1100.59 311.829C1096.65 311.748 1092.93 311.869 1089.02 311.365C1078.35 309.975 1066.63 310.882 1055.83 310.821C1045.9 310.781 1035.79 311.567 1025.94 312.493C1020.25 313.017 1013.75 313.037 1008.28 314.508C1009.69 312.775 1012.78 311.204 1014.78 309.733C1017.62 307.658 1020.46 306.087 1022.87 303.689C1026.68 299.901 1030.21 295.811 1033.79 291.883C1045.05 279.573 1052.37 264.241 1065.91 253.24C1073.61 246.974 1083.44 241.615 1092.12 236.216C1096.62 233.415 1102.04 231.34 1106.27 228.338C1112.13 224.188 1115.63 217.6 1119.52 212.261C1123.9 206.297 1127.51 200.011 1131.71 193.967C1133.6 191.247 1136.29 188.608 1137.49 185.646C1139.31 181.193 1141.46 177.305 1144.01 172.933C1148.72 164.914 1152.26 156.634 1156.61 148.474C1160.04 142.007 1163.64 135.016 1166.1 128.266C1168.17 122.665 1167.87 117.367 1168.15 111.625C1168.35 107.716 1169.53 104.029 1169.5 100.101V98.5089C1183.53 94.7011 1196.78 87.2667 1210.5 83.2574C1220.07 80.4569 1230.08 79.1473 1239.7 76.6088C1244.59 75.3194 1249.07 73.4859 1254.24 73.224C1255.52 73.1635 1256.69 73.2039 1257.77 73.3248C1257.72 88.1129 1257.41 102.841 1256.18 117.649C1255.44 126.896 1253.62 135.983 1252.65 145.21C1251.93 151.859 1255.88 153.37 1262.15 157.198C1267.6 160.522 1267.19 164.834 1266.55 169.83C1265.57 177.426 1263.66 184.518 1264.29 192.174C1264.86 198.983 1265.78 205.612 1265.52 212.442C1265.42 215.565 1262.89 220.158 1264.4 223.12C1265.96 223.201 1266.6 222.294 1267.65 221.528C1274.25 216.713 1279.93 211.132 1286.15 206.015C1299.25 195.176 1313.51 185.183 1325.77 173.699C1330.65 169.125 1334.11 163.867 1338.74 159.172C1341.81 156.05 1344.58 152.826 1347.42 149.562C1349.46 147.245 1352.05 145.15 1353.92 142.752C1354.74 141.705 1355.07 140.617 1356.25 139.791C1357.76 138.763 1362.11 137.877 1364.1 138.521C1369.66 140.315 1360.57 150.952 1359.26 152.907Z" fill="#003F5F"/>
<path d="M814.064 57.8718C812.35 59.4231 810.789 61.0752 809.381 62.828C796.918 75.6417 783.201 87.8308 771.941 101.33C766.08 108.341 762.881 117.327 754.436 122.766C749.574 125.869 743.918 128.105 738.774 130.886C732.146 134.452 726.132 138.763 719.888 142.752C714.079 146.48 708.935 150.771 703.407 154.74C695.934 160.099 688.973 166.244 680.733 170.838C671.622 175.895 664.15 182.563 655.397 188.003C649.972 191.408 644.751 195.196 639.787 198.822C637.483 200.495 635.564 202.328 634.131 204.585C631.393 208.936 628.168 213.59 627.144 218.607C626.505 221.79 625.865 224.369 624.432 227.452C622.819 230.897 622.794 234.906 620.951 238.231C619.569 240.709 616.908 242.623 614.988 244.879C608.923 252.011 598.635 256.383 591.777 263.133C590.881 263.999 590.165 264.825 589.397 265.611C588.732 266.296 587.989 266.94 587.043 267.565C584.944 268.955 582.871 270.003 580.926 271.574C578.034 273.911 573.505 277.316 569.564 278.344C568.438 276.934 570.664 272.904 570.971 272.259C572.02 269.963 573.249 267.726 574.579 265.53C576.499 262.407 578.674 259.385 580.952 256.403C588.245 246.894 593.159 236.437 598.763 226.263C602.756 219.03 609.026 212.643 611.61 205.008C613.299 200.011 616.473 196.203 619.39 191.71C620.644 189.796 621.028 188.023 620.311 185.948C619.339 183.168 619.339 180.932 619.313 177.889C619.288 173.84 619.134 169.609 620.849 165.7C622.256 162.497 625.199 159.414 626.991 156.271C634.515 143.115 647.515 132.316 655.474 119.422C657.317 116.46 659.773 113.801 661.59 110.879C663.152 108.401 663.51 105.5 664.431 102.82C666.018 98.1865 667.4 93.4318 669.498 88.9389C671.366 84.9699 673.567 81.1016 675.691 77.2132C678.404 77.3139 681.142 77.3542 684.034 77.1326C699.364 75.964 714.488 73.627 729.485 70.9675C757.507 66.0516 785.402 59.9268 814.064 57.8718Z" fill="#003F5F"/>
<path d="M890.455 202.812C888.868 203.396 887.282 203.96 885.644 204.544C878.58 207.103 872.362 210.427 865.094 212.623C857.135 215.021 850.635 218.385 844.313 222.959C839.656 226.323 836.201 230.373 831.799 233.899C827.781 237.102 821.716 242.341 815.549 242.542C820.206 236.719 823.073 228.701 825.325 222.072C826.886 217.499 826.604 212.986 826.681 208.312C826.758 204.887 827.474 201.24 829.342 198.097C829.931 197.11 830.878 196.243 831.364 195.236C832.925 192.013 832.465 188.124 833.309 184.739C834.819 178.756 836.662 172.45 839.681 166.808C845.056 156.775 853.194 148.434 860.513 139.227C868.421 129.254 876.866 119.261 886.386 110.174C891.427 105.359 897.902 101.753 902.406 96.6151C893.603 100.242 886.207 104.573 878.324 109.328C868.651 115.191 858.773 120.953 850.353 127.904C842.368 134.492 834.819 141.221 827.27 148.091C822.637 152.302 819.439 157.138 815.293 161.61C810.123 167.151 805.107 172.651 800.245 178.353C796.713 182.503 794.205 186.714 791.749 191.307C789.215 196.062 786.861 198.419 781.512 201.462C773.809 205.834 763.879 208.916 757.251 214.054C756.023 215.001 755.025 216.23 753.745 217.197C745.812 223.261 735.524 227.814 726.823 233.073C713.004 241.434 699.363 249.997 685.953 258.761C682.012 261.34 674.719 264.684 671.853 268.492C671.98 268.512 672.134 268.552 672.262 268.572C689.895 271.836 707.527 275.1 725.16 278.364C738.134 280.761 751.109 283.179 764.084 285.577C769.714 286.624 775.319 287.652 780.949 288.7C783.406 289.163 785.581 289.505 787.756 289.364C788.243 289.324 788.55 288.941 789.369 288.941C790.06 288.941 790.904 289.526 791.518 289.727C793.079 290.231 794.359 290.674 796.074 290.654C804.877 290.573 813.706 290.291 822.382 291.419C825.171 291.782 830.238 292.366 833.053 291.52C837.634 290.13 842.573 282.716 845.491 280.056C848.485 277.336 851.991 275.04 855.113 272.4C859.285 268.875 862.202 264.563 866.066 260.836C874.204 252.978 882.214 245.04 890.378 237.183C904.991 223.14 919.68 209.339 936.468 196.949C941.177 193.483 945.937 189.393 945.732 184.034C945.604 180.307 942.789 182.161 939.335 183.107C934.37 184.477 928.868 185.082 924.056 186.754C916.251 189.494 910.544 194.269 903.353 197.593C899.002 199.628 894.78 201.22 890.455 202.812Z" fill="#003F5F"/>
<path d="M1094.29 98.4283C1093.47 101.873 1089.56 104.835 1087.69 108.018C1083.18 115.715 1076.63 122.343 1072.64 130.241C1068.88 137.675 1064.45 143.76 1057.52 149.663C1049.74 156.291 1040.7 162.074 1032.77 168.601C1025.04 174.968 1020.36 183.248 1014.75 190.743C1009.94 197.17 1003.77 202.953 998.067 208.896C989.775 217.559 979.334 225.074 970.019 233.032C961.676 240.144 952.54 246.571 943.787 253.341C932.425 262.125 921.42 271.091 909.776 279.653L934.088 296.779C937.927 295.65 938.976 295.408 940.461 292.769C941.331 291.198 942.457 290.211 943.941 288.84C956.404 277.296 969.737 266.437 982.354 254.973C990.287 247.74 998.681 240.306 1008.56 234.685C1016.31 230.272 1025.17 226.646 1033.26 222.636C1039.47 219.554 1045.51 215.182 1052.01 212.522C1053.45 211.938 1055.52 211.898 1056.7 211.011C1058.16 209.903 1058.41 207.526 1058.95 206.055C1060.38 202.167 1061.97 198.359 1063.27 194.43C1064.78 189.877 1066.73 185.485 1068.47 181.012C1070.98 174.565 1072.59 167.936 1076.33 161.832C1079.55 156.573 1083.21 151.577 1086.1 146.198C1089.61 139.69 1092.6 133.102 1095.54 126.433C1099.61 117.165 1104.48 106.326 1113.28 99.1939C1112.49 97.3605 1097.13 97.7836 1094.29 98.4283Z" fill="#003F5F"/>
<path d="M616.549 89.1405C625.66 86.7228 634.822 83.741 644.06 81.2025C632.109 89.1606 619.134 96.5749 610.663 107.152C606.594 112.209 602.244 116.38 596.332 120.349C592.826 122.686 589.422 124.882 586.172 127.44C572.737 138.018 554.157 143.196 538.879 151.718C535.143 153.793 532.84 157.238 529.717 159.817C522.603 165.7 514.439 170.415 508.016 176.842C500.927 183.954 492.738 190.663 484.804 197.211C478.406 202.489 472.162 207.828 465.841 213.147C452.431 224.389 438.151 234.947 424.28 245.806C416.424 251.971 408.644 258.116 401.606 264.885C400.608 265.832 399.636 266.9 398.638 268.028C395.285 271.816 391.677 276.128 386.661 277.941C384.742 278.646 383.334 278.525 381.312 278.787C376.143 279.452 371.255 280.842 366.034 281.406C357.768 282.293 349.477 282.796 341.287 283.985C339.547 284.227 336.937 285.154 335.248 284.589C335.222 283.622 335.888 283.34 336.604 282.575C340.673 278.263 345.945 274.476 350.628 270.567C350.782 270.446 350.91 270.325 351.063 270.204C359.253 263.294 367.007 256.081 375.478 249.412C386.149 241.031 396.718 232.529 407.979 224.651C415.835 219.131 423.564 213.55 430.653 207.385C437.767 201.22 444.575 194.511 450.307 187.5C454.683 182.14 458.138 176.318 462.463 170.918C468.605 163.303 474.005 155.244 480.505 147.83C483.32 144.626 486.57 141.604 489.078 138.219C491.33 135.217 492.456 131.792 494.017 128.528C500.159 115.674 511.675 104.996 524.113 95.4667C538.802 96.9778 553.441 98.8313 568.335 98.4686C583.971 98.0657 602.064 92.9886 616.549 89.1405Z" fill="#003F5F"/>
<path d="M660.285 69.6378C659.39 70.1012 658.52 70.5848 657.701 71.1086C658.315 70.1818 659.185 69.6983 660.285 69.6378Z" fill="#003F5F"/>
<path d="M101.24 0.53258C94.637 4.48145 88.06 8.43031 81.7389 12.6612C75.4946 16.8519 69.327 21.2037 63.7737 25.9585C60.3956 28.8597 57.427 32.2042 53.7674 34.9039C52.0016 36.1933 50.287 37.1604 48.6747 38.5304C45.4758 41.2704 43.0958 44.4537 39.5386 47.1132C34.625 50.7397 29.4555 54.1647 24.3884 57.6704C22.6994 58.8187 21.0104 59.9873 19.3469 61.176C13.1026 65.6084 6.60236 69.6379 -0.000244141 73.6271V9.37722C23.4415 4.05833 49.1354 0.814615 73.4729 0.693731C82.4555 0.613142 92.1546 -0.112134 101.24 0.53258Z" fill="#003F5F"/>
<path d="M393.008 97.6627C392.573 98.3276 392.061 98.9925 391.472 99.617C387.557 103.929 380.622 107.414 376.501 111.202C375.657 111.987 374.838 112.773 374.045 113.579C373.328 114.304 372.637 115.03 371.972 115.775C368.926 119.12 366.188 122.666 363.527 126.252C363.143 126.755 362.784 127.279 362.401 127.783C361.019 129.677 359.637 131.551 358.229 133.444C357.922 133.847 357.589 134.27 357.257 134.694C357.231 134.774 357.154 134.855 357.103 134.935C356.642 135.52 356.182 136.124 355.747 136.708C355.312 137.272 354.851 137.816 354.416 138.36C353.93 138.985 353.418 139.609 352.881 140.214C352.676 140.476 352.471 140.738 352.241 141C351.55 141.826 350.859 142.632 350.193 143.437C349.707 144.022 349.221 144.586 348.76 145.15C348.248 145.795 347.737 146.419 347.25 147.044C346.662 147.789 346.099 148.535 345.536 149.28C345.51 149.28 345.51 149.3 345.51 149.32C345.075 149.885 344.64 150.469 344.231 151.053C343.77 151.678 343.335 152.302 342.951 152.927C341.979 154.297 341.083 155.687 340.264 157.138C340.008 157.561 339.752 157.984 339.522 158.427C338.856 159.616 338.217 160.845 337.628 162.114C337.423 162.557 337.219 163.021 337.014 163.464C336.809 163.867 336.63 164.25 336.451 164.653C336.348 164.894 336.246 165.116 336.144 165.358C333.994 170.052 331.896 174.666 329.183 179.219C326.803 183.228 324.116 187.137 321.966 191.227C320.84 193.362 320.072 195.74 318.486 197.714C317.385 199.084 316.08 200.313 314.749 201.502C312.907 203.194 311.013 204.846 309.529 206.861C309.119 207.425 308.71 208.01 308.326 208.594C306.534 211.193 304.999 213.953 303.335 216.572C300.904 220.4 298.371 224.067 295.632 227.653C295.095 228.358 294.558 229.064 293.995 229.769C293.022 231.018 291.998 232.247 290.975 233.476C289.516 235.188 287.725 236.599 285.78 237.848C282.99 239.681 279.868 241.232 276.951 243.066C274.315 244.738 272.139 246.713 270.194 248.828C269.606 249.432 269.068 250.057 268.557 250.682C266.407 253.16 264.462 255.759 262.287 258.196C257.629 263.435 252.818 268.593 248.339 273.932C246.42 276.188 244.552 278.485 242.812 280.842C240.227 284.328 237.335 287.692 234.929 291.238C233.112 293.918 232.191 296.738 230.246 299.357C226.996 303.75 222.825 308.242 218.295 312.393C215.198 315.274 211.897 318.014 208.647 320.452C203.759 324.119 199.101 322.809 192.499 323.01C186.69 323.172 180.855 323.353 175.045 323.534C175.045 323.534 175.045 323.534 175.02 323.534C168.085 323.736 161.124 323.937 154.163 324.118H154.137C128.802 324.803 103.44 325.247 78.0537 324.783C52.1296 324.32 26.0519 323.232 -0.000244141 322.789V177.889C3.30106 174.787 6.55117 171.624 9.72451 168.44V168.42C10.3131 167.876 10.8505 167.332 11.4136 166.768C11.4136 166.768 11.4136 166.768 11.4391 166.748C11.823 166.345 12.2325 165.942 12.6163 165.539C14.4078 163.706 16.1992 161.872 17.9394 160.019C19.8587 158.004 21.7525 155.969 23.6207 153.934C25.1818 152.242 26.6917 150.549 28.2016 148.837C31.3237 145.291 34.062 141.624 36.7235 137.917H36.7491C39.385 134.23 41.9954 130.503 44.8104 126.856C47.3696 123.552 50.159 120.389 53.1021 117.367C53.1276 117.347 53.1532 117.306 53.1788 117.286C53.8954 116.521 54.6375 115.775 55.4053 115.03C55.4565 114.949 55.4821 114.929 55.5332 114.909C61.8032 108.683 68.6361 102.82 75.2643 96.7561C78.9238 93.4117 82.1996 89.8859 85.68 86.4407C90.0561 82.1694 95.2256 78.966 100.011 75.0575C103.824 71.9346 106.358 69.0737 110.888 66.374C116.62 62.9489 121.662 59.3829 128.008 56.7033C132.973 54.608 137.119 51.8881 141.674 49.3495H141.7C141.853 49.2488 142.007 49.1682 142.16 49.0876C144.259 47.9392 147.151 46.2267 149.735 45.8439C152.806 45.3805 154.47 46.4483 154.828 48.604C154.854 48.7048 154.879 48.7854 154.879 48.8861C154.931 49.3294 154.931 49.7525 154.879 50.1554C154.419 54.9303 147.79 57.3077 144.796 61.0148C139.396 67.7037 135.814 75.7022 133.101 83.338C128.955 95.0436 122.634 106.145 117.337 117.548C115.955 120.49 114.522 123.431 113.037 126.353C112.679 127.098 112.295 127.803 111.937 128.549V128.569C110.58 131.228 109.199 133.867 107.842 136.527C107.535 137.091 107.228 137.675 106.947 138.239C106.486 139.106 106.051 139.992 105.59 140.859C105.59 140.879 105.59 140.879 105.565 140.879C105.36 141.362 105.104 141.826 104.848 142.309C102.98 145.976 101.163 149.643 99.4482 153.37V153.39C99.397 153.471 99.3458 153.551 99.3203 153.632C98.834 154.659 98.3734 155.687 97.9127 156.715C97.8615 156.835 97.8103 156.936 97.7592 157.057C97.6824 157.238 97.6056 157.4 97.5288 157.581C96.7867 159.314 95.9678 161.026 95.1488 162.718C95.1488 162.739 95.1232 162.779 95.0977 162.799C94.1764 164.713 93.2295 166.607 92.2314 168.481C92.1546 168.642 92.0523 168.803 92.0011 168.944C91.9755 168.964 91.9755 168.984 91.9755 168.984C90.4912 171.765 88.9813 174.525 87.4714 177.285L87.0107 178.071C86.806 178.474 86.5757 178.897 86.3454 179.3C86.2686 179.441 86.1918 179.582 86.1151 179.723C84.8099 182.1 83.5047 184.498 82.2252 186.895C82.2252 186.935 82.1996 186.956 82.174 186.976C81.0735 189.091 79.9987 191.227 78.9494 193.383C78.7959 193.705 78.6167 194.047 78.4888 194.37C78.412 194.491 78.3608 194.591 78.3097 194.712C76.4927 198.601 75.4178 202.509 73.9335 206.378C73.1402 208.413 72.2445 210.427 71.0929 212.442C68.892 216.189 66.4864 220.199 63.9272 223.845C62.1614 226.364 59.7814 228.701 58.4251 231.401C58.0924 232.045 56.6081 234.04 56.5569 234.544C56.2754 237.183 59.6535 240.406 60.498 243.287C62.0847 248.808 64.6182 255.9 61.752 261.46C63.569 258.599 67.4845 255.739 69.8645 253.422C77.5163 246.007 86.7804 239.419 95.3536 232.71C108.943 222.093 123.811 212.563 135.993 200.857C138.245 198.681 140.369 196.445 142.416 194.168C142.467 194.068 142.57 193.967 142.672 193.886C145.103 191.166 147.483 188.406 149.812 185.646C151.245 183.954 152.678 182.261 154.163 180.569C154.547 180.126 154.931 179.682 155.34 179.239C155.519 179.018 155.724 178.776 155.929 178.554C156.005 178.474 156.082 178.393 156.159 178.312C156.62 177.789 157.106 177.285 157.592 176.761L157.618 176.741C157.874 176.419 158.181 176.076 158.513 175.754V175.734C158.744 175.512 158.948 175.27 159.179 175.049C159.767 174.404 160.381 173.759 161.021 173.135C161.559 172.57 162.096 172.006 162.685 171.442C162.838 171.281 162.992 171.1 163.171 170.938C163.171 170.898 163.171 170.858 163.197 170.818C164.143 169.951 164.911 169.206 165.807 168.34C166.754 167.393 167.701 166.466 168.673 165.539C173.331 161.026 178.091 156.553 182.595 151.96C183.67 150.872 184.719 149.784 185.743 148.676C185.922 148.474 186.127 148.273 186.306 148.071C187.969 146.258 189.684 144.485 191.373 142.692C194.367 139.529 197.387 136.386 200.253 133.162C205.909 126.796 208.34 120.611 216.222 115.574C218.653 114.022 221.264 112.531 223.976 111.101C232.063 106.85 241.174 103.264 250.387 100.765C253.79 99.8185 257.22 99.0328 260.623 98.4283C260.879 98.3881 261.161 98.3276 261.417 98.2873C264.283 97.7836 267.124 97.1994 269.939 96.5345C269.939 96.5345 269.939 96.5345 269.964 96.5345C271.474 96.192 272.933 95.8294 274.417 95.4264C282.299 93.3915 289.951 90.8328 297.501 88.0122C304.385 85.4132 310.245 82.2098 317.923 82.1896C321.173 82.1695 324.295 81.8874 327.315 83.1164C329.618 84.023 331.409 86.0982 334.096 86.2191C328.876 86.2795 327.545 87.3876 324.167 91.2761C314.775 101.994 307.712 113.66 299.446 124.902C299.42 124.942 299.369 125.003 299.343 125.043C299.318 125.083 299.292 125.124 299.266 125.164C296.375 129.093 293.867 133.102 291.435 137.151V137.172C290.181 139.247 288.927 141.302 287.673 143.377C286.368 145.553 284.91 147.668 283.374 149.744C283.297 149.864 283.195 150.005 283.093 150.126C282.632 150.771 282.146 151.416 281.659 152.06C281.557 152.181 281.48 152.282 281.404 152.383C281.096 152.786 280.789 153.189 280.482 153.572C279.51 154.801 278.537 156.03 277.539 157.238C276.951 158.004 276.336 158.749 275.722 159.515C275.697 159.535 275.697 159.535 275.671 159.555C275.134 160.22 274.596 160.885 274.059 161.57C273.317 162.497 272.574 163.424 271.832 164.371C271.679 164.552 271.551 164.713 271.397 164.914V164.935C271.167 165.217 270.962 165.499 270.732 165.781C270.425 166.164 270.143 166.546 269.811 166.949C264.82 173.255 258.576 179.924 255.531 186.915C260.93 181.012 266.919 175.552 273.214 170.294C274.059 169.569 274.929 168.863 275.825 168.138C277.13 167.07 278.435 166.023 279.74 164.995C279.945 164.794 280.175 164.632 280.405 164.471C280.994 163.968 281.608 163.504 282.197 163.041C282.658 162.678 283.118 162.295 283.604 161.933C283.937 161.691 284.27 161.429 284.602 161.167C285.191 160.704 285.78 160.24 286.368 159.777C286.496 159.696 286.599 159.616 286.727 159.515C287.187 159.152 287.673 158.79 288.134 158.427C288.211 158.367 288.288 158.306 288.364 158.246C288.595 158.064 288.851 157.883 289.081 157.702C290.181 156.856 291.282 156.009 292.382 155.163C292.996 154.7 293.611 154.236 294.199 153.753H294.225C294.43 153.592 294.634 153.431 294.839 153.269C295.249 152.987 295.632 152.685 296.016 152.363C296.554 151.98 297.066 151.577 297.577 151.174C299.087 150.026 300.597 148.857 302.081 147.668C302.337 147.487 302.593 147.286 302.824 147.084C302.952 147.004 303.08 146.903 303.182 146.802C303.873 146.278 304.564 145.734 305.229 145.19C306.765 143.961 308.275 142.752 309.708 141.544C310.859 140.617 311.96 139.69 313.035 138.743C313.418 138.421 313.802 138.078 314.161 137.756C316.515 135.661 318.716 133.485 320.763 131.107C320.968 130.886 321.147 130.664 321.352 130.422C321.761 129.939 322.171 129.455 322.58 128.972C323.45 127.944 324.346 126.917 325.242 125.929C325.242 125.909 325.267 125.909 325.267 125.909C326.598 124.459 327.929 123.089 329.413 121.719C329.925 121.235 330.462 120.752 331 120.268C331.077 120.187 331.179 120.107 331.256 120.026C332.254 119.16 333.252 118.213 334.25 117.246C334.224 117.226 334.276 117.226 334.276 117.226C337.602 114.063 341.083 110.718 345.382 109.147C350.347 107.333 355.465 106.145 360.737 104.996C360.967 104.936 361.172 104.896 361.402 104.835C361.402 104.855 361.428 104.835 361.428 104.835C362.426 104.614 363.45 104.392 364.473 104.17C366.06 103.808 383.769 100.806 390.781 98.5291C391.754 98.2268 392.522 97.9448 393.008 97.6627Z" fill="#003F5F"/>
</svg>
