<svg width="177" height="336" viewBox="0 0 177 336" fill="none" xmlns="http://www.w3.org/2000/svg">
<path d="M105.442 18.1742C105.442 17.2676 105.289 16.6632 105.007 15.817C104.521 14.3664 104.879 12.5733 104.905 11.0622C104.93 9.16837 104.393 7.33496 104.342 5.42096C104.291 3.44653 102.038 3.46666 99.94 2.98312C96.7666 2.23767 93.4653 1.99593 90.3431 1.14974C86.1461 0.0214917 81.9492 0.323685 77.5986 0.283391C74.3997 0.263244 71.2775 1.12958 68.2322 1.57282C67.3109 1.71385 67.6435 1.57281 67.1317 1.97576C66.9525 2.13694 66.5431 3.00329 66.4663 3.16447C65.4939 4.81655 64.419 6.79098 63.9584 8.56394C63.6257 9.81307 63.7536 10.9816 63.3186 12.2509C62.8579 13.6411 62.73 14.4872 62.7555 15.9177C62.7811 16.9452 63.4977 19.3024 61.6808 19.6651C61.5272 19.6852 61.9366 18.416 61.7831 18.4563C61.5783 19.0204 61.476 20.1889 61.6551 20.7732C61.911 21.6194 63.2418 21.7201 64.3678 21.9418C68.3601 22.7074 72.5827 22.5462 76.6517 22.7275C79.1853 22.8484 81.5653 23.1305 84.0988 23.1103C87.6304 23.1103 91.2132 23.3521 94.6425 22.6872C96.1012 22.4051 97.4832 22.4857 98.8907 22.2843C100.247 22.0828 101.271 20.5919 102.704 20.5315C105.57 20.4307 105.442 20.0278 105.442 18.1742Z" fill="#0A2F44"/>
<path d="M121.616 23.0902C121.488 22.5059 121.257 21.9216 120.874 21.3575C119.671 19.4637 117.188 18.5167 114.757 17.8922C113.554 17.5899 112.377 17.3885 111.277 16.9049C108.871 15.8774 105.954 15.8774 103.267 15.8774C101.475 15.8774 99.6326 16.0185 97.8668 15.7767C96.792 15.6357 94.7191 15.6558 93.9257 15.0111L72.045 12.8553C67.5154 13.5605 62.8577 14.2455 58.5584 15.5349C56.0504 16.2804 53.6192 17.2676 51.0856 17.9324C49.4222 18.3757 47.7587 18.8995 46.428 19.8465C41.6168 23.3319 47.0421 28.0262 51.06 29.9604C55.2314 31.9953 60.1194 32.4989 64.7515 33.5265C70.919 34.9166 77.9055 34.8159 84.2778 34.8159C88.7307 34.8159 93.3371 35.1383 97.7644 34.7353C100.887 34.4532 103.958 33.8287 106.977 33.1638C108.231 32.8818 109.383 32.4788 110.688 32.3982C111.942 32.3378 113.094 32.1162 114.143 31.552C115.243 30.9879 116.369 30.4842 117.444 29.8999C118.954 29.094 121.667 27.442 121.744 25.9712C121.795 24.9639 121.82 24.0169 121.616 23.0902Z" fill="#0A2F44"/>
<path d="M101.808 26.7771C101.296 26.6763 100.784 26.7368 100.247 26.7368L67.5154 30.2022C67.5154 30.9476 67.5154 31.6931 67.5154 32.4385C67.4898 34.0301 67.9505 35.3196 68.3855 36.8709C69.0253 39.067 71.047 40.5982 72.301 42.4316C72.864 43.2777 72.8384 43.2576 73.8877 43.7814C74.9625 44.3053 75.3976 44.4866 76.6771 44.6477C78.0591 44.8291 79.4154 45.0708 80.7718 45.2119C82.3585 45.3932 84.0475 45.2723 85.6598 45.2723C88.3213 45.2723 90.778 45.1112 93.2348 44.3254C95.5125 43.6001 96.9712 42.4114 98.5067 40.9407C99.6071 39.8729 100.272 38.7849 101.04 37.576C101.808 36.3672 101.859 35.4203 101.834 34.0906C101.834 32.4788 101.834 30.867 101.834 29.2351C101.834 28.4896 102.013 27.5225 101.808 26.7771Z" fill="#0A2F44"/>
<path d="M103.881 47.146C103.727 46.6827 102.985 46.2596 102.652 45.8365C101.782 44.7485 101.399 43.3785 100.145 42.5122C99.6583 42.1696 99.6327 42.2704 99.044 42.1293L98.1484 41.8876C96.8432 41.6861 95.3589 41.8271 94.0281 41.8271C87.9886 41.8271 81.8722 41.6458 75.9094 42.5323C74.7578 42.6935 73.5294 42.6129 72.7105 43.3382C71.866 44.0836 71.2517 45.1112 70.6887 46.0178C70.5096 46.32 69.7674 47.005 69.9722 47.3072C70.0745 47.146 70.2025 47.005 70.3049 46.8438L101.834 48.4153C102.525 48.4959 103.19 48.4757 103.855 48.375C103.881 48.0123 103.983 47.4684 103.881 47.146Z" fill="#0A2F44"/>
<path d="M75.4748 67.1926C75.0141 68.0791 74.5023 68.9454 74.1696 69.8722C73.7089 71.2624 72.5062 72.0078 71.2778 73.0756C68.5651 75.3926 65.3662 77.2461 62.5511 79.4825C61.246 80.5301 60.0431 81.6785 58.6868 82.6859C57.5352 83.5321 56.2812 84.2775 55.1551 85.164C54.5154 85.6677 53.8244 86.1513 53.159 86.6348C51.8539 87.5817 50.5743 88.4682 49.3971 89.5561C48.5781 90.3016 47.5545 90.9866 46.5564 91.591C45.2001 92.417 43.8182 93.2431 42.5642 94.1497C41.8988 94.6332 41.3358 95.3384 40.7728 95.9227C39.8259 96.9099 38.751 97.6553 37.4714 98.3806C36.6781 98.844 35.5265 99.0656 34.8611 99.6298C34.1958 100.174 34.4005 101.02 33.7863 101.604C33.428 101.947 32.8394 102.047 32.5067 102.43C32.2764 102.732 32.2508 103.095 32.2508 103.438C32.2508 103.941 32.6346 104.848 32.0204 105.211C31.4574 105.553 29.6405 104.949 29.6149 105.493C29.5893 105.815 30.2291 106.299 30.4594 106.54C30.7665 106.863 31.1504 107.185 31.3295 107.548C31.5086 107.93 31.5087 108.213 31.611 108.615C31.8414 109.583 32.4299 110.147 32.3531 111.154C33.3256 109.985 34.9379 110.912 35.8592 111.638C36.934 112.464 37.8553 113.431 38.7766 114.357C39.2885 114.861 39.8515 115.163 39.9794 115.808C40.568 118.629 38.2136 121.852 40.5424 124.33C41.3358 125.177 41.8732 125.539 42.9224 126.184C43.6902 126.667 44.1252 127.332 44.765 127.917C45.6863 128.783 46.4797 129.71 47.4522 130.495C48.2967 131.201 49.0132 132.027 49.7554 132.772C50.0369 133.054 50.3952 133.336 50.6511 133.618C50.9582 133.941 50.7791 134.384 51.4444 134.464C51.2141 134.444 52.5193 132.591 52.6472 132.45C52.8264 132.268 52.9799 132.148 53.1846 131.986C53.3382 131.865 53.5173 131.745 53.6709 131.624C54.0803 131.281 54.413 130.898 54.8224 130.556C55.539 129.931 56.5371 129.367 57.1513 130.395C57.4072 130.818 57.2536 131.16 57.3048 131.604C57.3816 132.228 57.5863 132.772 57.5608 133.397C57.5352 134.283 56.9466 135.129 56.5627 135.935C56.1533 136.802 55.9229 137.668 55.9229 138.575C55.9229 140.348 57.8679 141.778 57.5096 143.611C57.2537 144.921 55.4623 145.888 54.541 146.915C53.7732 147.762 53.9012 148.608 53.9012 149.595C53.9012 150.2 54.2338 151.549 53.5429 151.811C52.3913 152.234 52.0586 151.227 51.6235 150.764C50.7278 149.797 49.218 149.112 48.092 148.346C46.9147 147.56 45.7119 146.774 44.5603 145.989C43.8949 145.525 43.5622 144.86 42.8968 144.397C42.1035 143.853 41.5917 143.49 40.9007 142.826C39.9282 141.879 38.8534 140.811 37.7274 139.965C37.0108 139.421 36.1663 138.998 35.5521 138.373C34.8355 137.648 34.1701 136.922 33.4024 136.217C32.1228 135.029 30.8944 133.759 29.3845 132.752C28.54 132.208 27.977 131.039 26.9278 130.737C25.9041 130.455 24.9316 130.999 23.9591 131.039C23.089 131.08 22.219 131.019 21.3745 131.039C19.6854 131.039 17.6637 130.657 16.6144 129.448C15.6163 128.279 14.6183 126.97 13.2619 126.003C12.5454 125.479 11.8544 125.076 12.008 124.27C12.1871 123.202 12.9548 122.416 12.8013 121.288C12.6989 120.583 12.0847 120.18 11.5985 119.576C10.2421 117.944 9.42322 116.11 8.32279 114.378C6.88967 112.141 5.07263 110.026 3.6395 107.769C2.99972 106.782 2.64143 105.694 1.79692 104.808C1.43864 104.425 1.31073 104.203 1.13159 103.76C0.850085 103.115 0.824506 102.531 0.824506 101.765C0.824506 99.9723 0.773323 98.1792 0.824506 96.3861C0.850097 95.278 1.18277 94.2303 1.20836 93.1222C1.23395 91.9738 2.6159 90.9463 3.61397 90.1807C5.0215 89.0726 6.4546 88.0048 7.91332 86.9571C9.98622 85.446 11.8288 83.7738 13.5179 81.9807C15.1301 80.2883 17.1774 78.8176 18.9688 77.226C20.8626 75.5537 22.9099 73.9218 25.1364 72.5317C27.3629 71.1415 29.1798 69.3282 31.2271 67.797C32.5067 66.83 33.9142 66.0241 35.1682 65.0369C35.8336 64.513 36.4478 63.9086 37.1643 63.4452C37.9833 62.9214 38.6486 62.4378 38.751 61.5916C38.9301 60.1813 39.7491 58.1666 41.5149 57.5017C45.9167 55.8497 50.344 53.8148 55.0784 52.7873C61.0412 51.4777 66.2619 49.2212 71.6617 46.9244C73.4275 46.179 75.0654 45.2522 77.0359 45.2522C77.0103 47.1461 76.3193 48.3952 76.6264 50.2689C77.1638 53.3313 77.5989 56.4743 77.7268 59.5568C77.778 60.7052 77.3174 61.9946 77.0359 63.1229C76.6776 64.4929 76.1145 65.8025 75.4492 67.112C75.5004 67.1523 75.5004 67.1724 75.4748 67.1926Z" fill="#0A2F44"/>
<path d="M175.998 101.342C175.844 100.859 175.665 100.516 175.691 99.9723C175.716 99.1664 175.947 98.2799 176.177 97.4942C176.279 97.1517 176.587 96.9099 176.51 96.4465C176.254 95.0967 175.051 94.1699 174.207 93.1021C173.26 91.9134 172.39 90.7448 171.34 89.5964C169.421 87.4809 166.913 86.2318 164.635 84.4186C162.153 82.4441 159.287 80.8726 156.932 78.7773C155.039 77.0849 153.452 75.2314 151.456 73.6196C150.304 72.6727 149.332 71.4235 148.154 70.5572C147.361 69.9729 146.44 69.4491 145.595 68.885C144.29 67.9985 142.78 67.0113 141.373 66.2256C140.221 65.601 139.658 65.4599 138.762 64.5533C137.534 63.3042 136.306 62.2364 134.77 61.229C134.105 60.8059 133.874 60.7455 133.772 60.1008C133.695 59.5971 133.772 58.9725 133.772 58.4688C133.772 57.26 133.926 56.0713 132.595 55.4266C131.366 54.8423 129.908 54.5401 128.577 54.117C126.683 53.5327 124.431 53.029 122.409 52.6462C120.567 52.3037 118.596 52.0418 116.779 51.5986C115.141 51.1956 113.555 50.571 111.917 50.1278C108.667 49.2413 105.698 48.093 102.653 46.8237C99.4538 45.494 95.8966 44.9701 92.6721 43.721L99.8633 63.3646C101.45 64.8757 103.497 66.5076 104.623 68.3208C105.033 68.9655 105.34 69.6305 105.826 70.255C106.901 71.625 108.488 72.8338 109.921 73.9218C110.663 74.4859 111.507 74.9291 112.25 75.4933C113.145 76.1783 113.657 76.8834 114.348 77.7095C115.346 78.9183 116.779 79.8048 117.803 81.0137C118.878 82.3031 120.055 83.512 121.386 84.6201C122.23 85.3252 122.921 86.2318 123.817 86.8766C124.943 87.6824 126.197 88.7301 127.195 89.7374C128.577 91.1276 130.061 92.4573 131.392 93.8878C132.825 95.419 134.77 96.5875 136.459 97.9777C137.406 98.7634 138.379 99.529 139.402 100.254C140.068 100.738 140.938 101.201 141.398 101.826C141.629 102.148 141.577 103.075 141.833 103.256C142.345 103.599 143.599 103.095 144.034 102.934C143.343 103.458 142.806 104.264 142.422 104.969C142.064 105.614 141.987 105.755 142.729 105.936C143.65 106.158 144.648 105.734 145.518 105.614C145.954 105.553 146.721 105.734 146.9 105.372C146.389 105.714 146.005 106.581 145.749 107.084C145.493 107.568 145.493 108.636 144.981 108.998C144.495 109.341 143.599 109.18 142.959 109.18C142.192 109.18 141.424 109.28 140.759 109.502C140.042 109.744 139.479 110.026 138.89 110.529C138.276 111.053 137.099 112.04 136.945 112.766C136.792 113.552 137.969 114.458 138.558 114.922C139.377 115.546 140.426 115.647 141.347 116.11C141.552 116.231 138.609 119.455 138.43 119.797C137.79 121.026 136.971 122.134 136.075 123.263C135.41 124.109 134.847 125.056 134.105 125.862C133.644 126.345 133.055 126.688 132.416 127.03C132.006 127.252 131.597 127.473 131.187 127.715C130.471 128.158 130.036 128.521 129.319 127.856C128.526 127.131 128.167 126.103 127.681 125.237C127.323 124.612 127.169 124.411 126.171 124.552C124.713 124.733 123.996 125.68 123.791 126.788C123.535 128.118 123.152 129.488 122.998 130.818C122.64 133.9 122.281 136.963 122.896 140.045C123.126 141.174 122.998 142.403 122.972 143.551C122.972 144.478 123.331 145.263 123.382 146.17C123.407 146.734 123.152 147.198 123.74 147.5C124.073 147.661 126.095 147.54 126.504 147.5C128.219 147.278 128.551 145.566 129.345 144.478C130.061 143.511 130.931 142.785 131.776 141.919C132.16 141.516 132.339 141.032 132.646 140.609C133.67 139.219 135.461 138.393 136.945 137.386C138.378 136.399 139.812 135.432 141.296 134.505C142.729 133.638 143.804 132.47 145.186 131.583C146.03 131.019 146.875 130.375 147.796 129.891C148.462 129.549 148.845 129.468 149.357 129.025C149.511 128.884 149.613 128.642 149.792 128.501C151.046 127.494 153.708 129.508 155.32 129.508C156.702 129.488 158.058 128.017 158.98 127.211C159.594 126.688 160.285 126.285 160.925 125.781C161.053 125.68 161.795 125.156 161.871 125.015C162.23 124.411 161.999 124.451 161.59 124.008C161.18 123.565 160.925 123.041 160.515 122.618C160.003 122.074 159.363 121.893 159.287 121.147C159.184 120.402 159.568 120.442 160.029 119.938C160.157 119.777 160.054 119.495 160.208 119.334C160.438 119.092 160.669 119.052 160.925 118.87C162.332 117.823 163.509 116.695 164.584 115.445C165.224 114.68 166.196 114.156 166.887 113.411C167.885 112.363 168.781 111.275 169.677 110.187C170.419 109.26 171.494 108.575 172.313 107.689C172.876 107.044 173.413 106.48 174.104 105.936C175.051 105.17 176.612 104.163 176.535 102.994C176.484 102.551 176.126 101.765 175.998 101.342Z" fill="#0A2F44"/>
<path d="M138.71 75.8156C136.51 72.5115 134.155 68.9454 131.366 65.9032C130.061 64.4727 128.576 63.1229 127.169 61.7529C125.557 60.1814 124.123 58.4487 122.639 56.8167C121.18 55.2251 120.08 53.4119 118.109 52.1627C116.676 51.2762 115.422 50.2689 114.04 49.3421C112.658 48.4355 111.174 47.5691 109.434 47.1259C108.001 46.7632 106.516 46.6222 105.083 46.2192C103.983 45.917 102.806 45.6753 101.756 45.2925C100.758 44.9298 99.837 44.406 98.8134 44.0836C98.148 43.862 97.2779 43.8419 96.5869 43.7008C95.205 43.4591 93.8998 43.1166 92.4923 42.9755C90.7009 42.7942 88.8839 42.6129 87.0669 42.8144C85.4802 42.9957 83.8424 43.2173 82.2557 43.4188C81.1553 43.5598 79.8245 43.7412 78.8265 44.1844C78.0075 44.5471 77.291 45.1313 76.6256 45.635C75.474 46.5013 74.2456 47.2468 72.9148 47.9318C70.586 49.1205 68.0012 50.4099 66.3378 52.203C65.2374 53.3715 64.3929 54.7013 63.446 55.9504C62.1409 57.6629 60.4006 58.9322 58.7116 60.3828C55.5127 63.1631 53.6188 66.7292 50.3431 69.4692L49.5498 81.0943C49.5498 87.0982 49.9593 93.1423 51.9554 98.985C52.9791 101.987 53.5933 105.17 54.7449 108.152C55.1799 109.301 55.8965 110.57 56.5619 111.758C56.9458 112.443 57.2528 112.907 56.9713 113.612C56.4595 114.861 55.5894 116.13 54.9752 117.359C54.233 118.85 53.9515 119.938 55.615 120.986C57.3808 122.094 59.4793 123.867 59.1722 125.841C58.8139 128.158 56.3572 130.274 55.9221 132.651C55.8454 133.115 55.9221 133.699 56.0501 134.122C56.0757 134.203 56.3572 134.344 56.4084 134.485C56.7922 135.512 55.9477 137.104 55.5638 137.97C54.5402 140.388 54.0795 142.664 53.6445 145.183C53.3118 147.036 54.0539 148.95 53.1326 150.723C52.7743 151.388 52.2369 151.993 51.9043 152.678C50.8038 154.894 50.3176 157.553 50.3688 159.931C50.3943 161.945 50.5735 163.759 51.0597 165.713C51.3668 166.942 51.6227 168.191 51.8786 169.44C52.0322 170.165 51.8787 170.125 52.6208 170.528C56.1524 172.422 60.503 173.812 64.5976 174.719C67.9245 175.464 71.0211 176.713 74.3224 177.56C76.037 178.003 77.7005 178.587 79.4407 178.99C80.6179 179.272 81.923 179.514 83.049 179.937C83.7144 180.199 84.0727 180.521 84.7637 180.703C85.6082 180.904 86.6063 181.146 87.502 181.267C88.2697 181.367 89.063 181.327 89.8564 181.327C92.1596 181.327 94.4628 181.408 96.7405 181.267C98.4807 181.146 100.042 180.703 101.731 180.461C104.136 180.118 106.44 179.876 108.743 179.131C110.099 178.688 111.404 178.104 112.812 177.741C114.347 177.358 115.934 177.036 117.47 176.613C123.023 175.102 128.244 172.281 131.954 168.715C132.773 167.929 133.567 167.224 134.206 166.378C134.846 165.532 134.206 164.847 134.002 163.9C133.515 161.704 133.106 159.508 132.517 157.312C132.185 156.103 131.57 154.974 131.289 153.766C131.033 152.678 130.982 151.61 130.624 150.542C130.24 149.394 129.984 148.185 129.421 147.097C129.063 146.392 128.551 145.646 128.32 144.901C128.039 143.974 128.295 143.067 128.551 142.181C128.73 141.536 128.679 140.831 128.653 140.166C128.627 138.957 128.269 138.716 127.169 138.031C126.043 137.305 124.993 136.52 123.791 135.855C123.1 135.472 122.793 135.331 122.639 134.706C122.562 134.364 122.613 133.739 122.741 133.457C122.869 133.175 123.279 132.994 123.484 132.752C124.405 131.805 125.173 130.495 125.889 129.448C126.606 128.42 126.657 127.675 126.631 126.547C126.631 126.023 126.682 125.559 126.247 125.096C125.71 124.512 125.147 124.431 124.993 123.665C124.712 122.195 126.273 121.006 126.708 119.636C127.425 117.44 127.425 115.224 127.988 113.008C128.807 109.804 130.291 106.722 131.34 103.559C131.929 101.786 132.082 99.9521 132.594 98.159C133.183 96.1443 133.746 94.1497 134.59 92.1954C136.279 88.2868 138.147 84.2977 139.427 80.2883C139.657 79.563 139.811 78.8579 139.785 78.1326C139.76 77.1857 139.248 76.6215 138.71 75.8156Z" fill="#0A2F44"/>
<path d="M155.985 323.346C155.934 321.492 155.141 319.9 154.731 318.107C154.501 317.1 154.655 316.012 154.68 315.005C154.68 313.473 155.115 311.68 153.989 310.371C151.635 307.651 149.434 304.991 147.719 301.989C146.619 300.055 146.747 298.343 146.517 296.247C146.312 294.333 145.314 292.399 144.674 290.546C143.983 288.612 143.753 286.738 143.369 284.763C142.908 282.447 142.294 280.391 142.345 278.014C142.371 276.846 142.012 275.818 141.91 274.67C141.782 273.279 142.422 272.151 142.703 270.821C142.934 269.834 143.062 268.202 142.652 267.235C142.089 265.966 140.554 264.959 139.76 263.77C139.146 262.823 138.532 261.856 138.046 260.849C137.534 259.781 137.636 258.733 137.662 257.605C137.662 256.517 137.815 255.409 137.432 254.361C137.099 253.455 136.459 252.689 136.152 251.762C135.973 251.218 135.87 250.674 135.922 250.11C136.075 248.438 137.764 247.048 137.713 245.335C137.687 244.207 137.048 242.958 136.792 241.85C136.331 239.855 136.075 237.84 135.819 235.826C135.333 232.018 135.461 228.25 134.668 224.463C134.181 222.105 133.209 219.929 132.467 217.633C131.699 215.175 131.622 212.495 131.648 209.977C131.673 208.224 131.392 206.471 131.162 204.718C130.624 200.447 130.547 196.135 129.626 191.905C129.37 190.756 128.833 189.567 128.705 188.439C128.603 187.694 129.089 187.15 129.498 186.525C130.394 185.195 130.727 184.39 130.931 182.899C131.52 178.99 131.341 175.122 130.368 171.254C129.729 168.695 129.37 165.834 128.219 163.376C127.63 162.147 127.297 161.059 127.067 159.749C126.99 159.286 126.939 158.5 126.53 158.057C125.787 157.291 123.126 156.546 122.179 156.203C116.702 154.169 111.175 152.174 105.673 150.22L51.6233 167.969C51.6233 169.964 51.5721 171.878 51.3162 173.852C50.958 176.633 50.2926 179.312 50.3182 182.113C50.3438 183.302 50.4205 184.51 50.3694 185.679C50.267 187.452 49.0898 189.386 48.5524 191.139C47.7335 193.859 45.1999 196.297 44.7648 199.137C44.3042 202.18 44.9951 205.423 44.816 208.486C44.7136 210.138 44.3042 211.79 44.0483 213.442C43.7668 215.175 44.0227 216.887 43.6388 218.6C43.1014 220.917 42.3848 223.093 42.2824 225.43C42.2057 226.699 41.8474 228.069 41.2077 229.237C40.7214 230.124 40.0304 231.01 39.8001 231.957C39.5186 233.065 39.5697 234.556 39.6977 235.685C39.8001 236.652 40.4143 237.498 40.9005 238.384C41.31 239.15 41.5659 239.916 41.8474 240.661C42.2825 241.83 43.0758 243.038 43.1525 244.348C43.2037 245.496 43.3573 246.866 42.8198 247.934C42.4616 248.68 42.001 249.284 41.7707 250.05C41.2332 251.742 40.6702 253.434 40.0304 255.107C39.6209 256.174 39.1859 257.162 38.93 258.229C38.4949 259.902 39.4674 261.413 40.1584 262.944C40.8238 264.415 41.438 265.865 41.438 267.417C41.438 268.525 41.2844 268.928 40.6702 269.854C40.0304 270.842 39.6721 272.292 39.3906 273.38C38.7508 275.939 37.9831 278.457 38.0087 281.097C38.0599 285.005 38.0087 288.914 38.0087 292.822C38.0343 296.932 37.1642 301.103 36.6268 305.213C36.0382 309.666 35.859 314.138 35.424 318.591C35.2192 320.807 34.5026 322.983 33.6325 325.078C32.8648 326.972 32.8904 328.745 32.8904 330.719C32.8904 331.384 32.8392 332.049 32.8904 332.714C32.916 332.976 33.0695 334.225 33.4022 334.406C33.7093 334.588 34.2467 334.447 34.605 334.447C35.4495 334.447 36.2173 334.568 37.0362 334.709C39.621 335.152 42.001 335.152 44.6369 335.132C46.3003 335.112 47.8358 335.454 49.4736 335.474C51.2395 335.494 52.8773 335.454 54.6176 335.736C55.9739 335.958 57.5093 335.817 58.8913 335.817C59.5823 335.817 60.9643 335.998 61.6041 335.797C62.295 335.555 62.5765 334.769 62.9604 334.306C63.8305 333.157 64.5214 331.888 65.0077 330.619C65.6731 328.886 65.6986 327.073 65.6986 325.28C65.673 323.003 65.7754 320.706 65.6986 318.409C65.6474 317.12 65.1101 315.891 64.9309 314.602C64.7518 313.352 64.8541 312.063 64.8285 310.794C64.8029 309.263 64.675 307.651 65.2124 306.16C65.5195 305.294 66.0825 304.447 66.364 303.561C66.7223 302.412 66.62 301.204 66.7991 300.035C67.055 298.423 67.5668 297.013 68.3602 295.502C69.2303 293.85 69.6397 292.077 70.3307 290.385C71.3799 287.765 73.1458 285.428 74.1182 282.769C74.8092 280.835 75.5002 278.8 76.3447 276.886C76.8053 275.818 76.9845 274.972 76.3703 273.884C75.449 272.232 73.7344 271.104 73.3505 269.25C73.1202 268.041 72.9154 266.933 72.8898 265.704C72.8642 264.274 73.8367 263.387 74.6045 262.138C75.4746 260.708 76.1144 259.015 76.3191 257.403C76.6007 255.147 77.1637 252.951 77.5219 250.694C77.7523 249.324 78.3664 247.914 78.4432 246.544C78.52 245.134 78.8271 243.764 79.1598 242.373C79.774 239.916 80.4137 237.437 81.0024 234.979C81.7189 231.977 81.6677 228.915 82.3331 225.913C82.8961 223.395 83.843 221.017 84.1757 218.459C84.4572 216.263 84.4316 214.107 84.9178 211.931C85.3529 209.977 85.1994 208.022 85.7368 206.088C86.2998 204.134 86.9651 202.18 87.4514 200.225C87.8097 198.755 88.5519 197.203 88.6286 195.712C88.6798 194.584 88.6798 193.174 89.1404 192.106C89.6267 192.187 89.7034 193.073 89.857 193.456C90.7527 195.692 90.983 198.09 91.7252 200.387C92.5441 202.945 92.1858 205.484 92.8512 208.042C93.5422 210.803 94.2332 213.543 94.7706 216.323C95.2568 218.781 96.6644 221.017 97.0994 223.495C97.5345 225.994 98.1231 228.472 98.379 230.99C98.6605 233.73 99.6585 236.41 100.349 239.089C100.861 241.104 101.322 243.139 101.706 245.174C102.218 247.914 102.627 250.634 102.653 253.394C102.653 255.227 102.627 256.98 102.32 258.814C102.192 259.539 101.885 260.909 102.218 261.614C102.576 262.38 104.137 262.843 104.828 263.448C105.621 264.133 105.775 264.918 105.954 265.805C106.415 268.041 106.824 270.298 107.31 272.534C107.617 273.985 109.434 274.67 110.842 275.516C112.045 276.261 112.48 277.027 112.761 278.256C113.555 281.641 113.759 285.187 113.708 288.612C113.683 289.7 113.913 290.546 114.271 291.593C114.63 292.621 114.604 293.689 115.09 294.696C115.5 295.522 116.165 296.207 116.702 296.973C117.521 298.141 118.033 299.411 118.596 300.66C119.287 302.171 119.978 303.682 120.592 305.213C121.258 306.865 121.539 308.557 122.23 310.189C122.947 311.902 123.638 313.876 123.535 315.71C123.433 317.463 122.896 319.356 122.205 321.008C121.949 321.633 121.693 322.217 121.795 322.882C121.949 323.889 122.819 324.413 123.484 325.3C124.201 326.267 124.457 327.234 124.841 328.282C124.994 328.664 125.173 329.188 125.48 329.43C126.274 330.055 127.681 330.115 128.705 330.095C131.008 330.055 133.337 330.075 135.64 330.095C138.865 330.095 141.833 329.571 144.955 328.967C147.745 328.423 150.33 327.576 152.991 326.75C153.554 326.569 155.397 326.146 155.781 325.662C156.216 325.3 155.985 323.648 155.985 323.346Z" fill="#0A2F44"/>
</svg>
