<svg width="136" height="37" viewBox="0 0 136 37" fill="none" xmlns="http://www.w3.org/2000/svg">
<g clip-path="url(#clip0_1022_435)">
<g filter="url(#filter0_i_1022_435)">
<path d="M14.8498 1.06448V12.3586C13.7704 8.31447 12.8007 5.6086 11.9406 4.24095C11.0973 2.87331 10.0601 2.18948 8.82891 2.18948C7.86764 2.18948 7.13401 2.67478 6.62806 3.64536C6.12211 4.61595 5.86913 6.04243 5.86913 7.92476C5.86913 9.91005 6.13897 11.513 6.67865 12.7336C7.2352 13.9395 8.33146 15.2409 9.96734 16.638C12.3791 18.7262 13.9391 20.4615 14.6474 21.8439C15.3558 23.2116 15.7099 24.8071 15.7099 26.6306C15.7099 29.2336 15.0184 31.366 13.6355 33.0277C12.2694 34.6895 10.5323 35.5204 8.42415 35.5204C7.27736 35.5204 6.28233 35.138 5.43907 34.3733C4.59581 33.6086 3.84532 32.3954 3.18758 30.7336L1.41675 33.91V21.1159C2.73222 26.41 3.87905 29.9689 4.85722 31.7924C5.8354 33.616 7.00752 34.5277 8.37363 34.5277C9.73962 34.5277 10.7431 33.9027 11.384 32.6527C12.0249 31.4027 12.3453 29.4395 12.3453 26.763C12.3453 24.16 12.0755 22.2115 11.5358 20.9174C10.9961 19.6233 10.0432 18.3954 8.6772 17.2336C8.4579 17.0571 8.12058 16.7924 7.66526 16.4395C5.62459 14.866 4.21635 13.4101 3.44056 12.0718C3.18758 11.6454 2.9852 11.0571 2.83341 10.3071C2.68163 9.55711 2.60574 8.76299 2.60574 7.92476C2.60574 5.99831 3.19602 4.41007 4.37657 3.16007C5.57399 1.91007 7.07498 1.28507 8.87959 1.28507C9.82398 1.28507 10.6503 1.57183 11.3587 2.14536C12.067 2.70419 12.6911 3.57919 13.2308 4.77036L14.8498 1.06448ZM23.6027 1.63801L22.8185 15.2483C23.3751 13.8218 24.0412 12.7336 24.817 11.9836C25.5929 11.2336 26.4361 10.8586 27.3468 10.8586C29.1177 10.8586 30.6102 11.9101 31.8245 14.013C33.0388 16.116 33.6459 18.785 33.6459 22.0204C33.6459 24.2997 33.2917 26.3733 32.5834 28.241C31.8751 30.0939 30.762 31.8439 29.2441 33.491L33.5953 35.2116H26.5626C28.0636 33.5351 29.1598 31.6527 29.8513 29.5645C30.5596 27.4615 30.9138 24.9909 30.9138 22.1527C30.9138 18.6527 30.6102 16.0718 30.0031 14.41C29.3959 12.7336 28.4514 11.8953 27.1697 11.8953C26.1578 11.8953 25.1797 12.6748 24.2352 14.2336C23.2907 15.7924 22.7679 17.5865 22.6667 19.6159L21.8572 35.2116H17.1265L20.5417 33.4468V3.40272L17.1265 1.63801H23.6027ZM48.192 22.6159C48.192 19.66 47.7198 17.1527 46.7753 15.0939C45.8478 13.0204 44.7853 11.9836 43.5879 11.9836C42.2893 11.9836 41.3195 12.9395 40.6786 14.8512C40.0547 16.763 39.7427 19.6527 39.7427 23.5204C39.7427 27.5645 40.0209 30.3954 40.5775 32.013C41.1508 33.6307 42.0953 34.4395 43.4108 34.4395C44.7263 34.4395 45.8478 33.3218 46.7753 31.0865C47.7198 28.8513 48.192 26.0277 48.192 22.6159ZM53.4792 35.2116H47.8379V31.0645C47.2308 32.5645 46.5393 33.6968 45.7634 34.4616C45.0046 35.2262 44.1697 35.6086 43.259 35.6086C41.2858 35.6086 39.7005 34.5057 38.5031 32.2998C37.3225 30.0939 36.7322 27.1012 36.7322 23.3218C36.7322 19.6307 37.3731 16.6307 38.6548 14.3218C39.9366 12.013 41.5641 10.8586 43.5372 10.8586C44.5661 10.8586 45.4852 11.3733 46.2947 12.4027C47.1211 13.4321 47.7872 14.9248 48.2932 16.8806L48.7486 11.2336H53.2769L50.0641 12.9321V33.3586L53.4792 35.2116ZM53.8587 35.2116L57.0715 33.4468V12.888L53.8587 11.2336H58.5894L58.7917 17.4542C59.2809 15.3365 59.9639 13.7115 60.8408 12.5792C61.7178 11.4321 62.7044 10.8586 63.8007 10.8586C64.6945 10.8586 65.4872 11.0644 66.1786 11.4763C66.8701 11.888 67.5279 12.5424 68.1519 13.4395C68.7422 12.5571 69.3493 11.9101 69.9733 11.4983C70.5973 11.0719 71.2719 10.8586 71.9971 10.8586C73.7679 10.8586 75.2605 11.9101 76.4748 14.013C77.7059 16.116 78.3215 18.785 78.3215 22.0204C78.3215 24.2997 77.9589 26.3733 77.2337 28.241C76.5253 30.0939 75.4207 31.8439 73.9197 33.491L78.2203 35.2116H71.1622C72.6801 33.5203 73.7932 31.6233 74.5015 29.5204C75.2099 27.4174 75.5641 24.9321 75.5641 22.0645C75.5641 18.5203 75.252 15.9395 74.6281 14.3218C74.0209 12.7042 73.0596 11.8953 71.7441 11.8953C71.1707 11.8953 70.6394 12.1012 70.1503 12.513C69.6781 12.9248 69.2059 13.5645 68.7337 14.4321C68.9867 15.0645 69.1806 15.7336 69.3156 16.4395C69.4505 17.1307 69.5179 17.8586 69.5179 18.6233C69.5179 20.5645 69.2228 22.6307 68.6325 24.8218C68.0591 27.013 67.1906 29.3292 66.0269 31.7704L69.1891 33.4468H61.5745L64.7872 31.7704C65.5125 29.6821 66.0522 27.6895 66.4063 25.7924C66.7774 23.8807 66.9629 22.0792 66.9629 20.388C66.9629 17.8586 66.634 15.8145 65.9763 14.2557C65.3185 12.6821 64.4922 11.8953 63.4971 11.8953C62.4178 11.8953 61.3805 13.0572 60.3855 15.3806C59.3905 17.7042 58.8929 20.3659 58.8929 23.3659C58.8929 25.0718 58.9857 26.9321 59.1713 28.9468C59.3736 30.9615 59.6603 33.0498 60.0313 35.2116H53.8587ZM95.9286 12.1159L92.7917 13.8806L88.4907 35.2116H83.7097L87.0239 33.5792L82.0145 13.0204L78.5745 11.2336H84.8479L87.8585 32.763L91.7037 13.8806L88.3645 12.1159H95.9286ZM106.275 21.888V20.388C106.275 17.7998 105.972 15.7557 105.364 14.2557C104.757 12.7409 103.94 11.9836 102.911 11.9836C101.748 11.9836 100.845 12.8145 100.204 14.4763C99.5634 16.1233 99.1918 18.5939 99.0906 21.888H106.275ZM109.083 22.7924H99.0906C99.0906 27.0866 99.4112 30.1012 100.052 31.8365C100.71 33.5719 101.806 34.4395 103.341 34.4395C104.319 34.4395 105.196 33.7704 105.972 32.4321C106.764 31.0792 107.54 28.888 108.299 25.8586V35.1233L107.312 31.8145C106.689 33.1527 106.04 34.1233 105.364 34.7263C104.707 35.3145 103.957 35.6086 103.113 35.6086C101.106 35.6086 99.4873 34.513 98.256 32.3218C97.0417 30.1307 96.4346 27.1821 96.4346 23.4763C96.4346 19.8292 97.0668 16.8145 98.3321 14.4321C99.5966 12.0498 101.123 10.8586 102.911 10.8586C104.53 10.8586 105.964 11.888 107.212 13.9468C108.459 15.9909 109.083 18.4542 109.083 21.3365V22.7924ZM121.1 21.888V20.388C121.1 17.7998 120.796 15.7557 120.189 14.2557C119.582 12.7409 118.764 11.9836 117.736 11.9836C116.572 11.9836 115.669 12.8145 115.029 14.4763C114.387 16.1233 114.017 18.5939 113.915 21.888H121.1ZM123.907 22.7924H113.915C113.915 27.0866 114.236 30.1012 114.876 31.8365C115.535 33.5719 116.631 34.4395 118.165 34.4395C119.143 34.4395 120.02 33.7704 120.796 32.4321C121.589 31.0792 122.364 28.888 123.124 25.8586V35.1233L122.137 31.8145C121.513 33.1527 120.864 34.1233 120.189 34.7263C119.531 35.3145 118.781 35.6086 117.938 35.6086C115.93 35.6086 114.311 34.513 113.081 32.3218C111.867 30.1307 111.259 27.1821 111.259 23.4763C111.259 19.8292 111.892 16.8145 113.156 14.4321C114.421 12.0498 115.947 10.8586 117.736 10.8586C119.355 10.8586 120.788 11.888 122.036 13.9468C123.284 15.9909 123.907 18.4542 123.907 21.3365V22.7924ZM125.426 35.2116L128.537 33.4468V3.57919L124.894 1.63801H131.32L129.776 33.4468L132.939 35.2116H125.426Z" fill="black"/>
</g>
<mask id="mask0_1022_435" style="mask-type:luminance" maskUnits="userSpaceOnUse" x="0" y="-1" width="136" height="38">
<path d="M136 -0.0825806H0V36.6233H136V-0.0825806Z" fill="white"/>
<path d="M14.8498 1.06448V12.3586C13.7704 8.31447 12.8007 5.6086 11.9406 4.24095C11.0973 2.87331 10.0601 2.18948 8.82891 2.18948C7.86764 2.18948 7.13401 2.67478 6.62806 3.64536C6.12211 4.61595 5.86913 6.04243 5.86913 7.92476C5.86913 9.91005 6.13897 11.513 6.67865 12.7336C7.2352 13.9395 8.33146 15.2409 9.96734 16.638C12.3791 18.7262 13.9391 20.4615 14.6474 21.8439C15.3558 23.2116 15.7099 24.8071 15.7099 26.6306C15.7099 29.2336 15.0184 31.366 13.6355 33.0277C12.2694 34.6895 10.5323 35.5204 8.42415 35.5204C7.27736 35.5204 6.28233 35.138 5.43907 34.3733C4.59581 33.6086 3.84532 32.3954 3.18758 30.7336L1.41675 33.91V21.1159C2.73222 26.41 3.87905 29.9689 4.85722 31.7924C5.8354 33.616 7.00752 34.5277 8.37363 34.5277C9.73962 34.5277 10.7431 33.9027 11.384 32.6527C12.0249 31.4027 12.3453 29.4395 12.3453 26.763C12.3453 24.16 12.0755 22.2115 11.5358 20.9174C10.9961 19.6233 10.0432 18.3954 8.6772 17.2336C8.4579 17.0571 8.12058 16.7924 7.66526 16.4395C5.62459 14.866 4.21635 13.4101 3.44056 12.0718C3.18758 11.6454 2.9852 11.0571 2.83341 10.3071C2.68163 9.55711 2.60574 8.76299 2.60574 7.92476C2.60574 5.99831 3.19602 4.41007 4.37657 3.16007C5.57399 1.91007 7.07498 1.28507 8.87959 1.28507C9.82398 1.28507 10.6503 1.57183 11.3587 2.14536C12.067 2.70419 12.6911 3.57919 13.2308 4.77036L14.8498 1.06448ZM23.6027 1.63801L22.8185 15.2483C23.3751 13.8218 24.0412 12.7336 24.817 11.9836C25.5929 11.2336 26.4361 10.8586 27.3468 10.8586C29.1177 10.8586 30.6102 11.9101 31.8245 14.013C33.0388 16.116 33.6459 18.785 33.6459 22.0204C33.6459 24.2997 33.2917 26.3733 32.5834 28.241C31.8751 30.0939 30.762 31.8439 29.2441 33.491L33.5953 35.2116H26.5626C28.0636 33.5351 29.1598 31.6527 29.8513 29.5645C30.5596 27.4615 30.9138 24.9909 30.9138 22.1527C30.9138 18.6527 30.6102 16.0718 30.0031 14.41C29.3959 12.7336 28.4514 11.8953 27.1697 11.8953C26.1578 11.8953 25.1797 12.6748 24.2352 14.2336C23.2907 15.7924 22.7679 17.5865 22.6667 19.6159L21.8572 35.2116H17.1265L20.5417 33.4468V3.40272L17.1265 1.63801H23.6027ZM48.192 22.6159C48.192 19.66 47.7198 17.1527 46.7753 15.0939C45.8478 13.0204 44.7853 11.9836 43.5879 11.9836C42.2893 11.9836 41.3195 12.9395 40.6786 14.8512C40.0547 16.763 39.7427 19.6527 39.7427 23.5204C39.7427 27.5645 40.0209 30.3954 40.5775 32.013C41.1508 33.6307 42.0953 34.4395 43.4108 34.4395C44.7263 34.4395 45.8478 33.3218 46.7753 31.0865C47.7198 28.8513 48.192 26.0277 48.192 22.6159ZM53.4792 35.2116H47.8379V31.0645C47.2308 32.5645 46.5393 33.6968 45.7634 34.4616C45.0046 35.2262 44.1697 35.6086 43.259 35.6086C41.2858 35.6086 39.7005 34.5057 38.5031 32.2998C37.3225 30.0939 36.7322 27.1012 36.7322 23.3218C36.7322 19.6307 37.3731 16.6307 38.6548 14.3218C39.9366 12.013 41.5641 10.8586 43.5372 10.8586C44.5661 10.8586 45.4852 11.3733 46.2947 12.4027C47.1211 13.4321 47.7872 14.9248 48.2932 16.8806L48.7486 11.2336H53.2769L50.0641 12.9321V33.3586L53.4792 35.2116ZM53.8587 35.2116L57.0715 33.4468V12.888L53.8587 11.2336H58.5894L58.7917 17.4542C59.2809 15.3365 59.9639 13.7115 60.8408 12.5792C61.7178 11.4321 62.7044 10.8586 63.8007 10.8586C64.6945 10.8586 65.4872 11.0644 66.1786 11.4763C66.8701 11.888 67.5279 12.5424 68.1519 13.4395C68.7422 12.5571 69.3493 11.9101 69.9733 11.4983C70.5973 11.0719 71.2719 10.8586 71.9971 10.8586C73.7679 10.8586 75.2605 11.9101 76.4748 14.013C77.7059 16.116 78.3215 18.785 78.3215 22.0204C78.3215 24.2997 77.9589 26.3733 77.2337 28.241C76.5253 30.0939 75.4207 31.8439 73.9197 33.491L78.2203 35.2116H71.1622C72.6801 33.5203 73.7932 31.6233 74.5015 29.5204C75.2099 27.4174 75.5641 24.9321 75.5641 22.0645C75.5641 18.5203 75.252 15.9395 74.6281 14.3218C74.0209 12.7042 73.0596 11.8953 71.7441 11.8953C71.1707 11.8953 70.6394 12.1012 70.1503 12.513C69.6781 12.9248 69.2059 13.5645 68.7337 14.4321C68.9867 15.0645 69.1806 15.7336 69.3156 16.4395C69.4505 17.1307 69.5179 17.8586 69.5179 18.6233C69.5179 20.5645 69.2228 22.6307 68.6325 24.8218C68.0591 27.013 67.1906 29.3292 66.0269 31.7704L69.1891 33.4468H61.5745L64.7872 31.7704C65.5125 29.6821 66.0522 27.6895 66.4063 25.7924C66.7774 23.8807 66.9629 22.0792 66.9629 20.388C66.9629 17.8586 66.634 15.8145 65.9763 14.2557C65.3185 12.6821 64.4922 11.8953 63.4971 11.8953C62.4178 11.8953 61.3805 13.0572 60.3855 15.3806C59.3905 17.7042 58.8929 20.3659 58.8929 23.3659C58.8929 25.0718 58.9857 26.9321 59.1713 28.9468C59.3736 30.9615 59.6603 33.0498 60.0313 35.2116H53.8587ZM95.9286 12.1159L92.7917 13.8806L88.4907 35.2116H83.7097L87.0239 33.5792L82.0145 13.0204L78.5745 11.2336H84.8479L87.8585 32.763L91.7037 13.8806L88.3645 12.1159H95.9286ZM106.275 21.888V20.388C106.275 17.7998 105.972 15.7557 105.364 14.2557C104.757 12.7409 103.94 11.9836 102.911 11.9836C101.748 11.9836 100.845 12.8145 100.204 14.4763C99.5634 16.1233 99.1918 18.5939 99.0906 21.888H106.275ZM109.083 22.7924H99.0906C99.0906 27.0866 99.4112 30.1012 100.052 31.8365C100.71 33.5719 101.806 34.4395 103.341 34.4395C104.319 34.4395 105.196 33.7704 105.972 32.4321C106.764 31.0792 107.54 28.888 108.299 25.8586V35.1233L107.312 31.8145C106.689 33.1527 106.04 34.1233 105.364 34.7263C104.707 35.3145 103.957 35.6086 103.113 35.6086C101.106 35.6086 99.4873 34.513 98.256 32.3218C97.0417 30.1307 96.4346 27.1821 96.4346 23.4763C96.4346 19.8292 97.0668 16.8145 98.3321 14.4321C99.5966 12.0498 101.123 10.8586 102.911 10.8586C104.53 10.8586 105.964 11.888 107.212 13.9468C108.459 15.9909 109.083 18.4542 109.083 21.3365V22.7924ZM121.1 21.888V20.388C121.1 17.7998 120.796 15.7557 120.189 14.2557C119.582 12.7409 118.764 11.9836 117.736 11.9836C116.572 11.9836 115.669 12.8145 115.029 14.4763C114.387 16.1233 114.017 18.5939 113.915 21.888H121.1ZM123.907 22.7924H113.915C113.915 27.0866 114.236 30.1012 114.876 31.8365C115.535 33.5719 116.631 34.4395 118.165 34.4395C119.143 34.4395 120.02 33.7704 120.796 32.4321C121.589 31.0792 122.364 28.888 123.124 25.8586V35.1233L122.137 31.8145C121.513 33.1527 120.864 34.1233 120.189 34.7263C119.531 35.3145 118.781 35.6086 117.938 35.6086C115.93 35.6086 114.311 34.513 113.081 32.3218C111.867 30.1307 111.259 27.1821 111.259 23.4763C111.259 19.8292 111.892 16.8145 113.156 14.4321C114.421 12.0498 115.947 10.8586 117.736 10.8586C119.355 10.8586 120.788 11.888 122.036 13.9468C123.284 15.9909 123.907 18.4542 123.907 21.3365V22.7924ZM125.426 35.2116L128.537 33.4468V3.57919L124.894 1.63801H131.32L129.776 33.4468L132.939 35.2116H125.426Z" fill="black"/>
</mask>
<g mask="url(#mask0_1022_435)">
<path d="M14.8498 1.06449H15.6593L14.0933 0.813196L14.8498 1.06449ZM14.8498 12.3586L14.0613 12.5186L15.6593 12.3586H14.8498ZM11.9405 4.24096L11.2275 4.57523L11.2307 4.58036L11.9405 4.24096ZM6.67861 12.7336L5.92327 12.9876L5.92541 12.9924L5.92762 12.9972L6.67861 12.7336ZM9.9673 16.638L10.5377 16.1371L10.5337 16.1337L9.9673 16.638ZM14.6474 21.8439L13.9082 22.1318L13.9096 22.1345L14.6474 21.8439ZM13.6355 33.0277L12.9803 32.6131L12.9775 32.6165L13.6355 33.0277ZM3.18753 30.7336L3.95276 30.5033L3.31462 28.8911L2.45947 30.425L3.18753 30.7336ZM1.4167 33.91H0.607178L2.14476 34.2187L1.4167 33.91ZM1.4167 21.1159L2.20787 20.9665L0.607178 21.1159H1.4167ZM8.67716 17.2336L9.24237 16.7282L9.23435 16.7215L9.22618 16.7149L8.67716 17.2336ZM7.66521 16.4395L8.20302 15.9119L8.20148 15.9107L7.66521 16.4395ZM3.44051 12.0718L4.16301 11.7534L4.15955 11.7475L3.44051 12.0718ZM4.37652 3.16007L3.75521 2.70755L3.75163 2.71134L4.37652 3.16007ZM11.3586 2.14537L10.8077 2.66268L10.8155 2.66881L11.3586 2.14537ZM13.2307 4.77037L12.4778 5.02973L13.2444 6.7218L13.9871 5.02166L13.2307 4.77037ZM14.0403 1.06449V12.3586H15.6593V1.06449H14.0403ZM15.6382 12.1986C14.5609 8.16243 13.5711 5.36566 12.6503 3.90155L11.2307 4.58036C12.0301 5.85155 12.9798 8.46652 14.0613 12.5186L15.6382 12.1986ZM12.6535 3.9067C11.7396 2.42443 10.482 1.4836 8.82886 1.4836V2.89537C9.63814 2.89537 10.455 3.32221 11.2275 4.57523L12.6535 3.9067ZM8.82886 1.4836C8.17987 1.4836 7.5825 1.65104 7.06843 1.99109C6.56529 2.32391 6.18206 2.79502 5.89105 3.35327L7.36498 3.93747C7.57991 3.52513 7.81648 3.26829 8.04696 3.11583C8.26657 2.97059 8.51663 2.89537 8.82886 2.89537V1.4836ZM5.89105 3.35327C5.31371 4.46081 5.05956 6.00727 5.05956 7.92476H6.67861C6.67861 6.07758 6.93041 4.7711 7.36498 3.93747L5.89105 3.35327ZM5.05956 7.92476C5.05956 9.95657 5.33422 11.6553 5.92327 12.9876L7.43394 12.4797C6.94362 11.3707 6.67861 9.8636 6.67861 7.92476H5.05956ZM5.92762 12.9972C6.54223 14.3289 7.72356 15.7099 9.40087 17.1423L10.5337 16.1337C8.9392 14.772 7.92807 13.5501 7.42959 12.4701L5.92762 12.9972ZM9.39691 17.1389C11.7924 19.2131 13.2633 20.8731 13.9082 22.1318L15.3865 21.5559C14.6148 20.05 12.9657 18.2395 10.5377 16.1371L9.39691 17.1389ZM13.9096 22.1345C14.5616 23.3933 14.9003 24.8862 14.9003 26.6306H16.5193C16.5193 24.7281 16.1498 23.0298 15.3851 21.5534L13.9096 22.1345ZM14.9003 26.6306C14.9003 29.1248 14.2388 31.1008 12.9803 32.6131L14.2906 33.4423C15.7979 31.6311 16.5193 29.3424 16.5193 26.6306H14.9003ZM12.9775 32.6165C11.7436 34.1174 10.2391 34.8145 8.4241 34.8145V36.2263C10.8255 36.2263 12.7951 35.2616 14.2934 33.4389L12.9775 32.6165ZM8.4241 34.8145C7.51205 34.8145 6.72356 34.5198 6.02255 33.8841L4.85549 34.8626C5.841 35.7563 7.04258 36.2263 8.4241 36.2263V34.8145ZM6.02255 33.8841C5.29719 33.2263 4.59422 32.124 3.95276 30.5033L2.42231 30.9639C3.09633 32.6668 3.89435 33.9909 4.85549 34.8626L6.02255 33.8841ZM2.45947 30.425L0.688642 33.6014L2.14476 34.2187L3.9156 31.0422L2.45947 30.425ZM2.22623 33.91V21.1159H0.607178V33.91H2.22623ZM0.625535 21.2654C1.93928 26.5526 3.10181 30.1861 4.1239 32.0915L5.59045 31.4933C4.6562 29.7517 3.52507 26.2676 2.20787 20.9665L0.625535 21.2654ZM4.1239 32.0915C5.1368 33.9797 6.5134 35.2336 8.37359 35.2336V33.8218C7.50155 33.8218 6.53391 33.2522 5.59045 31.4933L4.1239 32.0915ZM8.37359 35.2336C9.20626 35.2336 9.96746 35.0405 10.6212 34.6334C11.268 34.2306 11.7596 33.6496 12.123 32.9408L10.6449 32.3647C10.3674 32.9059 10.0369 33.2624 9.68016 33.4845C9.33044 33.7024 8.9069 33.8218 8.37359 33.8218V35.2336ZM12.123 32.9408C12.8363 31.5495 13.1548 29.4619 13.1548 26.763H11.5357C11.5357 29.417 11.2133 31.2559 10.6449 32.3647L12.123 32.9408ZM13.1548 26.763C13.1548 24.1375 12.8856 22.0888 12.2965 20.6762L10.775 21.1586C11.2652 22.3343 11.5357 24.1826 11.5357 26.763H13.1548ZM12.2965 20.6762C11.7075 19.2637 10.6777 17.9489 9.24237 16.7282L8.11187 17.7389C9.40873 18.8418 10.2846 19.9829 10.775 21.1586L12.2965 20.6762ZM9.22618 16.7149C9.00113 16.5338 8.65911 16.2654 8.20302 15.9119L7.1274 16.967C7.582 17.3194 7.91463 17.5805 8.12806 17.7523L9.22618 16.7149ZM8.20148 15.9107C6.19793 14.3658 4.87353 12.979 4.16301 11.7534L2.71804 12.3903C3.55911 13.8411 5.05116 15.3661 7.12895 16.9682L8.20148 15.9107ZM4.15955 11.7475C3.95953 11.4103 3.77544 10.9003 3.63057 10.1844L2.03617 10.4298C2.19487 11.214 2.41554 11.8804 2.72148 12.3962L4.15955 11.7475ZM3.63057 10.1844C3.48775 9.47876 3.41521 8.72593 3.41521 7.92476H1.79617C1.79617 8.80005 1.87541 9.63546 2.03617 10.4298L3.63057 10.1844ZM3.41521 7.92476C3.41521 6.12963 3.96189 4.70949 5.00142 3.60881L3.75163 2.71134C2.43005 4.11066 1.79617 5.86699 1.79617 7.92476H3.41521ZM4.99782 3.61259C6.04764 2.51668 7.32438 1.99096 8.87954 1.99096V0.579193C6.82549 0.579193 5.10024 1.30347 3.75521 2.70755L4.99782 3.61259ZM8.87954 1.99096C9.61434 1.99096 10.2453 2.20724 10.8077 2.66268L11.9095 1.6281C11.0553 0.93649 10.0335 0.579193 8.87954 0.579193V1.99096ZM10.8155 2.66881C11.3953 3.12616 11.9616 3.89031 12.4778 5.02973L13.9836 4.511C13.4205 3.26807 12.7387 2.28222 11.9018 1.62193L10.8155 2.66881ZM13.9871 5.02166L15.6062 1.31578L14.0933 0.813196L12.4742 4.51908L13.9871 5.02166ZM23.6027 1.63801L24.4112 1.67344L24.454 0.932134H23.6027V1.63801ZM22.8185 15.2483L22.01 15.2129L23.5849 15.4757L22.8185 15.2483ZM32.5834 28.241L33.3514 28.4642L33.3519 28.4626L32.5834 28.241ZM29.2441 33.491L28.6131 33.0488L27.9594 33.7581L28.9098 34.1338L29.2441 33.491ZM33.5953 35.2116V35.9174L33.9296 34.5687L33.5953 35.2116ZM26.5625 35.2116L25.9245 34.7772L24.9035 35.9174H26.5625V35.2116ZM29.8512 29.5645L29.0745 29.3656L29.0734 29.3687L29.8512 29.5645ZM30.003 14.4101L29.231 14.6227L29.2317 14.6244L30.003 14.4101ZM22.6667 19.6159L23.4754 19.6478L23.4755 19.6466L22.6667 19.6159ZM21.8572 35.2116V35.9174H22.6309L22.6659 35.2435L21.8572 35.2116ZM17.1265 35.2116L16.7138 34.6043L14.1725 35.9174H17.1265V35.2116ZM20.5417 33.4468L20.9544 34.0541L21.3512 33.8491V33.4468H20.5417ZM20.5417 3.40272H21.3512V3.00051L20.9544 2.79546L20.5417 3.40272ZM17.1265 1.63801V0.932134H14.1725L16.7138 2.24528L17.1265 1.63801ZM22.7942 1.60259L22.01 15.2129L23.627 15.2837L24.4112 1.67344L22.7942 1.60259ZM23.5849 15.4757C24.1218 14.0994 24.743 13.1091 25.4181 12.4564L24.2159 11.5109C23.3394 12.3581 22.6283 13.5443 22.0521 15.021L23.5849 15.4757ZM25.4181 12.4564C26.085 11.8117 26.7243 11.5645 27.3467 11.5645V10.1527C26.1478 10.1527 25.1006 10.6555 24.2159 11.5109L25.4181 12.4564ZM27.3467 11.5645C28.6674 11.5645 29.9447 12.3273 31.1014 14.3304L32.5475 13.6956C31.2756 11.4929 29.5678 10.1527 27.3467 10.1527V11.5645ZM31.1014 14.3304C32.2416 16.3051 32.8363 18.8563 32.8363 22.0204H34.4554C34.4554 18.7139 33.8359 15.9268 32.5475 13.6956L31.1014 14.3304ZM32.8363 22.0204C32.8363 24.2361 32.4921 26.2335 31.8148 28.0193L33.3519 28.4626C34.0914 26.5131 34.4554 24.3634 34.4554 22.0204H32.8363ZM31.8154 28.0178C31.1398 29.7849 30.0756 31.4617 28.6131 33.0488L29.8751 33.9331C31.4483 32.2261 32.6102 30.4029 33.3514 28.4642L31.8154 28.0178ZM28.9098 34.1338L33.2609 35.8544L33.9296 34.5687L29.5784 32.8481L28.9098 34.1338ZM33.5953 34.5057H26.5625V35.9174H33.5953V34.5057ZM27.2006 35.646C28.7666 33.8969 29.9095 31.9332 30.629 29.7603L29.0734 29.3687C28.41 31.3723 27.3604 33.1733 25.9245 34.7772L27.2006 35.646ZM30.628 29.7634C31.3633 27.5801 31.7232 25.0396 31.7232 22.1527H30.1042C30.1042 24.9423 29.7558 27.343 29.0745 29.3656L30.628 29.7634ZM31.7232 22.1527C31.7232 18.6378 31.4211 15.9661 30.7743 14.1958L29.2317 14.6244C29.7992 16.1776 30.1042 18.6677 30.1042 22.1527H31.7232ZM30.775 14.1975C30.4504 13.3015 30.0118 12.5575 29.4168 12.0293C28.8011 11.4829 28.0399 11.1895 27.1697 11.1895V12.6012C27.5812 12.6012 27.9331 12.7269 28.2619 13.0188C28.6113 13.3289 28.9484 13.8422 29.231 14.6227L30.775 14.1975ZM27.1697 11.1895C26.4055 11.1895 25.7219 11.488 25.1311 11.9588C24.547 12.4243 24.0146 13.0864 23.5194 13.9039L24.9509 14.5634C25.4001 13.822 25.8291 13.315 26.2232 13.001C26.6105 12.6924 26.922 12.6012 27.1697 12.6012V11.1895ZM23.5194 13.9039C22.511 15.5683 21.9636 17.4673 21.8579 19.5853L23.4755 19.6466C23.5722 17.7058 24.0704 16.0166 24.9509 14.5634L23.5194 13.9039ZM21.858 19.584L21.0485 35.1797L22.6659 35.2435L23.4754 19.6478L21.858 19.584ZM21.8572 34.5057H17.1265V35.9174H21.8572V34.5057ZM17.5393 35.8188L20.9544 34.0541L20.129 32.8396L16.7138 34.6043L17.5393 35.8188ZM21.3512 33.4468V3.40272H19.7322V33.4468H21.3512ZM20.9544 2.79546L17.5393 1.03075L16.7138 2.24528L20.129 4.00998L20.9544 2.79546ZM17.1265 2.3439H23.6027V0.932134H17.1265V2.3439ZM46.7753 15.0939L46.0211 15.3504L46.0237 15.3561L46.7753 15.0939ZM40.6786 14.8512L39.9015 14.6532L39.9 14.658L40.6786 14.8512ZM40.5774 32.013L39.802 32.2159L39.804 32.2214L40.5774 32.013ZM46.7753 31.0865L46.0157 30.8425L46.0141 30.8464L46.7753 31.0865ZM53.4792 35.2116V35.9174H56.3125L53.9069 34.6122L53.4792 35.2116ZM47.8379 35.2116H47.0284V35.9174H47.8379V35.2116ZM47.8379 31.0645H48.6474L47.0745 30.8296L47.8379 31.0645ZM45.7634 34.4616L45.1571 33.9938L45.1513 33.9996L45.7634 34.4616ZM38.503 32.2998L37.7694 32.5983L37.7713 32.6018L38.503 32.2998ZM46.2947 12.4027L45.627 12.8019L45.6315 12.8075L46.2947 12.4027ZM48.2932 16.8806L47.5035 17.036L49.1007 16.9302L48.2932 16.8806ZM48.7486 11.2336V10.5277H47.9939L47.941 11.1841L48.7486 11.2336ZM53.2768 11.2336L53.6965 11.8372L56.1735 10.5277H53.2768V11.2336ZM50.0641 12.9321L49.6443 12.3285L49.2545 12.5346V12.9321H50.0641ZM50.0641 33.3586H49.2545V33.7507L49.6363 33.9579L50.0641 33.3586ZM49.0015 22.6159C49.0015 19.5985 48.5201 16.9967 47.5269 14.8317L46.0237 15.3561C46.9195 17.3088 47.3824 19.7217 47.3824 22.6159H49.0015ZM47.5295 14.8374C47.0492 13.7635 46.509 12.8984 45.8864 12.2909C45.2552 11.6749 44.4869 11.2777 43.5879 11.2777V12.6895C43.8863 12.6895 44.2479 12.8107 44.6791 13.2315C45.119 13.6608 45.574 14.3508 46.0211 15.3504L47.5295 14.8374ZM43.5879 11.2777C42.6757 11.2777 41.897 11.6249 41.2802 12.2328C40.6845 12.8201 40.2385 13.6478 39.9015 14.6532L41.4556 15.0493C41.7595 14.1429 42.1189 13.5369 42.4929 13.1682C42.8459 12.8203 43.2013 12.6895 43.5879 12.6895V11.2777ZM39.9 14.658C39.2443 16.667 38.9331 19.6368 38.9331 23.5204H40.5522C40.5522 19.6687 40.865 16.859 41.4572 15.0445L39.9 14.658ZM38.9331 23.5204C38.9331 27.5642 39.2078 30.4888 39.802 32.2159L41.3528 31.8102C40.8339 30.3019 40.5522 27.5648 40.5522 23.5204H38.9331ZM39.804 32.2214C40.1132 33.0936 40.5463 33.8207 41.1485 34.3365C41.7711 34.8696 42.5394 35.1453 43.4108 35.1453V33.7336C42.9666 33.7336 42.6049 33.605 42.2831 33.3293C41.9409 33.0362 41.6151 32.5501 41.3508 31.8045L39.804 32.2214ZM43.4108 35.1453C44.3665 35.1453 45.1816 34.7299 45.8477 34.0661C46.5025 33.4136 47.0566 32.4832 47.5366 31.3267L46.0141 30.8464C45.5664 31.9251 45.0961 32.6712 44.6292 33.1364C44.1739 33.5902 43.7705 33.7336 43.4108 33.7336V35.1453ZM47.535 31.3305C48.5234 28.9913 49.0015 26.078 49.0015 22.6159H47.3824C47.3824 25.9774 46.9162 28.7112 46.0157 30.8425L47.535 31.3305ZM53.4792 34.5057H47.8379V35.9174H53.4792V34.5057ZM48.6474 35.2116V31.0645H47.0284V35.2116H48.6474ZM47.0745 30.8296C46.4848 32.2865 45.8362 33.3244 45.1571 33.9938L46.3697 34.9293C47.2421 34.0693 47.9766 32.8425 48.6012 31.2994L47.0745 30.8296ZM45.1513 33.9996C44.5009 34.655 43.8735 34.9027 43.259 34.9027V36.3145C44.4659 36.3145 45.5081 35.7976 46.3755 34.9235L45.1513 33.9996ZM43.259 34.9027C41.7257 34.9027 40.3629 34.0761 39.2347 31.9978L37.7713 32.6018C39.0379 34.9352 40.8458 36.3145 43.259 36.3145V34.9027ZM39.2366 32.0013C38.1261 29.9263 37.5417 27.0494 37.5417 23.3218H35.9227C35.9227 27.1531 36.5189 30.2616 37.7694 32.5983L39.2366 32.0013ZM37.5417 23.3218C37.5417 19.6938 38.173 16.8097 39.3834 14.6294L37.9261 14.0143C36.5731 16.4516 35.9227 19.5675 35.9227 23.3218H37.5417ZM39.3834 14.6294C40.6047 12.4296 42.0153 11.5645 43.5372 11.5645V10.1527C41.1128 10.1527 39.2684 11.5965 37.9261 14.0143L39.3834 14.6294ZM43.5372 11.5645C44.2029 11.5645 44.9042 11.8829 45.627 12.8019L46.9623 12.0036C46.066 10.8637 44.9292 10.1527 43.5372 10.1527V11.5645ZM45.6315 12.8075C46.3723 13.7304 47.0085 15.1226 47.5035 17.036L49.0828 16.7253C48.566 14.727 47.8699 13.134 46.9578 11.9979L45.6315 12.8075ZM49.1007 16.9302L49.5561 11.2831L47.941 11.1841L47.4856 16.8312L49.1007 16.9302ZM48.7486 11.9395H53.2768V10.5277H48.7486V11.9395ZM52.8572 10.63L49.6443 12.3285L50.4837 13.5357L53.6965 11.8372L52.8572 10.63ZM49.2545 12.9321V33.3586H50.8736V12.9321H49.2545ZM49.6363 33.9579L53.0515 35.8109L53.9069 34.6122L50.4917 32.7593L49.6363 33.9579ZM53.8586 35.2116L53.4272 34.6143L51.0547 35.9174H53.8586V35.2116ZM57.0715 33.4468L57.5029 34.0441L57.881 33.8364V33.4468H57.0715ZM57.0715 12.888H57.881V12.4851L57.4831 12.2802L57.0715 12.888ZM53.8586 11.2336V10.5277H50.8959L53.4471 11.8414L53.8586 11.2336ZM58.5893 11.2336L59.3985 11.2136L59.3762 10.5277H58.5893V11.2336ZM58.7917 17.4542L57.9825 17.4742L59.5853 17.5936L58.7917 17.4542ZM60.8408 12.5792L61.5117 12.9743L61.5144 12.9708L60.8408 12.5792ZM68.1518 13.4395L67.4597 13.8055L68.1654 14.8201L68.8511 13.7952L68.1518 13.4395ZM69.9733 11.4983L70.4617 12.0612L70.4672 12.0576L70.4726 12.0539L69.9733 11.4983ZM76.4748 14.013L75.7517 14.3305L75.7537 14.334L76.4748 14.013ZM77.2336 28.241L76.4669 28.0146L76.4657 28.0178L77.2336 28.241ZM73.9197 33.491L73.2859 33.0518L72.6433 33.7569L73.5821 34.1325L73.9197 33.491ZM78.2203 35.2116V35.9174L78.5578 34.57L78.2203 35.2116ZM71.1622 35.2116L70.5247 34.7765L69.5007 35.9174H71.1622V35.2116ZM74.628 14.3218L73.8586 14.5414L73.8607 14.5469L74.628 14.3218ZM70.1503 12.513L69.5881 12.0052L69.5829 12.0095L69.5779 12.0139L70.1503 12.513ZM68.7336 14.4321L68.0023 14.1295L67.8599 14.3911L67.9694 14.6647L68.7336 14.4321ZM69.3155 16.4395L68.517 16.5555L68.5175 16.5579L69.3155 16.4395ZM68.6324 24.8218L67.8444 24.6604L67.8432 24.6648L68.6324 24.8218ZM66.0268 31.7704L65.2793 31.4995L65.0126 32.0588L65.6063 32.3735L66.0268 31.7704ZM69.1891 33.4468V34.1527H72.0787L69.6096 32.8437L69.1891 33.4468ZM61.5744 33.4468L61.1588 32.8411L58.6452 34.1527H61.5744V33.4468ZM64.7872 31.7704L65.203 32.3761L65.4713 32.236L65.562 31.9749L64.7872 31.7704ZM66.4062 25.7924L65.6081 25.6747L65.6072 25.679L66.4062 25.7924ZM65.9762 14.2557L65.2157 14.4974L65.2165 14.4994L65.9762 14.2557ZM59.1712 28.9469L58.3642 29.0033L58.3648 29.0084L59.1712 28.9469ZM60.0312 35.2116V35.9174H60.9709L60.8319 35.1071L60.0312 35.2116ZM54.2901 35.8088L57.5029 34.0441L56.64 32.8496L53.4272 34.6143L54.2901 35.8088ZM57.881 33.4468V12.888H56.2619V33.4468H57.881ZM57.4831 12.2802L54.2703 10.6258L53.4471 11.8414L56.6598 13.4958L57.4831 12.2802ZM53.8586 11.9395H58.5893V10.5277H53.8586V11.9395ZM57.7801 11.2536L57.9825 17.4742L59.6009 17.4342L59.3985 11.2136L57.7801 11.2536ZM59.5853 17.5936C60.0641 15.5203 60.7192 13.9975 61.5117 12.9743L60.1699 12.1841C59.2084 13.4256 58.4974 15.1529 57.9981 17.3148L59.5853 17.5936ZM61.5144 12.9708C62.3126 11.9267 63.0825 11.5645 63.8006 11.5645V10.1527C62.3263 10.1527 61.123 10.9376 60.1672 12.1877L61.5144 12.9708ZM63.8006 11.5645C64.5431 11.5645 65.1744 11.733 65.722 12.0592L66.6352 10.8933C65.7999 10.396 64.8458 10.1527 63.8006 10.1527V11.5645ZM65.722 12.0592C66.2859 12.395 66.8713 12.9598 67.4597 13.8055L68.844 13.0734C68.1843 12.125 67.4542 11.381 66.6352 10.8933L65.722 12.0592ZM68.8511 13.7952C69.4118 12.9571 69.9545 12.396 70.4617 12.0612L69.4848 10.9354C68.7441 11.4242 68.0725 12.1572 67.4526 13.0838L68.8511 13.7952ZM70.4726 12.0539C70.9682 11.7151 71.4701 11.5645 71.9971 11.5645V10.1527C71.0736 10.1527 70.2262 10.4285 69.4739 10.9428L70.4726 12.0539ZM71.9971 11.5645C73.3177 11.5645 74.595 12.3273 75.7517 14.3305L77.1978 13.6956C75.9259 11.4929 74.2181 10.1527 71.9971 10.1527V11.5645ZM75.7537 14.334C76.9092 16.3077 77.5119 18.8575 77.5119 22.0204H79.131C79.131 18.7127 78.5026 15.9242 77.1957 13.6921L75.7537 14.334ZM77.5119 22.0204C77.5119 24.2346 77.1597 26.2303 76.4669 28.0146L78.0004 28.4673C78.758 26.5164 79.131 24.365 79.131 22.0204H77.5119ZM76.4657 28.0178C75.7895 29.7866 74.7326 31.4643 73.2859 33.0518L74.5535 33.9301C76.1088 32.2235 77.2611 30.4012 78.0016 28.4642L76.4657 28.0178ZM73.5821 34.1325L77.8827 35.8531L78.5578 34.57L74.2572 32.8494L73.5821 34.1325ZM78.2203 34.5057H71.1622V35.9174H78.2203V34.5057ZM71.7998 35.6466C73.382 33.8837 74.5416 31.9061 75.2782 29.7193L73.7248 29.3215C73.0447 31.3405 71.9782 33.1571 70.5247 34.7765L71.7998 35.6466ZM75.2782 29.7193C76.0138 27.5354 76.3736 24.98 76.3736 22.0645H74.7545C74.7545 24.8843 74.4059 27.2995 73.7248 29.3215L75.2782 29.7193ZM76.3736 22.0645C76.3736 18.5079 76.0637 15.8296 75.3953 14.0968L73.8607 14.5469C74.4403 16.0493 74.7545 18.5328 74.7545 22.0645H76.3736ZM75.3974 14.1023C75.0703 13.2309 74.6232 12.5068 74.0137 11.994C73.3848 11.4648 72.6151 11.1895 71.7441 11.1895V12.6012C72.1885 12.6012 72.5572 12.7303 72.8896 13.0099C73.2415 13.3061 73.5785 13.7952 73.8586 14.5414L75.3974 14.1023ZM71.7441 11.1895C70.9227 11.1895 70.1981 11.4916 69.5881 12.0052L70.7126 13.0208C71.0808 12.7109 71.4187 12.6012 71.7441 12.6012V11.1895ZM69.5779 12.0139C69.0115 12.5078 68.4919 13.2299 68.0023 14.1295L69.465 14.7348C69.9198 13.8991 70.3447 13.3418 70.7228 13.0121L69.5779 12.0139ZM67.9694 14.6647C68.2061 15.2566 68.3892 15.8865 68.517 16.5555L70.114 16.3234C69.972 15.5806 69.7672 14.8724 69.498 14.1996L67.9694 14.6647ZM68.5175 16.5579C68.6441 17.2066 68.7084 17.8948 68.7084 18.6233H70.3274C70.3274 17.8224 70.2567 17.0547 70.1135 16.321L68.5175 16.5579ZM68.7084 18.6233C68.7084 20.5023 68.4226 22.5139 67.8444 24.6604L69.4206 24.9833C70.0229 22.7474 70.3274 20.6266 70.3274 18.6233H68.7084ZM67.8432 24.6648C67.2816 26.811 66.4284 29.0889 65.2793 31.4995L66.7743 32.0413C67.9526 29.5695 68.8365 27.215 69.4217 24.9789L67.8432 24.6648ZM65.6063 32.3735L68.7684 34.05L69.6096 32.8437L66.4474 31.1672L65.6063 32.3735ZM69.1891 32.741H61.5744V34.1527H69.1891V32.741ZM61.9901 34.0526L65.203 32.3761L64.3715 31.1647L61.1588 32.8411L61.9901 34.0526ZM65.562 31.9749C66.2962 29.8608 66.8447 27.8375 67.2053 25.9058L65.6072 25.679C65.2596 27.5414 64.7287 29.5035 64.0125 31.5658L65.562 31.9749ZM67.2044 25.9102C67.582 23.965 67.7724 22.1239 67.7724 20.388H66.1534C66.1534 22.0345 65.9726 23.7962 65.6081 25.6747L67.2044 25.9102ZM67.7724 20.388C67.7724 17.8144 67.4391 15.6785 66.736 14.0119L65.2165 14.4994C65.8288 15.9505 66.1534 17.9028 66.1534 20.388H67.7724ZM66.7368 14.0139C66.39 13.1843 65.974 12.498 65.4601 12.0087C64.9314 11.5054 64.2723 11.1895 63.4971 11.1895V12.6012C63.7169 12.6012 63.9684 12.6787 64.2662 12.9622C64.5786 13.2597 64.9047 13.7535 65.2157 14.4974L66.7368 14.0139ZM63.4971 11.1895C62.5933 11.1895 61.8553 11.6785 61.2709 12.3331C60.6789 12.9961 60.1366 13.9441 59.627 15.1337L61.1439 15.6276C61.6294 14.4937 62.1031 13.699 62.5484 13.2003C63.0012 12.6931 63.3215 12.6012 63.4971 12.6012V11.1895ZM59.627 15.1337C58.592 17.5509 58.0834 20.2988 58.0834 23.3659H59.7024C59.7024 20.4331 60.1889 17.8575 61.1439 15.6276L59.627 15.1337ZM58.0834 23.3659C58.0834 25.0937 58.1772 26.9731 58.3642 29.0033L59.9781 28.8904C59.794 26.8911 59.7024 25.05 59.7024 23.3659H58.0834ZM58.3648 29.0084C58.5687 31.0386 58.8574 33.1411 59.2307 35.316L60.8319 35.1071C60.4631 32.9584 60.1784 30.8845 59.9776 28.8852L58.3648 29.0084ZM60.0312 34.5057H53.8586V35.9174H60.0312V34.5057ZM95.9286 12.1159L96.3674 12.7091L98.6769 11.4101H95.9286V12.1159ZM92.7917 13.8806L92.3529 13.2875L92.0558 13.4547L91.9943 13.7585L92.7917 13.8806ZM88.4907 35.2116V35.9174H89.1707L89.2881 35.3337L88.4907 35.2116ZM83.7097 35.2116L83.3114 34.5969L80.6309 35.9174H83.7097V35.2116ZM87.0238 33.5792L87.4221 34.1938L87.9394 33.9391L87.8156 33.4325L87.0238 33.5792ZM82.0145 13.0204L82.807 12.8737L82.7334 12.5718L82.429 12.4139L82.0145 13.0204ZM78.5744 11.2336V10.5277H75.6332L78.1602 11.8401L78.5744 11.2336ZM84.8478 11.2336L85.6517 11.1482L85.5651 10.5277H84.8478V11.2336ZM87.8585 32.763L87.0554 32.8485L88.6558 32.8864L87.8585 32.763ZM91.7037 13.8806L92.5011 14.0041L92.5982 13.5278L92.1238 13.277L91.7037 13.8806ZM88.3644 12.1159V11.4101H85.4671L87.9451 12.7196L88.3644 12.1159ZM95.4898 11.5228L92.3529 13.2875L93.2305 14.4738L96.3674 12.7091L95.4898 11.5228ZM91.9943 13.7585L87.6941 35.0893L89.2881 35.3337L93.5891 14.0029L91.9943 13.7585ZM88.4907 34.5057H83.7097V35.9174H88.4907V34.5057ZM84.1079 35.8262L87.4221 34.1938L86.6256 32.9646L83.3114 34.5969L84.1079 35.8262ZM87.8156 33.4325L82.807 12.8737L81.2228 13.1671L86.2321 33.7259L87.8156 33.4325ZM82.429 12.4139L78.9887 10.6272L78.1602 11.8401L81.6008 13.6268L82.429 12.4139ZM78.5744 11.9395H84.8478V10.5277H78.5744V11.9395ZM84.0448 11.3191L87.0554 32.8485L88.6623 32.6776L85.6517 11.1482L84.0448 11.3191ZM88.6558 32.8864L92.5011 14.0041L90.9071 13.7573L87.0619 32.6396L88.6558 32.8864ZM92.1238 13.277L88.7846 11.5123L87.9451 12.7196L91.2844 14.4843L92.1238 13.277ZM88.3644 12.8218H95.9286V11.4101H88.3644V12.8218ZM106.275 21.888V22.5939H107.085V21.888H106.275ZM105.364 14.2557L104.6 14.4885L104.601 14.4906L105.364 14.2557ZM100.204 14.4763L100.97 14.7031L100.971 14.7012L100.204 14.4763ZM99.0906 21.888L98.2819 21.8691L98.2592 22.5939H99.0906V21.888ZM109.083 22.7924V23.4983H109.893V22.7924H109.083ZM99.0906 22.7924V22.0865H98.2811V22.7924H99.0906ZM100.052 31.8365L99.2817 32.0529L99.2833 32.058L100.052 31.8365ZM105.972 32.4321L105.251 32.111L105.249 32.1136L105.972 32.4321ZM108.299 25.8586H109.108L107.508 25.708L108.299 25.8586ZM108.299 35.1233L107.515 35.3009L109.108 35.1233H108.299ZM107.312 31.8145L108.096 31.6368L107.482 29.5772L106.563 31.5486L107.312 31.8145ZM98.256 32.3218L97.5274 32.6289L97.529 32.6324L98.256 32.3218ZM107.212 13.9469L106.495 14.2767L106.497 14.2785L107.212 13.9469ZM107.085 21.888V20.388H105.466V21.888H107.085ZM107.085 20.388C107.085 17.7634 106.779 15.6286 106.128 14.0208L104.601 14.4906C105.164 15.8827 105.466 17.8361 105.466 20.388H107.085ZM106.129 14.0227C105.506 12.4692 104.508 11.2777 102.911 11.2777V12.6895C103.371 12.6895 104.008 13.0127 104.6 14.4885L106.129 14.0227ZM102.911 11.2777C101.182 11.2777 100.098 12.5364 99.4363 14.2512L100.971 14.7012C101.591 13.0925 102.312 12.6895 102.911 12.6895V11.2777ZM99.4371 14.2495C98.7563 15.9991 98.3831 18.5556 98.2819 21.8691L99.9001 21.9069C100.001 18.6323 100.37 16.2475 100.97 14.7031L99.4371 14.2495ZM99.0906 22.5939H106.275V21.1821H99.0906V22.5939ZM109.083 22.0865H99.0906V23.4983H109.083V22.0865ZM98.2811 22.7924C98.2811 27.0875 98.5976 30.2019 99.2817 32.0529L100.823 31.6202C100.225 30.0006 99.9001 27.0856 99.9001 22.7924H98.2811ZM99.2833 32.058C99.6387 32.9959 100.138 33.7687 100.824 34.3114C101.526 34.8678 102.381 35.1453 103.341 35.1453V33.7336C102.767 33.7336 102.305 33.5774 101.912 33.2661C101.501 32.9411 101.123 32.4125 100.821 31.615L99.2833 32.058ZM103.341 35.1453C104.807 35.1453 105.889 34.1397 106.694 32.7506L105.249 32.1136C104.503 33.4011 103.831 33.7336 103.341 33.7336V35.1453ZM106.693 32.7533C107.535 31.3154 108.328 29.0498 109.09 26.0093L107.508 25.708C106.752 28.7262 105.993 30.843 105.251 32.111L106.693 32.7533ZM107.489 25.8586V35.1233H109.108V25.8586H107.489ZM109.083 34.9457L108.096 31.6368L106.529 31.9921L107.515 35.3009L109.083 34.9457ZM106.563 31.5486C105.954 32.854 105.352 33.7264 104.785 34.2333L105.944 35.2192C106.726 34.5201 107.423 33.4514 108.063 32.0803L106.563 31.5486ZM104.785 34.2333C104.26 34.7028 103.711 34.9027 103.113 34.9027V36.3145C104.201 36.3145 105.154 35.9261 105.944 35.2192L104.785 34.2333ZM103.113 34.9027C101.535 34.9027 100.14 34.0706 98.9829 32.0113L97.529 32.6324C98.834 34.9554 100.678 36.3145 103.113 36.3145V34.9027ZM98.9846 32.0147C97.8439 29.9563 97.2441 27.1262 97.2441 23.4763H95.625C95.625 27.238 96.2395 30.3051 97.5274 32.6289L98.9846 32.0147ZM97.2441 23.4763C97.2441 19.8943 97.8666 16.9893 99.0663 14.7287L97.597 14.1356C96.2678 16.6397 95.625 19.7642 95.625 23.4763H97.2441ZM99.0663 14.7287C100.296 12.4123 101.618 11.5645 102.911 11.5645V10.1527C100.628 10.1527 98.8971 11.6872 97.597 14.1356L99.0663 14.7287ZM102.911 11.5645C104.068 11.5645 105.292 12.2899 106.495 14.2767L107.927 13.617C106.635 11.4861 104.991 10.1527 102.911 10.1527V11.5645ZM106.497 14.2785C107.669 16.1985 108.274 18.5421 108.274 21.3365H109.893C109.893 18.3663 109.249 15.7833 107.926 13.6152L106.497 14.2785ZM108.274 21.3365V22.7924H109.893V21.3365H108.274ZM121.1 21.888V22.5939H121.909V21.888H121.1ZM120.189 14.2557L119.425 14.4885L119.426 14.4906L120.189 14.2557ZM115.029 14.4763L115.795 14.7031L115.796 14.7012L115.029 14.4763ZM113.915 21.888L113.106 21.8691L113.084 22.5939H113.915V21.888ZM123.907 22.7924V23.4983H124.717V22.7924H123.907ZM113.915 22.7924V22.0865H113.106V22.7924H113.915ZM114.876 31.8365L114.106 32.0529L114.108 32.058L114.876 31.8365ZM120.796 32.4321L120.075 32.111L120.073 32.1136L120.796 32.4321ZM123.124 25.8586H123.933L122.333 25.708L123.124 25.8586ZM123.124 35.1233L122.34 35.3009L123.933 35.1233H123.124ZM122.137 31.8145L122.921 31.6368L122.306 29.5772L121.387 31.5486L122.137 31.8145ZM113.081 32.3218L112.351 32.6289L112.353 32.6324L113.081 32.3218ZM122.036 13.9469L121.32 14.2767L121.321 14.2785L122.036 13.9469ZM121.909 21.888V20.388H120.29V21.888H121.909ZM121.909 20.388C121.909 17.7634 121.603 15.6286 120.953 14.0208L119.426 14.4906C119.989 15.8827 120.29 17.8361 120.29 20.388H121.909ZM120.953 14.0227C120.331 12.4692 119.332 11.2777 117.736 11.2777V12.6895C118.195 12.6895 118.833 13.0127 119.425 14.4885L120.953 14.0227ZM117.736 11.2777C116.006 11.2777 114.922 12.5364 114.261 14.2512L115.796 14.7012C116.416 13.0925 117.137 12.6895 117.736 12.6895V11.2777ZM114.262 14.2495C113.581 15.9991 113.208 18.5556 113.106 21.8691L114.724 21.9069C114.825 18.6323 115.194 16.2475 115.795 14.7031L114.262 14.2495ZM113.915 22.5939H121.1V21.1821H113.915V22.5939ZM123.907 22.0865H113.915V23.4983H123.907V22.0865ZM113.106 22.7924C113.106 27.0875 113.422 30.2019 114.106 32.0529L115.647 31.6202C115.049 30.0006 114.725 27.0856 114.725 22.7924H113.106ZM114.108 32.058C114.463 32.9959 114.962 33.7687 115.648 34.3114C116.351 34.8678 117.205 35.1453 118.165 35.1453V33.7336C117.591 33.7336 117.129 33.5774 116.736 33.2661C116.325 32.9411 115.947 32.4125 115.645 31.615L114.108 32.058ZM118.165 35.1453C119.631 35.1453 120.713 34.1397 121.518 32.7506L120.073 32.1136C119.327 33.4011 118.656 33.7336 118.165 33.7336V35.1453ZM121.517 32.7533C122.36 31.3154 123.153 29.0498 123.915 26.0093L122.333 25.708C121.577 28.7262 120.818 30.843 120.075 32.111L121.517 32.7533ZM122.314 25.8586V35.1233H123.933V25.8586H122.314ZM123.907 34.9457L122.921 31.6368L121.353 31.9921L122.34 35.3009L123.907 34.9457ZM121.387 31.5486C120.779 32.854 120.177 33.7264 119.61 34.2333L120.769 35.2192C121.551 34.5201 122.248 33.4514 122.887 32.0803L121.387 31.5486ZM119.61 34.2333C119.084 34.7028 118.536 34.9027 117.938 34.9027V36.3145C119.026 36.3145 119.978 35.9261 120.769 35.2192L119.61 34.2333ZM117.938 34.9027C116.359 34.9027 114.965 34.0706 113.808 32.0113L112.353 32.6324C113.659 34.9554 115.502 36.3145 117.938 36.3145V34.9027ZM113.809 32.0147C112.669 29.9563 112.069 27.1262 112.069 23.4763H110.45C110.45 27.238 111.063 30.3051 112.351 32.6289L113.809 32.0147ZM112.069 23.4763C112.069 19.8943 112.691 16.9893 113.891 14.7287L112.422 14.1356C111.092 16.6397 110.45 19.7642 110.45 23.4763H112.069ZM113.891 14.7287C115.121 12.4123 116.443 11.5645 117.736 11.5645V10.1527C115.452 10.1527 113.722 11.6872 112.422 14.1356L113.891 14.7287ZM117.736 11.5645C118.892 11.5645 120.116 12.2899 121.32 14.2767L122.751 13.617C121.459 11.4861 119.816 10.1527 117.736 10.1527V11.5645ZM121.321 14.2785C122.493 16.1985 123.098 18.5421 123.098 21.3365H124.717C124.717 18.3663 124.074 15.7833 122.751 13.6152L121.321 14.2785ZM123.098 21.3365V22.7924H124.717V21.3365H123.098ZM125.426 35.2116L124.984 34.6198L122.696 35.9174H125.426V35.2116ZM128.537 33.4468L128.978 34.0386L129.347 33.8298V33.4468H128.537ZM128.537 3.57919H129.347V3.18331L128.96 2.97688L128.537 3.57919ZM124.894 1.63801V0.932134H122.017L124.472 2.24034L124.894 1.63801ZM131.32 1.63801L132.129 1.66785L132.165 0.932134H131.32V1.63801ZM129.776 33.4468L128.968 33.417L128.948 33.8226L129.34 34.0414L129.776 33.4468ZM132.939 35.2116V35.9174H135.705L133.376 34.617L132.939 35.2116ZM125.867 35.8033L128.978 34.0386L128.096 32.8551L124.984 34.6198L125.867 35.8033ZM129.347 33.4468V3.57919H127.728V33.4468H129.347ZM128.96 2.97688L125.317 1.0357L124.472 2.24034L128.115 4.18151L128.96 2.97688ZM124.894 2.3439H131.32V0.932134H124.894V2.3439ZM130.511 1.60818L128.968 33.417L130.586 33.4766L132.129 1.66785L130.511 1.60818ZM129.34 34.0414L132.503 35.8061L133.376 34.617L130.214 32.8523L129.34 34.0414ZM132.939 34.5057H125.426V35.9174H132.939V34.5057Z" fill="#87A8FF"/>
</g>
</g>
<defs>
<filter id="filter0_i_1022_435" x="1.41675" y="1.06448" width="131.522" height="38.5441" filterUnits="userSpaceOnUse" color-interpolation-filters="sRGB">
<feFlood flood-opacity="0" result="BackgroundImageFix"/>
<feBlend mode="normal" in="SourceGraphic" in2="BackgroundImageFix" result="shape"/>
<feColorMatrix in="SourceAlpha" type="matrix" values="0 0 0 0 0 0 0 0 0 0 0 0 0 0 0 0 0 0 127 0" result="hardAlpha"/>
<feOffset dy="4"/>
<feGaussianBlur stdDeviation="2"/>
<feComposite in2="hardAlpha" operator="arithmetic" k2="-1" k3="1"/>
<feColorMatrix type="matrix" values="0 0 0 0 0 0 0 0 0 0 0 0 0 0 0 0 0 0 0.25 0"/>
<feBlend mode="normal" in2="shape" result="effect1_innerShadow_1022_435"/>
</filter>
<clipPath id="clip0_1022_435">
<rect width="136" height="36" fill="white" transform="translate(0 0.5)"/>
</clipPath>
</defs>
</svg>
