<svg width="1875" height="325" viewBox="0 0 1875 325" fill="none" xmlns="http://www.w3.org/2000/svg">
<path d="M16.5726 183.183C14.7556 183.466 13.0154 182.74 11.5822 181.914C12.1708 180.927 13.1177 179.376 13.9367 178.388C15.293 176.797 17.9289 175.85 18.799 174.037C17.7754 172.848 -5.4105 171.196 2.3949 165.776C3.93039 164.708 6.00329 164.285 7.61556 163.056C9.02309 161.968 10.1747 160.921 11.7358 159.994C15.7792 157.576 20.744 156.73 25.1713 154.937C23.2775 155.259 18.364 154.494 17.7242 153.023C16.7773 150.787 21.7165 149.759 17.1612 148.893C12.2476 147.966 2.59963 150.102 0.0148926 145.206C3.21383 143.332 6.77104 141.781 10.4818 140.612C13.6296 139.625 16.1375 138.275 19.1573 137.086C23.124 135.535 25.7855 135.092 27.6025 131.707C29.1124 128.886 31.6204 127.275 30.4687 124.091C24.2756 125.925 17.0844 128.101 10.3027 126.57C10.3794 125.22 15.8304 123.95 17.11 123.386C20.053 122.077 22.1515 120.364 24.5571 118.49C28.447 115.448 34.9728 110.693 33.0279 105.798C32.2857 105.677 31.5436 105.556 30.8014 105.455C30.3408 103.783 33.5141 103.44 33.1303 101.748C30.2896 101.184 27.2186 102.01 24.378 101.446C24.1221 99.4311 28.575 97.3156 30.2384 95.9657C35.4591 91.7147 39.349 86.3555 43.4692 81.4395C46.5658 81.8223 45.8236 82.1245 48.6387 83.9982C49.7135 84.7034 49.995 86.557 50.558 87.5442C51.812 89.7805 53.5522 91.2915 55.6252 93.0444C59.4127 96.2679 61.6903 99.008 66.2712 101.406C69.3166 102.997 69.4957 103.058 66.5271 104.851C65.2476 105.616 64.1215 106.805 62.7396 107.45C60.9226 108.296 59.0032 108.115 57.1351 108.638C53.0148 109.787 55.9579 110.955 58.8497 111.963C60.3852 112.487 65.2476 112.366 65.4267 113.675C65.5802 114.743 60.1548 116.617 59.3103 118.027C60.5131 118.853 62.5349 119.055 63.968 119.719C65.785 120.525 67.0645 121.331 69.1119 121.795C70.5706 122.117 71.6966 121.714 72.6691 122.983C73.5136 124.091 72.9762 125.844 72.362 126.811C71.7478 127.738 70.2635 128.846 69.1119 129.35C67.9603 129.874 65.4011 129.894 64.6078 130.78C62.4837 133.138 69.5725 132.312 70.2379 134.568C67.7299 135.737 65.5802 137.127 62.6884 137.651C60.6923 138.013 58.2099 137.671 57.6981 139.645C61.6647 141.68 66.3736 142.566 70.8777 143.433C73.36 143.916 79.7067 143.171 80.6792 144.863C81.8052 146.818 80.4745 150.404 79.0414 151.935C77.7106 153.365 76.1239 154.635 74.179 155.561C73.0529 156.085 71.6966 156.166 70.8265 157.093C73.2065 156.972 78.7854 156.126 80.756 156.972C83.1104 157.979 81.5493 161.424 80.628 163.177C79.4508 165.434 76.2775 167.348 74.179 169.141C73.36 169.826 72.5155 171.095 71.6454 171.619C70.7497 172.163 69.419 172.062 69.1886 172.949C71.4919 173.533 77.3779 172.102 78.376 174.117C76.9429 177.381 67.9858 180.746 63.968 180.222L16.5726 183.183Z" fill="#0A2F44"/>
<path d="M154.076 12.1031C154.229 11.7839 154.332 11.4247 154.485 11.1255C153.871 11.305 153.82 11.6642 154.076 12.1031Z" fill="#0A2F44"/>
<path d="M187.575 151.028C189.545 149.195 189.827 147.301 192.181 146.374C194.126 145.609 197.94 146.556 199.987 146.535C207.69 146.415 228.342 142.828 227.395 130.317C225.834 129.229 222.661 127.476 220.869 127.275C216.391 126.751 214.42 132.13 210.761 132.996C207.434 133.782 206.922 131.042 204.261 129.652C200.755 127.819 196.762 129.088 193.154 127.275C186.986 124.152 182.533 118.007 177.85 112.628C175.368 109.787 172.809 108.054 169.84 105.939C167.844 104.508 164.568 103.501 163.852 100.62C164.952 99.4714 168.253 101.305 169.635 101.547C174.549 102.453 179.642 101.808 184.581 101.869C191.107 101.97 199.629 100.862 204.235 94.6158C200.857 93.3667 196.583 94.6763 193 94.5353C189.75 94.3943 185.579 93.669 182.789 91.5736C181.024 90.2641 180.051 87.8867 178.336 86.5167C175.137 83.9579 170.94 83.4341 168.023 80.2307C166.36 78.3973 165.336 75.8587 163.749 73.8641C162.521 72.333 160.96 71.1442 159.962 69.3713C163.365 67.5782 167.383 70.2175 171.12 67.6991C173.756 65.9261 176.571 62.1989 177.569 58.8745C175.24 58.8141 173.295 60.6475 170.94 59.8819C169.431 56.9606 170.377 53.0319 168.688 50.2717C167.639 48.539 166.129 48.4785 164.747 47.4107C161.983 45.2953 160.857 42.3941 158.733 39.6339C161.728 38.1833 164.927 38.7877 167.025 35.2619C163.186 32.26 159.476 27.8276 159.45 22.005C159.45 21.1387 160.115 19.3254 159.911 18.5598C159.322 16.2227 154.971 13.5834 154.101 12.1127C152.438 15.7593 151.645 20.635 150.032 24.3219C147.831 29.3789 146.654 32.4212 142.943 36.1081C141.945 37.1155 138.823 39.1302 139.002 40.9032C139.284 43.744 146.066 42.3941 147.703 42.253C145.042 44.5498 145.554 49.1636 143.02 51.9238C140.231 54.9459 136.494 55.4294 132.886 56.0137C132.912 60.0633 138.235 60.8692 140.538 61.6751C142.201 62.2593 142.329 63.2666 144.3 63.2666C146.04 63.2666 146.526 62.4809 147.908 61.8966C148.599 63.307 147.14 66.2888 146.577 67.6588C145.682 69.8549 144.249 71.6278 143.02 73.6022C142.073 75.1133 141.28 77.3899 140.359 78.639C138.618 81.0366 137.211 80.6135 134.703 80.9963C132.579 81.3187 131.632 82.4872 129.917 83.6759C128.689 84.5422 126.463 84.7034 125.439 85.751C123.264 87.9672 122.931 90.0424 120.013 91.4729C117.403 92.7421 115.535 92.9638 112.694 92.9235C110.238 92.9033 100.41 91.2714 100.82 95.1397C101.025 97.0335 105.17 99.5519 106.527 100.418C108.83 101.849 111.082 101.889 113.616 101.849C115.612 101.829 119.374 102.755 121.037 101.607C122.01 100.942 121.651 99.3707 123.187 99.0684C124.415 98.8267 125.157 100.217 126.104 100.781C129.994 103.158 135.547 101.849 139.591 98.7461C138.644 100.318 137.902 102.111 136.674 103.461C134.473 105.878 132.477 108.336 130.276 110.855C127.768 113.716 124.21 118.531 120.679 119.599C116.84 120.767 112.234 118.45 108.446 119.639C104.377 120.928 102.074 126.086 98.2863 128.262C96.1622 129.491 94.1917 130.196 91.8885 130.881C89.5852 131.566 86.9493 131.163 84.7996 132.291C80.6794 134.487 80.9609 140.088 85.4394 141.72C86.5398 142.123 87.5123 141.821 88.5616 142.163C89.3805 142.425 89.6108 143.332 90.5321 143.594C92.7842 144.198 94.0381 143.251 96.0343 144.561C98.6958 146.294 99.1564 148.329 102.842 148.006C105.401 147.785 107.934 146.697 109.905 144.763C111.543 143.171 112.669 139.544 114.793 139.041C114.895 143.03 111.338 147.301 116.098 149.175C118.478 150.122 121.267 149.558 123.647 148.792C125.26 148.268 127.333 146.294 128.996 146.656C130.557 146.999 131.376 150.001 132.988 150.746C136.238 152.257 139.181 150.807 141.843 149.457C144.044 148.329 143.046 148.631 145.554 149.175C148.139 149.739 149.674 147.946 152.054 148.167C151.875 151.23 144.018 153.708 142.048 155.038C138.107 157.677 134.396 160.88 130.224 162.996C126.693 164.769 122.803 165.615 118.99 165.897C115.509 166.159 112.182 167.186 108.728 167.428C105.887 167.63 99.2332 167.348 97.1859 170.632C92.5794 178.006 109.342 177.804 111.671 177.784C114.051 177.744 116.507 177.421 118.836 178.026C121.012 179.073 123.264 179.899 125.567 180.484C128.715 180.907 131.862 180.987 135.036 180.766C146.168 180.645 157.3 180.746 168.433 180.746C173.372 180.746 178.797 181.552 183.659 180.605C189.571 179.436 194.51 174.943 200.32 173.21C205.412 171.679 210.786 171.74 215.546 168.859C217.235 167.831 220.281 166.36 221.202 164.769C215.905 161.727 210.249 163.117 204.721 164.064C201.164 164.668 194.152 165.897 191.03 163.58C187.703 161.122 186.193 158.08 181.97 157.052C178.746 156.267 176.596 156.75 174.267 153.889C178.72 154.091 183.736 154.574 187.575 151.028Z" fill="#0A2F44"/>
<path d="M1867.71 299.212C1864.17 301.327 1856.91 300.562 1852.68 300.461C1849.43 300.4 1846.82 299.494 1843.85 298.527C1840.22 297.318 1836.59 296.25 1833 294.961C1828.04 293.188 1823.23 292.422 1818.75 289.702C1817.06 288.675 1815.19 285.935 1812.84 286.096C1814.19 287.264 1817.5 289.36 1817.27 291.052C1815.29 291.515 1812.79 290.992 1810.89 290.569C1808.44 290.025 1804.78 287.849 1802.29 288.01C1802.29 289.239 1805.29 292.221 1803.86 293.49C1803.19 294.074 1799.99 294.235 1799.2 294.256C1797.07 294.356 1794.92 294.074 1792.85 293.792C1788.96 293.248 1784.23 292.684 1780.82 290.992C1778.88 290.025 1776.96 288.735 1774.89 288.09C1774.66 288.453 1774.6 288.856 1774.73 289.259L1775.73 289.964C1775.09 289.803 1774.53 289.682 1774.12 289.601C1773.04 289.38 1772.25 289.219 1771.38 288.816C1770.84 288.574 1770.89 288.171 1770.18 288.09C1768.69 291.254 1771.97 294.92 1773.17 297.781C1773.32 298.144 1773.48 298.507 1773.58 298.889C1775.37 303.705 1775.55 309.023 1775.53 313.98C1775.5 317.344 1775.45 320.749 1775.53 324.114H1754.95C1755 323.469 1755.05 322.824 1755.05 322.2C1755.05 318.029 1755.21 313.819 1755.08 309.648C1754.98 306.848 1754.23 304.087 1753.82 301.307C1753.67 300.179 1753.57 299.051 1753.52 297.922C1753.47 296.472 1753.47 295.021 1753.47 293.55C1753.47 291.233 1753.82 288.614 1753.47 286.338C1751.32 287.244 1749.17 288.191 1746.84 288.735C1744.38 289.299 1741.97 288.916 1739.85 290.025C1736.83 291.576 1734.58 293.631 1730.69 293.651C1730.23 293.651 1729.41 293.732 1728.97 293.51C1728.16 293.047 1728.72 292.422 1728.18 292.08C1726.95 291.254 1726.11 292.362 1724.83 292.946C1723.29 293.651 1721.53 294.175 1719.97 294.86C1718.56 295.464 1717.25 296.25 1715.56 296.169C1714.11 296.089 1712.83 295.142 1711.32 295.464C1710.91 295.545 1710.5 295.726 1710.06 295.968C1710.06 295.968 1710.06 295.968 1710.04 295.968C1709.99 295.988 1709.96 296.008 1709.91 296.049C1708.25 296.975 1706.43 298.688 1705.23 299.494C1703.18 300.844 1701.05 302.596 1698.42 303.302C1697.73 301.891 1700.52 300.441 1699.83 298.607C1697.29 298.265 1694.4 300.34 1692.15 300.985C1690.72 301.408 1689.51 301.549 1688.1 301.085C1687.47 300.884 1687.03 300.441 1686.34 300.36C1684.55 300.118 1682.17 301.71 1680.61 302.214C1677.23 303.281 1670.65 306.001 1666.84 304.672C1666.68 303.886 1666.94 303.14 1666.79 302.355C1662.1 302.173 1657.06 305.357 1652.51 303.584C1650.23 302.677 1647.82 300.844 1651.05 299.554C1654.45 298.164 1658.93 297.781 1662.69 297.157C1667.55 296.371 1672.34 295.384 1677.25 294.679C1677.28 294.679 1677.28 294.658 1677.31 294.679C1677.46 294.638 1677.61 294.618 1677.77 294.598C1683.47 293.792 1689.54 292.865 1694.84 290.971C1699.77 289.199 1705.97 287.949 1710.27 285.371C1711.5 284.625 1712.52 283.739 1713.85 283.033C1715.44 282.207 1716.92 281.905 1718.64 281.24C1718.94 281.119 1719.48 280.837 1720.15 280.434C1722.65 278.923 1726.85 275.841 1726.65 274.551C1725.42 275.337 1724.34 275.498 1723.22 275.518C1722.37 275.559 1721.48 275.498 1720.43 275.579C1718.25 275.76 1716.33 276.526 1714.44 277.352C1713.31 277.856 1711.5 278.722 1710.22 277.976C1709.63 277.634 1709.68 276.828 1709.29 276.586C1708.25 275.921 1707.63 276.365 1706.12 276.808C1702.38 277.936 1696.88 280.314 1692.84 279.246C1691.64 275.962 1697.68 275.539 1700.29 275.015C1704.61 274.108 1708.6 272.517 1712.7 271.126C1718.46 269.172 1723.34 265.928 1729.33 264.377C1729.44 264.357 1729.54 264.337 1729.64 264.296C1731.74 263.793 1733.91 263.47 1735.96 262.846C1740.72 261.375 1748.4 257.305 1748.73 252.692C1748.53 253.518 1747.63 253.84 1746.33 253.9C1743.25 254.042 1741.03 254.364 1738.52 255.895C1736.78 256.943 1734.4 258.756 1731.99 259.602C1730.89 260.005 1729.79 260.207 1728.77 260.045C1726.11 259.622 1726.24 257.89 1724.91 256.459C1721.3 257.668 1716.92 259.602 1712.83 260.066C1711.27 260.227 1709.37 260.166 1708.63 258.917C1708.04 257.95 1709.17 256.62 1708.45 255.714C1707.45 254.485 1706.07 255.331 1704.94 255.855C1702.97 256.781 1700.75 257.829 1698.44 258.172C1696.83 258.393 1694.71 258.716 1693.68 257.567C1692.86 256.6 1694.04 255.009 1693.5 253.941C1691.87 253.759 1689.77 255.351 1688.28 255.814C1686.59 256.338 1684.42 256.761 1682.63 256.318C1682.19 254.988 1682.65 253.437 1682.6 252.067C1677.92 252.349 1673.59 255.069 1668.86 255.694C1668.68 255.734 1661.39 256.62 1662.16 254.666C1662.41 254.001 1665.53 252.792 1666.35 252.309C1669.53 250.395 1672.29 249.307 1676.33 248.944C1681.12 248.501 1685.78 247.836 1690.59 247.574C1695.58 247.272 1699.8 246.124 1704.59 245.338C1708.3 244.754 1712.06 244.774 1715.64 243.726C1718.94 242.739 1722.06 241.409 1725.26 240.261C1728.18 239.233 1731.56 238.508 1734.12 237.037C1736.55 235.647 1738.93 235.224 1741.59 234.317C1742.13 234.136 1742.72 233.914 1743.31 233.632C1747.27 231.9 1751.88 228.636 1752.54 225.332C1753 223.055 1750.47 224.546 1748.91 225.17C1748.17 225.473 1747.4 225.755 1746.63 225.996C1742.44 227.487 1738.09 228.656 1733.94 230.268C1731.35 231.255 1727.75 232.444 1724.98 231.114C1724.19 230.731 1723.81 229.986 1722.93 229.784C1721.25 232.444 1716.95 234.015 1713.31 234.096C1709.65 234.176 1710.75 233.108 1710.01 231.013C1709.14 231.094 1708.83 231.436 1708.12 231.839C1706.58 232.665 1704.76 233.31 1703.08 233.934C1700.57 234.861 1697.29 235.768 1694.45 235.345C1693.07 235.143 1692.25 234.7 1690.84 234.68C1689.72 234.66 1688.57 234.821 1687.52 234.579C1689 232.746 1691.61 231.497 1686.98 232.162C1683.52 232.665 1679.35 233.129 1675.44 233.048C1673.85 233.048 1672.31 232.927 1670.86 232.705C1670.4 232 1673.88 230.348 1674.72 230.066C1675.77 229.683 1677.05 229.482 1678.35 229.341C1680.45 229.139 1682.68 229.119 1684.5 228.938C1686.52 228.757 1688.59 228.656 1690.59 228.374C1693.04 228.031 1695.24 227.145 1697.62 226.581C1699.44 226.137 1701.26 225.855 1703.05 225.332C1704.87 224.767 1706.53 223.962 1708.37 223.458C1711.44 222.632 1714.62 222.209 1717.66 221.302C1721.96 220.013 1726.39 218.099 1730.15 216.044C1733.15 214.412 1737.04 212.699 1739.29 210.382C1740.36 209.294 1742.95 207.078 1742.36 205.587C1740.49 205.366 1737.75 208.347 1736.17 207.078C1735.37 206.454 1736.34 203.573 1736.11 202.585C1732.51 204.56 1728.59 206.433 1724.34 204.781C1723.93 202.706 1729.77 201.296 1731.48 200.792C1735.73 199.563 1739.62 197.79 1743.23 195.574C1743.51 195.393 1743.79 195.232 1744.05 195.09C1746.45 193.64 1748.68 192.391 1749.7 190.054C1749.75 189.933 1749.81 189.812 1749.91 189.691C1750.8 188.019 1752.72 186.87 1754 185.42V185.4L1754.03 185.379C1754.11 185.299 1754.16 185.259 1754.21 185.178V185.158C1754.57 184.755 1754.85 184.312 1755.05 183.828C1755.15 183.506 1755.15 183.183 1755 182.901C1754.98 182.861 1754.95 182.801 1754.92 182.76C1753.67 183.506 1753.18 184.332 1751.62 184.956C1751.57 184.977 1751.5 184.997 1751.42 185.017H1751.39C1751.03 185.158 1750.5 185.339 1749.88 185.5C1749.4 185.581 1748.91 185.682 1748.42 185.823C1748.37 185.843 1748.35 185.843 1748.3 185.843C1747.55 185.984 1746.89 186.024 1746.53 185.883C1745.46 185.5 1745.33 184.755 1745.46 183.909C1745.63 182.639 1746.4 181.169 1745.46 180.403C1745.43 180.363 1745.38 180.343 1745.35 180.322C1743.74 181.551 1741.18 184.372 1738.49 183.949C1738.21 183.909 1737.93 183.828 1737.65 183.707C1737.42 181.834 1739.03 179.315 1740.54 177.26C1741.08 176.515 1741.59 175.85 1742.03 175.286C1741.36 175.548 1740.36 176.051 1739.16 176.696C1738.44 177.059 1737.68 177.482 1736.83 177.925V177.945C1735.91 178.429 1734.91 178.973 1733.89 179.537C1732.97 180.04 1732.02 180.544 1731.05 181.068C1730.77 181.229 1730.46 181.37 1730.18 181.531C1728.74 182.277 1727.31 183.042 1725.9 183.727C1724.52 184.412 1723.22 185.037 1721.99 185.581C1721.71 185.682 1721.45 185.803 1721.19 185.903C1719.99 186.407 1718.87 186.81 1717.94 187.052C1716.38 187.495 1715.26 187.495 1714.9 186.85C1714.64 186.407 1714.85 185.702 1715.08 185.037C1715.1 184.977 1715.13 184.916 1715.16 184.856C1715.59 183.748 1716 182.801 1714.36 183.365C1714.03 183.465 1713.65 183.627 1713.13 183.868C1712.88 183.989 1712.65 184.11 1712.39 184.231H1712.37C1712.19 184.352 1711.98 184.453 1711.78 184.553C1710.55 185.198 1709.22 185.923 1707.81 186.588C1707.53 186.709 1707.25 186.83 1706.94 186.951C1706.66 187.092 1706.35 187.213 1706.07 187.314C1703.82 188.18 1701.44 188.663 1699.11 188.119C1698.9 187.253 1699.19 186.387 1699.19 185.541C1699.19 185.379 1699.16 185.238 1699.13 185.077C1698.65 185.057 1698.16 185.077 1697.7 185.158C1697.47 185.198 1697.27 185.238 1697.06 185.279C1694.17 185.883 1691.3 187.636 1688.28 186.83C1688.9 186.206 1689.69 185.742 1690.31 185.118C1687.39 183.727 1677.87 190.154 1675.49 186.83C1674.69 185.722 1675.18 184.755 1676.13 183.949L1676.15 183.929C1676.23 183.868 1676.31 183.788 1676.41 183.727C1677.46 182.962 1678.87 182.357 1679.74 181.954C1680.3 181.692 1680.86 181.451 1681.45 181.229C1682.53 180.826 1683.65 180.484 1684.78 180.181C1687.29 179.537 1689.92 179.134 1692.58 178.811C1694.27 178.61 1695.99 178.429 1697.7 178.247C1698.06 178.207 1698.39 178.187 1698.75 178.147H1698.78C1699.03 178.106 1699.26 178.086 1699.49 178.066C1701.36 177.865 1703.18 177.623 1704.97 177.321C1705.12 177.3 1705.25 177.28 1705.38 177.24C1705.48 177.24 1705.58 177.22 1705.69 177.2C1706.48 177.038 1707.27 176.877 1708.04 176.696C1708.48 176.595 1708.91 176.474 1709.35 176.353C1709.37 176.353 1709.37 176.353 1709.37 176.353C1710.22 176.132 1711.06 175.87 1711.88 175.588C1711.91 175.588 1711.91 175.588 1711.91 175.588C1712.75 175.306 1713.57 175.024 1714.39 174.681C1719.12 172.868 1723.5 170.41 1727.67 167.791C1728.39 167.368 1729.1 166.904 1729.79 166.461C1730.59 165.957 1731.35 165.454 1732.15 164.95C1733.09 164.326 1734.07 163.701 1735.01 163.117C1735.04 163.097 1735.04 163.097 1735.07 163.076C1735.22 162.956 1735.4 162.855 1735.55 162.754C1736.68 162.049 1737.62 161.303 1738.52 160.538V160.518L1738.55 160.498C1739.47 159.732 1740.29 158.926 1741.16 158.04C1741.67 157.516 1744.05 155.682 1743.36 154.574C1743.08 154.091 1742.69 153.95 1742.31 154.01C1741.54 154.111 1740.67 154.937 1740 155.239C1738.57 155.904 1737.11 156.307 1735.4 155.823V155.138C1735.4 154.776 1735.4 154.413 1735.27 154.091C1733.61 153.909 1731.82 155.199 1730.23 155.561C1728.64 155.924 1726.75 156.246 1725.11 155.803C1724.75 154.071 1729.72 151.915 1732.66 150.847H1732.69C1732.86 150.766 1733.02 150.706 1733.17 150.646C1733.71 150.464 1734.14 150.323 1734.43 150.243C1736.32 149.678 1738.39 149.658 1740.34 149.316C1741.28 149.155 1742.18 148.913 1743.05 148.49C1746.17 146.979 1748.88 145.327 1750.78 142.848C1751.75 141.539 1755.13 138.819 1755.72 136.724V136.704C1755.85 136.301 1755.87 135.958 1755.74 135.616C1752.21 137.187 1749.73 141.337 1744.64 140.552C1741.9 140.108 1742.46 137.389 1740.41 136.683C1738.44 136.019 1736.4 138.879 1734.45 138.033C1733.15 137.449 1733.58 136.563 1734.25 135.656C1734.83 134.769 1735.65 133.863 1735.27 133.158C1734.07 133.581 1732.86 133.984 1731.69 134.387C1730.66 134.729 1729.64 135.092 1728.62 135.475C1728.44 135.535 1728.26 135.616 1728.08 135.696H1728.05C1727.21 136.019 1726.36 136.341 1725.49 136.542C1724.37 136.824 1723.22 136.905 1721.96 136.603C1721.91 136.321 1721.96 136.019 1722.12 135.696C1723.14 133.218 1729.08 130.015 1731.51 129.793C1732.79 129.672 1733.58 130.176 1734.73 130.357C1736.22 130.599 1737.11 130.337 1738.47 129.894C1742.05 128.725 1745.53 126.449 1747.91 124.071C1749.75 122.218 1751.16 120.102 1752.93 118.208C1753.9 117.181 1754.9 116.335 1754.16 114.965C1752.65 115.065 1751.7 116.597 1750.78 117.402C1748.88 119.055 1746.86 120.606 1744.66 121.976C1741.31 124.051 1736.78 126.57 1732.25 125.461C1731.61 123.89 1733.56 122.399 1732.89 120.787C1732.89 120.727 1732.86 120.646 1732.81 120.586C1732.12 120.727 1731.2 121.593 1730.36 122.419C1730.36 122.439 1730.33 122.459 1730.31 122.48C1729.82 122.983 1729.36 123.447 1729.03 123.709C1727.69 124.756 1726.49 125.824 1724.98 126.388C1724.98 126.388 1724.96 126.388 1724.96 126.408L1724.93 126.428L1724.91 126.449L1724.88 126.469H1724.85C1723.96 126.751 1723.09 126.912 1721.91 126.771C1721.71 126.751 1721.53 126.731 1721.35 126.69C1719.66 126.388 1719.02 125.663 1718.81 124.696C1718.61 123.91 1718.74 122.983 1718.87 122.016C1716.64 123.991 1711.8 125.784 1708.55 126.126C1705.23 126.469 1706.63 125.079 1706.12 123.265C1705.69 123.406 1705.25 123.507 1704.79 123.568H1704.76C1704.02 123.688 1703.26 123.709 1702.49 123.709C1701.64 123.709 1700.8 123.648 1699.98 123.648C1697.14 123.648 1693.99 124.011 1691.2 123.568C1690.61 121.432 1692.79 120.686 1695.07 120.082C1699.39 118.974 1703.66 117.685 1708.22 117.443C1714.16 117.1 1719.79 115.267 1725.44 113.756C1726.9 113.333 1728.39 112.97 1729.87 112.648C1731.1 112.386 1732.28 111.943 1733.58 111.842C1734.66 111.761 1735.76 112.084 1736.83 111.801C1738.44 111.399 1740 110.351 1741.51 109.706C1743.61 108.8 1745.76 108.054 1747.89 107.168C1750.88 105.939 1755.62 104.186 1754.18 100.741C1752.42 100.942 1751.47 101.97 1749.52 101.949C1747.71 101.929 1747.07 101.446 1746.15 100.156C1743.82 101.023 1742.26 101.929 1739.34 101.99C1738.01 102.01 1735.19 101.889 1734.55 100.882C1738.37 99.3908 1742.31 98.1417 1746.07 96.6105C1749.22 95.321 1750.75 93.951 1753.08 91.7751C1755.33 89.6395 1758.56 87.1412 1759.61 84.4213C1759.76 83.9982 1760.2 82.5073 1759.63 82.185C1758.89 81.7619 1758.15 82.4469 1757.56 82.6685C1757.15 81.7417 1757.74 80.7142 1757.28 79.8479C1754.75 80.7142 1752.47 81.9432 1749.58 81.3791C1749.29 80.271 1753.31 77.7929 1754.44 77.128C1756.02 76.1609 1758.23 75.7983 1759.61 74.6499C1762.22 72.5143 1759.2 70.7212 1758.87 68.646C1757.2 69.4922 1756.15 70.5398 1754.36 71.2853C1754.21 71.3457 1754.05 71.4062 1753.9 71.4666C1751.98 72.1516 1750.65 72.2322 1748.65 72.1919C1747.81 72.1718 1746.86 72.4337 1746.35 71.8494C1745.63 71.0032 1747.99 69.5929 1748.53 69.2101C1749.12 68.8072 1749.78 68.4042 1750.42 68.0013C1751.26 67.4774 1752.08 66.9133 1752.67 66.2485C1753.36 65.4627 1753.41 64.3143 1754.21 63.6092C1754.92 62.9645 1755.82 62.7227 1756.61 62.1586C1759.56 59.9827 1762.63 55.8928 1763.7 52.8505C1764.62 50.2112 1765.24 47.5316 1765.9 44.852C1766.11 43.9656 1765.98 43.2403 1766.06 42.3941C1766.18 40.9032 1767.08 39.513 1767.64 38.0624C1770.28 37.4378 1769.74 45.6176 1770.18 46.907C1770.74 48.7002 1771.97 50.2515 1772.74 52.0043C1773.53 53.7773 1774.58 55.5502 1775.5 57.2829C1776.29 58.7536 1781.18 63.4682 1780.23 65.0195C1779.03 66.9939 1773.2 63.8509 1772.28 63.0853C1772.2 64.5762 1775.42 66.1477 1775.63 67.6789C1775.68 67.961 1775.63 68.2229 1775.42 68.505C1774.71 69.472 1772.12 69.0892 1770.97 69.0892C1769 69.0489 1768.64 68.787 1768.41 70.2981C1768.08 72.6956 1769.23 74.7909 1770.77 76.8258C1771.87 78.3167 1775.78 79.7673 1776.24 81.3589C1774.12 81.8828 1771.74 81.2985 1769.77 80.9963C1767.18 80.5934 1767.31 81.7418 1768.23 83.3334C1769.08 84.8444 1769.9 86.154 1771.38 87.242C1772.71 88.1889 1774.55 88.7732 1775.83 89.6193C1776.37 89.982 1776.65 90.4454 1777.09 90.808C1777.62 91.2311 1778.08 91.2714 1778.7 91.6945C1779.98 92.581 1780.67 93.2257 1782.23 93.81C1783.41 94.2532 1786.04 94.5352 1786.91 95.18C1787.78 95.8448 1788.27 96.8925 1789.47 97.6379C1785.53 97.5171 1781.87 97.2954 1778.14 96.4492C1779.93 97.8596 1787.04 101.023 1783.51 103.38C1782.15 104.287 1777.88 104.025 1776.32 103.722C1773.89 103.259 1771.74 101.547 1769.23 101.325C1766.54 101.607 1771.87 107.047 1772.38 107.45C1774.02 108.679 1775.83 109.746 1777.75 110.673C1780.08 111.842 1782.54 112.829 1785.02 113.756C1791.03 115.992 1797.69 118.128 1804.16 119.337C1805.95 119.659 1807.75 120.122 1809.43 120.707C1810.94 121.23 1812.1 122.439 1813.5 122.903C1813.66 122.943 1813.84 122.983 1814.07 122.983C1815.09 123.024 1816.75 122.721 1817.19 123.144C1817.21 123.165 1817.21 123.205 1817.21 123.225C1817.42 123.729 1816.5 125.542 1816.37 126.026C1815.42 126.126 1814.6 126.348 1813.78 126.509C1813.76 126.509 1813.76 126.529 1813.73 126.529C1813.07 126.67 1812.4 126.791 1811.63 126.811C1811.33 126.811 1811 126.811 1810.64 126.771C1808.92 126.61 1807.28 125.864 1805.6 125.582C1805.49 125.945 1805.42 126.287 1805.36 126.65C1803.98 127.255 1801.24 126.65 1799.86 126.328C1798.94 126.106 1797.59 125.058 1796.79 124.978C1795.79 124.857 1794.67 125.482 1793.59 125.542C1791.06 125.703 1788.91 125.361 1786.56 124.676C1784.25 123.991 1782.1 123.144 1779.85 122.419C1778.11 121.855 1776.45 121.714 1774.83 121.23C1774.66 122.278 1776.5 123.285 1777.39 123.95C1779.34 125.361 1781.87 126.167 1784.23 127.093C1788.14 128.604 1791.8 130.478 1795.61 132.029C1796.64 132.452 1799.45 133.399 1800.43 134.407C1800.78 134.769 1800.89 135.132 1800.63 135.475C1799.84 136.522 1797.53 136.059 1796.28 136.079C1793.41 136.099 1791.7 135.757 1789.47 134.931C1789.47 134.931 1789.47 134.931 1789.45 134.931C1789.04 134.769 1788.63 134.608 1788.17 134.427C1788.32 134.588 1788.5 134.769 1788.71 134.951C1789.14 135.374 1789.6 135.837 1789.68 136.361C1789.96 138.094 1788.37 137.751 1786.89 137.973C1785.22 138.235 1783.54 139.02 1781.8 138.436C1780.44 137.973 1779.9 136.804 1778.14 137.389C1779.29 138.638 1780.52 139.867 1781.74 141.035C1783.74 142.889 1787.66 144.057 1790.16 145.387C1791.62 146.153 1792.77 147.14 1794.46 147.704C1794.92 147.865 1795.79 148.026 1796.59 148.308C1797.53 148.611 1798.4 149.034 1798.46 149.699C1798.56 151.129 1796.61 151.069 1794.64 150.907C1792.11 150.726 1789.5 150.363 1791.06 152.801C1791.39 153.325 1791.78 153.768 1792.24 154.171C1793.26 155.098 1794.59 155.743 1795.97 156.488C1796.97 157.032 1799.45 157.959 1800.81 158.886C1801.12 159.047 1801.35 159.248 1801.53 159.43C1801.6 159.51 1801.65 159.571 1801.71 159.651C1801.55 159.994 1801.17 160.215 1800.63 160.336C1800.2 160.457 1799.66 160.477 1799.04 160.457H1799.02C1796.84 160.417 1794.05 159.752 1793.11 159.49C1791.78 159.087 1790.39 158.805 1789.04 158.503C1788.24 158.322 1787.45 158.14 1786.66 157.919C1785.35 157.556 1784.12 156.77 1782.64 157.234C1782.49 158.443 1784.76 159.168 1785.79 159.772C1786.4 160.135 1786.84 160.538 1787.25 160.941C1787.89 161.585 1788.4 162.23 1789.24 162.734C1790.47 163.439 1791.98 163.963 1793.29 164.587C1793.8 164.829 1794.21 165.111 1794.62 165.454C1795.31 165.957 1795.92 166.542 1796.61 167.106C1796.95 167.368 1797.33 167.63 1797.71 167.871C1798.1 168.113 1798.51 168.335 1798.92 168.556C1801.14 169.665 1803.8 170.41 1806.26 170.853C1807.51 171.075 1808.54 171.679 1809.61 172.203C1809.97 172.364 1810.36 172.525 1810.74 172.667C1812.2 173.17 1813.78 173.472 1815.29 173.916H1815.32C1815.93 174.077 1816.55 174.278 1817.11 174.5C1820.46 175.85 1824.02 176.918 1827.48 178.247C1827.55 178.288 1827.66 178.308 1827.73 178.328C1831.08 179.557 1834.87 179.98 1838.07 181.209C1838.12 181.229 1838.17 181.249 1838.22 181.269C1839.25 181.672 1843.19 183.042 1841.01 184.332C1840.83 184.453 1840.53 184.513 1840.2 184.574C1838.74 184.755 1836.23 184.433 1835.36 184.453C1834.31 184.453 1833.08 184.533 1831.93 184.493C1831.93 184.493 1831.9 184.493 1831.88 184.493C1831.14 184.473 1830.39 184.392 1829.73 184.211C1829.63 184.191 1829.52 184.15 1829.45 184.13C1829.75 184.312 1829.91 184.594 1829.8 184.956C1825.81 185.823 1820.39 184.412 1816.78 183.163C1815.63 182.619 1814.4 182.176 1813.14 181.834C1812.81 181.954 1812.56 182.136 1812.43 182.418C1812.35 182.438 1812.27 182.458 1812.22 182.478C1810.3 182.921 1808.9 183.405 1806.85 183.183C1806.64 183.163 1806.41 183.143 1806.18 183.103C1805.85 183.042 1805.52 182.982 1805.21 182.881C1805.16 182.881 1805.11 182.861 1805.03 182.841H1805.01C1804.57 182.7 1804.16 182.559 1803.75 182.418C1803.14 182.216 1802.55 182.015 1801.86 181.934C1801.37 181.874 1800.91 181.834 1800.43 181.813C1799.45 181.773 1798.51 181.793 1797.51 181.793H1797.48C1796.46 181.773 1795.38 181.733 1794.36 181.531C1794.23 181.511 1794.1 181.471 1793.98 181.431C1792.8 181.189 1791.75 180.786 1790.73 180.363C1789.98 180.061 1789.27 179.758 1788.47 179.476C1788.27 179.416 1788.07 179.335 1787.86 179.275C1787.48 179.154 1787.09 179.013 1786.71 178.852C1786.43 178.751 1786.12 178.63 1785.84 178.509C1784.07 177.784 1782.26 176.978 1780.26 176.998C1780.03 176.998 1777.44 178.308 1777.24 178.348C1776.7 179.799 1776.83 181.088 1777.52 182.236C1777.8 182.74 1778.19 183.204 1778.67 183.647C1779.21 184.15 1779.62 184.715 1780.06 185.259C1780.29 185.541 1780.52 185.803 1780.77 186.044C1780.82 186.145 1780.93 186.226 1781 186.306C1782.08 187.354 1783.64 187.656 1784.92 188.462C1785.05 188.543 1785.28 188.684 1785.56 188.845C1786.02 189.127 1786.66 189.51 1787.25 189.913C1788.4 190.698 1789.4 191.565 1788.73 191.948C1788.5 192.089 1787.94 192.028 1787.27 191.847C1786.38 191.625 1785.3 191.222 1784.56 190.92C1784.18 190.779 1783.89 190.658 1783.77 190.618C1783.33 190.457 1779.11 188.341 1779.11 188.2C1777.88 188.22 1777.6 188.522 1777.85 189.731C1778.11 190.9 1779.47 192.209 1780.75 193.197C1781.18 193.519 1781.59 193.801 1781.95 194.043C1782.2 194.224 1782.49 194.385 1782.77 194.526C1784.3 195.493 1785.97 196.279 1787.6 197.065C1788.32 197.407 1789.01 197.75 1789.7 198.092C1790.39 198.435 1790.93 198.898 1791.62 199.281L1791.7 199.342C1791.72 199.342 1791.72 199.362 1791.75 199.362C1792.54 199.765 1793.44 199.865 1794.34 199.986C1794.9 200.067 1795.46 200.147 1796 200.309C1797.15 200.671 1798.3 201.034 1799.48 201.376C1801.14 201.88 1802.83 202.303 1804.55 202.525C1804.62 203.129 1804.49 203.955 1805.19 204.318C1803.78 204.016 1802.01 204.801 1800.58 204.882C1799.35 204.963 1798.23 204.862 1797.12 204.66C1797.46 205.104 1797.46 205.607 1796.95 206.03C1796.25 206.615 1792.47 206.212 1791.44 206.172C1790.16 206.111 1789.34 206.051 1788.27 205.587C1786.96 207.985 1791.52 209.657 1793.47 210.805C1796.84 212.8 1800.48 213.868 1804.26 215.218C1807.92 216.507 1811.79 217.736 1815.7 218.542C1820.59 219.59 1825.66 220.113 1830.55 221.201C1830.62 221.222 1830.73 221.242 1830.8 221.262C1832.59 221.624 1834.44 221.544 1836.18 222.007C1838.1 222.531 1839.86 223.055 1841.86 223.357C1845.8 223.941 1849.64 224.767 1853.53 225.392C1855.42 225.694 1860.21 226.48 1857.11 228.172C1853.86 229.925 1846.87 229.583 1843.5 228.394C1844.01 228.716 1845.21 229.804 1845.01 230.389C1844.52 231.678 1839.91 230.973 1838.84 230.812C1837.89 230.65 1836.97 230.469 1836.02 230.268C1835.51 230.308 1835.33 230.53 1835.46 230.953C1835.33 231.557 1834.85 231.779 1834 231.617C1833 231.597 1832.03 231.577 1831.06 231.577C1828.37 231.557 1825.56 231.799 1822.9 231.597C1821.36 231.497 1819.8 231.215 1818.24 230.932C1817.37 230.771 1816.5 230.63 1815.63 230.509C1813.12 230.167 1811.3 229.22 1808.97 228.434C1808.1 228.152 1807.13 227.951 1806.24 227.669C1806.44 228.051 1806.39 228.575 1806.21 228.998C1804.03 229.583 1801.94 229.039 1799.81 228.535C1798.53 228.213 1797.28 227.89 1796 227.85C1793.11 227.729 1790.29 228.011 1787.43 227.568C1784.02 227.044 1781.74 225.815 1778.85 224.566C1777.85 224.143 1777.52 224.203 1776.32 224.143C1775.17 224.103 1774.35 223.76 1773.27 223.579C1771.53 227.185 1780.36 229.724 1782.82 231.416C1785.05 232.967 1787.76 234.237 1790.62 235.244C1793.59 236.292 1796.72 237.057 1799.68 237.621C1803.29 238.327 1806.95 238.85 1810.56 239.656C1813.73 240.382 1817.06 240.402 1820.31 240.885C1823.77 241.389 1827.27 241.449 1830.67 242.114C1831.52 242.296 1836.87 242.557 1837 243.202C1833.08 244.149 1828.58 244.008 1824.51 243.948C1827.17 244.733 1829.42 245.942 1832.24 246.466C1835.41 247.05 1838.71 247.735 1841.7 248.642C1843.37 249.146 1849.23 249.931 1846 251.442C1842.57 253.074 1836.94 252.812 1833.21 252.611C1834.28 252.893 1835.92 253.498 1836.33 254.404C1827.17 256.963 1816.86 252.732 1808.18 250.355C1809.95 250.979 1812.02 252.49 1811.61 253.8C1808.92 254.203 1805.85 253.961 1803.29 253.215C1806.06 254.465 1801.53 255.17 1800.5 255.21C1795.79 255.371 1790.68 254.646 1786.17 253.538C1784.64 253.175 1783.66 252.53 1782.23 252.007C1780.95 251.543 1779.52 251.483 1778.24 251.06C1776.7 250.556 1774.35 248.38 1772.58 248.36H1772.35C1772.35 248.38 1772.38 248.42 1772.38 248.441C1772.66 249.347 1774.55 250.214 1775.45 250.798C1777.34 252.007 1779.47 252.913 1781.41 254.041C1786.15 256.802 1790.98 259.381 1796.79 260.448C1803.42 261.677 1810.3 262.886 1816.78 264.579C1820.31 265.505 1824.66 266.694 1827.53 268.689C1825.33 269.192 1821.72 268.809 1819.67 268.668C1818.08 268.548 1816.42 268.487 1814.81 268.326C1814.94 268.548 1814.99 268.729 1815.06 268.95C1815.27 269.535 1814.83 270.059 1815.19 270.683C1815.47 271.167 1816.01 271.59 1816.63 271.952C1817.27 272.335 1818.03 272.658 1818.62 272.96C1822.1 274.773 1825.58 276.586 1829.11 278.359C1835.23 281.381 1841.91 282.973 1848.77 284.444C1848.23 285.955 1840.99 285.552 1839.66 285.552C1836.48 285.532 1833.29 285.632 1830.11 285.512C1831.8 285.975 1832.72 286.861 1834.51 287.224C1838.63 288.09 1841.83 289.783 1845.67 291.193C1851.07 293.208 1856.42 294.376 1862.15 295.626C1864.1 296.069 1867.99 297.096 1867.71 299.212Z" fill="#0A2F44"/>
<path d="M323.287 303.966C318.757 305.739 313.69 302.576 309.032 302.738C308.879 303.523 309.135 304.269 308.981 305.054C305.168 306.404 298.591 303.664 295.213 302.617C293.626 302.113 291.272 300.521 289.48 300.763C288.789 300.844 288.329 301.287 287.715 301.488C286.281 301.952 285.079 301.791 283.671 301.388C281.419 300.743 278.502 298.648 275.994 299.01C275.277 300.824 278.067 302.274 277.376 303.705C274.74 302.999 272.641 301.247 270.568 299.877C269.033 298.869 266.474 296.311 264.477 295.867C262.993 295.545 261.714 296.492 260.229 296.572C258.566 296.653 257.235 295.867 255.853 295.263C254.266 294.578 252.526 294.054 250.991 293.349C249.686 292.765 248.867 291.656 247.613 292.462C247.101 292.805 247.664 293.45 246.845 293.893C246.41 294.135 245.591 294.054 245.105 294.054C241.215 294.034 238.988 291.979 235.969 290.407C233.845 289.319 231.413 289.702 228.982 289.118C226.653 288.574 224.478 287.627 222.354 286.72C221.996 288.997 222.328 291.636 222.354 293.933C222.354 296.572 222.38 299.091 221.97 301.71C221.561 304.47 220.818 307.251 220.742 310.051C220.588 314.221 220.767 318.432 220.767 322.603C220.767 323.086 220.793 323.61 220.818 324.114H200.294C200.371 320.85 200.294 317.626 200.294 314.383C200.269 309.023 200.473 303.261 202.623 298.184C203.851 295.323 207.101 291.656 205.643 288.473C204.926 288.554 204.977 288.957 204.44 289.199C203.57 289.601 202.751 289.763 201.702 289.984C201.292 290.065 200.729 290.186 200.089 290.347L201.062 289.662C201.19 289.239 201.139 288.856 200.908 288.473C198.861 289.138 196.916 290.428 194.971 291.395C191.593 293.087 186.859 293.631 182.969 294.175C180.896 294.477 178.72 294.759 176.622 294.658C175.829 294.618 172.63 294.477 171.939 293.873C170.531 292.624 173.525 289.642 173.525 288.413C173.449 288.413 173.372 288.393 173.295 288.393C170.838 288.352 167.281 290.448 164.927 290.972C163.033 291.395 160.525 291.918 158.529 291.455C158.324 289.763 161.625 287.667 162.982 286.499C160.627 286.338 158.734 289.078 157.045 290.105C152.592 292.825 147.78 293.591 142.79 295.364C139.207 296.633 135.573 297.721 131.939 298.91C131.299 299.111 130.685 299.333 130.046 299.534C130.046 299.534 130.046 299.534 130.02 299.534C127.819 300.239 125.644 300.803 123.136 300.864C119.272 300.944 112.925 301.569 109.163 300.118H109.137C108.753 299.977 108.421 299.796 108.088 299.615C107.832 297.499 111.696 296.452 113.641 296.028C119.374 294.779 124.722 293.591 130.148 291.596C133.987 290.166 137.186 288.493 141.28 287.627C143.072 287.264 144.018 286.378 145.707 285.894C142.534 286.035 139.335 285.935 136.136 285.955C134.831 285.955 127.563 286.358 127.051 284.847C133.91 283.376 140.589 281.764 146.68 278.742C150.237 276.989 153.718 275.176 157.198 273.363C158.35 272.758 160.039 272.114 160.602 271.066C160.96 270.441 160.551 269.918 160.755 269.353C160.858 269.112 160.883 268.93 161.037 268.709C159.399 268.89 157.735 268.951 156.149 269.051C154.101 269.192 150.493 269.595 148.292 269.092C151.133 267.097 155.509 265.908 159.041 264.982C165.49 263.289 172.399 262.06 179.002 260.851C184.837 259.763 189.674 257.205 194.408 254.444C196.353 253.296 198.477 252.41 200.345 251.201C200.857 250.858 201.702 250.435 202.367 249.952H202.393C202.93 249.569 203.339 249.166 203.442 248.763C202.495 248.662 201.343 249.287 200.217 249.972H200.192C199.245 250.576 198.298 251.221 197.581 251.463C196.276 251.886 194.869 251.926 193.589 252.41C192.156 252.933 191.158 253.558 189.648 253.941C185.118 255.029 180.026 255.754 175.291 255.593C174.293 255.573 169.763 254.868 172.527 253.598C169.968 254.364 166.897 254.606 164.21 254.203C163.801 252.954 165.643 251.543 167.332 250.838C158.734 253.215 148.548 257.325 139.489 254.807C139.898 253.9 141.51 253.296 142.611 253.014C138.875 253.215 133.244 253.477 129.815 251.845C128.28 251.12 128.792 250.556 129.943 250.113H129.969C131.223 249.629 133.244 249.287 134.115 249.025C137.109 248.118 140.384 247.433 143.583 246.849C146.373 246.345 148.651 245.136 151.286 244.351C147.243 244.411 142.739 244.532 138.823 243.605C138.951 242.96 144.274 242.678 145.119 242.517C148.523 241.832 152.029 241.772 155.483 241.268C158.734 240.805 162.06 240.764 165.259 240.059C168.842 239.233 172.502 238.709 176.136 238.024C181.945 236.916 188.471 234.982 193.001 231.819C195.457 230.106 204.286 227.568 202.521 223.982C201.446 224.163 200.652 224.506 199.501 224.546C198.298 224.586 197.965 224.526 196.967 224.969C194.075 226.218 191.798 227.447 188.394 227.971C185.502 228.414 182.713 228.112 179.821 228.233C176.468 228.374 173.09 230.328 169.61 229.401C169.431 228.958 169.38 228.414 169.584 228.051C168.689 228.334 167.716 228.535 166.846 228.837C164.517 229.623 162.7 230.57 160.167 230.892C157.787 231.215 155.33 231.839 152.924 232C150.237 232.182 147.448 231.96 144.761 231.98C143.788 231.98 142.79 232 141.818 232.02C140.973 232.162 140.487 231.94 140.359 231.356C140.487 230.933 140.282 230.691 139.77 230.65C138.849 230.852 137.902 231.053 136.981 231.215C135.88 231.376 131.299 232.081 130.813 230.771C130.609 230.207 131.786 229.119 132.323 228.797C128.945 229.986 121.933 230.328 118.708 228.575C115.586 226.883 120.398 226.097 122.266 225.795C126.156 225.15 130.02 224.344 133.961 223.76C135.957 223.458 137.723 222.934 139.617 222.41C141.459 221.907 143.379 222.027 145.272 221.604C150.135 220.516 155.202 219.993 160.115 218.945C164.005 218.119 167.87 216.91 171.529 215.6C175.342 214.251 178.976 213.203 182.354 211.208C184.299 210.06 188.829 208.388 187.524 205.99C186.449 206.433 185.656 206.514 184.376 206.554C183.353 206.595 179.539 207.018 178.874 206.433C178.362 205.99 178.362 205.487 178.695 205.043C177.594 205.265 176.468 205.366 175.24 205.285C173.781 205.204 172.016 204.399 170.608 204.721C171.325 204.358 171.197 203.532 171.248 202.908C174.191 202.525 177.006 201.578 179.795 200.712C181.203 200.288 182.815 200.409 184.095 199.724C184.837 199.342 185.4 198.838 186.116 198.475C188.65 197.206 191.491 196.017 193.845 194.446C195.355 193.438 197.633 191.665 197.965 190.134C198.221 188.925 197.94 188.603 196.686 188.603C196.686 188.744 192.489 190.839 192.028 191.021C191.516 191.202 187.805 192.774 187.063 192.35C185.912 191.645 190.032 189.409 190.902 188.865C192.182 188.059 193.743 187.737 194.818 186.709C195.688 185.883 196.225 184.896 197.121 184.05C198.759 182.519 199.347 180.806 198.579 178.731C198.349 178.711 195.79 177.401 195.56 177.401C192.77 177.381 190.39 178.892 187.959 179.678C185.707 180.383 183.839 181.471 181.459 181.934C178.951 182.418 176.392 181.995 173.935 182.337C172.399 182.539 171.222 183.244 169.61 183.506C167.102 183.929 165.618 183.324 163.366 182.801C163.238 182.539 163.007 182.337 162.675 182.237C161.395 182.579 160.192 183.022 159.041 183.566C155.432 184.815 150.007 186.226 145.989 185.359C145.887 184.977 146.066 184.715 146.373 184.513C144.581 185.077 142.304 184.856 140.461 184.835C139.386 184.835 135.829 185.339 134.806 184.735C132.63 183.425 136.571 182.055 137.569 181.672C138.593 181.269 139.668 180.967 140.768 180.685H140.922C143.43 180.02 145.912 179.537 148.318 178.63C151.773 177.321 155.33 176.253 158.708 174.903C160.704 174.097 163.007 173.775 165.08 173.049C166.641 172.526 167.87 171.558 169.559 171.236C172.937 170.611 176.724 169.483 179.181 167.509C180.307 166.602 181.152 165.675 182.534 164.99C183.813 164.346 185.349 163.842 186.551 163.117C187.37 162.633 187.882 162.029 188.496 161.404C188.931 160.961 189.392 160.538 190.032 160.155C191.056 159.551 193.333 158.845 193.18 157.617C191.695 157.173 190.467 157.959 189.136 158.322C188.087 158.624 187.038 158.845 185.988 159.087C184.888 159.329 183.788 159.571 182.713 159.893C181.228 160.316 174.856 161.787 174.114 160.034C174.754 158.966 178.516 157.596 179.847 156.891C179.974 156.811 180.128 156.75 180.256 156.67C182.073 155.723 183.711 154.836 184.76 153.204C184.862 153.043 184.939 152.902 185.016 152.761V152.741C185.042 152.68 185.067 152.64 185.093 152.58C185.656 151.23 184.376 151.109 182.687 151.21C181.075 151.29 179.104 151.592 178.081 151.19C177.594 151.008 177.313 150.666 177.339 150.102C177.441 148.873 180.307 148.47 181.356 148.107C181.587 148.026 181.817 147.946 182.022 147.825C182.252 147.744 182.482 147.623 182.713 147.503C183.736 146.959 184.632 146.314 185.656 145.77C186.628 145.266 187.831 144.762 189.059 144.239C190.928 143.433 192.847 142.566 194.05 141.418C194.843 140.693 195.636 139.927 196.379 139.141C196.532 139.021 196.635 138.94 196.737 138.799L196.762 138.779V138.738C197.07 138.436 197.377 138.114 197.658 137.792C197.325 137.671 197.044 137.63 196.788 137.63C195.662 137.61 195.125 138.456 194.024 138.839C192.284 139.423 190.595 138.618 188.931 138.376C188.343 138.295 187.754 138.295 187.268 138.215C186.475 138.094 185.963 137.812 186.142 136.764C186.219 136.24 186.705 135.757 187.14 135.334C187.319 135.152 187.498 134.971 187.652 134.81C187.473 134.87 187.319 134.951 187.166 135.011C185.937 135.495 184.914 135.837 183.864 136.079C183.225 136.22 182.585 136.321 181.868 136.381C181.177 136.442 180.41 136.482 179.539 136.462C179.207 136.462 178.772 136.502 178.337 136.522H178.311C177.108 136.603 175.752 136.623 175.189 135.878C174.191 134.548 178.516 133.097 180.051 132.493C180.102 132.473 180.154 132.453 180.205 132.432C180.589 132.271 180.998 132.11 181.382 131.929C183.045 131.224 184.709 130.458 186.347 129.712C186.807 129.491 187.294 129.289 187.754 129.088C188.036 128.947 188.317 128.826 188.599 128.685C189.571 128.282 190.569 127.859 191.567 127.476C191.747 127.416 191.926 127.335 192.105 127.275H192.13C192.335 127.194 192.54 127.114 192.745 127.033C194.766 126.287 196.788 125.522 198.4 124.333C198.503 124.253 198.605 124.192 198.733 124.112C199.68 123.447 201.113 122.56 200.959 121.633C199.373 122.117 197.684 122.258 195.944 122.822C195.227 123.044 194.536 123.285 193.819 123.527H193.794C192.386 124.031 191.004 124.535 189.546 124.978C189.443 124.998 189.367 125.038 189.264 125.058C189.034 125.139 188.778 125.199 188.548 125.24C188.215 125.341 187.908 125.421 187.601 125.482C186.398 125.764 185.221 125.945 183.967 125.965C183.404 125.985 182.815 125.985 182.201 125.945C182.047 125.925 181.868 125.905 181.715 125.884C180.819 125.703 179.872 125.28 179.028 125.361C178.234 125.461 176.852 126.509 175.957 126.711C174.575 127.033 171.836 127.637 170.454 127.053C170.454 127.033 170.454 127.013 170.429 126.993V126.972C170.403 126.63 170.326 126.328 170.224 125.985C169.943 126.026 169.687 126.086 169.405 126.146C167.998 126.489 166.616 127.033 165.157 127.174C164.261 127.254 163.494 127.194 162.751 127.053C161.677 126.892 160.679 126.569 159.425 126.428C159.297 125.905 158.273 123.91 158.631 123.547C159.143 123.024 161.497 123.568 162.291 123.306C162.572 123.225 162.828 123.104 163.084 122.963C164.159 122.399 165.131 121.533 166.36 121.11C166.769 120.969 167.179 120.828 167.614 120.707C168.945 120.304 170.301 119.981 171.657 119.719C172.143 119.639 172.604 119.538 173.09 119.417C173.423 119.377 173.73 119.296 174.063 119.216C174.063 119.216 174.063 119.216 174.088 119.216C176.648 118.672 179.207 117.987 181.74 117.201C183.199 116.778 184.632 116.315 186.04 115.851H186.065C187.678 115.287 189.264 114.723 190.8 114.159C191.337 113.957 191.849 113.756 192.386 113.554C192.489 113.514 192.54 113.494 192.642 113.454H192.668C192.693 113.433 192.745 113.413 192.77 113.393C196.583 111.902 200.32 110.17 203.416 107.833C203.954 107.45 209.251 101.99 206.59 101.728C204.082 101.949 201.932 103.642 199.501 104.105C198.759 104.246 197.428 104.387 196.097 104.407C195.15 104.407 194.178 104.347 193.41 104.206C192.949 104.105 192.565 103.964 192.284 103.783C191.184 103.037 191.107 102.211 191.619 101.385C192.719 99.5923 196.455 97.7991 197.684 96.8321C193.922 97.6984 190.262 97.92 186.321 98.0409C187.55 97.2955 188.036 96.2478 188.906 95.5829C189.546 95.0793 191.286 94.777 192.565 94.495H192.617C193.001 94.3942 193.308 94.3137 193.564 94.2129C195.125 93.6287 195.841 92.9638 197.121 92.0974C197.735 91.6743 198.196 91.6341 198.733 91.1908C199.168 90.8483 199.424 90.385 199.987 90.0022C201.241 89.1761 203.084 88.5717 204.414 87.6247C205.924 86.5569 206.743 85.2272 207.588 83.7363C208.509 82.1245 208.611 80.9963 206.027 81.3992C204.082 81.7014 201.702 82.2656 199.552 81.7619C200.038 80.1501 203.928 78.7197 205.054 77.2288C205.182 77.0676 205.284 76.9064 205.387 76.7654C206.743 74.8715 207.716 72.9172 207.383 70.701C207.178 69.19 206.794 69.4519 204.824 69.4721C203.672 69.4922 201.087 69.875 200.396 68.8878C199.091 67.135 203.621 65.2411 203.519 63.4681C202.597 64.2337 196.762 67.3969 195.56 65.4224C194.613 63.8711 199.526 59.1566 200.294 57.6859C201.241 55.9532 202.29 54.1601 203.058 52.3871C203.826 50.6545 205.054 49.083 205.643 47.2899C206.052 46.0206 205.54 37.8408 208.176 38.4653C208.739 39.9159 209.635 41.286 209.763 42.7769C209.84 43.6432 209.712 44.3685 209.916 45.2349C210.556 47.9346 211.17 50.6142 212.092 53.2333C213.192 56.2957 216.263 60.3856 219.206 62.5414C220 63.1257 220.87 63.3473 221.586 63.992C222.38 64.6971 222.431 65.8657 223.122 66.6514C224.197 67.8401 225.911 68.6662 227.293 69.6131C227.677 69.875 228.982 70.6809 229.417 71.4263C229.622 71.7286 229.648 72.0106 229.443 72.2524C228.931 72.8165 227.984 72.5748 227.165 72.5748C226.346 72.5949 225.63 72.5949 224.964 72.5344C224.939 72.5344 224.939 72.5344 224.939 72.5344C223.966 72.4538 223.045 72.2725 221.919 71.8696C219.82 71.1241 218.746 69.9556 216.954 69.049C216.621 70.9025 214.165 72.5546 215.623 74.4283C215.751 74.6298 215.956 74.8514 216.212 75.0528C217.594 76.1811 219.769 76.5639 221.381 77.531C222.482 78.1958 226.525 80.6739 226.218 81.782C223.326 82.326 221.074 81.1172 218.541 80.2307C218.055 81.1172 218.643 82.1245 218.234 83.0513C217.671 82.8498 216.929 82.1648 216.186 82.5879C215.623 82.8901 216.058 84.4012 216.212 84.8041C217.261 87.524 220.46 90.0424 222.738 92.1579C225.041 94.3338 226.577 95.7038 229.75 97.0134C233.486 98.5244 237.427 99.7938 241.24 101.285C240.601 102.292 237.786 102.413 236.48 102.373C233.563 102.312 232.002 101.405 229.648 100.539C228.752 101.849 228.112 102.332 226.269 102.352C224.324 102.373 223.403 101.325 221.637 101.144C220.204 104.589 224.939 106.342 227.933 107.571C230.031 108.437 232.207 109.202 234.305 110.109C235.789 110.754 237.351 111.781 238.988 112.204C240.063 112.487 241.138 112.164 242.239 112.245C243.518 112.325 244.721 112.789 245.949 113.051C246.103 113.091 246.282 113.111 246.436 113.151V113.172C248.176 113.534 249.916 113.998 251.631 114.461C252.603 114.743 253.55 115.005 254.522 115.267C256.519 115.831 258.515 116.375 260.536 116.838H260.562C261.023 116.919 261.483 117.02 261.944 117.1C262.865 117.282 263.787 117.443 264.708 117.543C265.655 117.685 266.627 117.765 267.6 117.826C270.005 117.967 272.36 118.39 274.688 118.934C274.714 118.954 274.74 118.954 274.791 118.954C275.354 119.095 275.942 119.236 276.531 119.377C277.939 119.74 279.321 120.122 280.728 120.485C281.01 120.566 281.291 120.646 281.573 120.707C283.39 121.251 284.925 121.996 284.695 123.648C284.669 123.749 284.644 123.85 284.618 123.95C284.439 123.971 284.26 124.011 284.081 124.031C283.185 124.152 282.212 124.172 281.266 124.172C279.449 124.172 277.58 124.031 275.84 124.051C275.328 124.051 274.791 124.071 274.253 124.071C273.562 124.091 272.846 124.112 272.155 124.071C271.31 124.031 270.466 123.91 269.673 123.668C269.186 125.461 270.568 126.872 267.267 126.529C267.088 126.509 266.909 126.489 266.704 126.428H266.678C263.914 126.046 260.281 124.716 257.977 123.185C257.926 123.165 257.875 123.124 257.824 123.084C257.491 122.883 257.21 122.641 256.954 122.419C257.005 122.842 257.056 123.265 257.082 123.668C257.133 124.253 257.107 124.797 256.979 125.26C256.928 125.421 256.877 125.582 256.8 125.723C256.416 126.449 255.572 126.993 253.908 127.174C253.422 127.234 252.987 127.234 252.577 127.174C252.142 127.154 251.759 127.073 251.4 126.952C250.965 126.852 250.556 126.69 250.172 126.509C248.943 125.884 247.894 124.978 246.794 124.112C246.436 123.85 245.949 123.326 245.412 122.802C244.593 121.996 243.672 121.13 243.006 120.989C242.085 122.681 244.235 124.212 243.569 125.844C241.803 126.287 240.063 126.167 238.374 125.743C238.169 125.703 237.99 125.643 237.786 125.602C236.506 125.22 235.278 124.676 234.1 124.071C233.051 123.527 232.053 122.943 231.157 122.379C228.957 121.009 226.909 119.437 225.041 117.805C224.094 116.979 223.147 115.468 221.637 115.368C220.921 116.738 221.919 117.564 222.891 118.611C224.657 120.485 226.065 122.621 227.907 124.454C229.136 125.683 230.646 126.892 232.309 127.919C233.307 128.544 234.382 129.108 235.482 129.571C236.097 129.833 236.711 130.075 237.325 130.277C237.504 130.337 237.658 130.377 237.811 130.438C238.63 130.68 239.321 130.841 240.14 130.841C240.422 130.841 240.729 130.821 241.087 130.76C242.239 130.559 243.032 130.075 244.311 130.176H244.337C245.105 130.256 246.205 130.619 247.382 131.163C248.176 131.526 249.02 131.969 249.814 132.452C250.044 132.594 250.274 132.735 250.479 132.896C250.76 133.057 251.042 133.258 251.272 133.44C252.859 134.628 254.011 135.938 253.857 136.986C252.68 137.288 251.605 137.227 250.556 137.006C250.325 136.945 250.069 136.885 249.814 136.804C248.918 136.563 248.073 136.2 247.178 135.878C246.128 135.475 245.079 135.112 244.055 134.749C243.748 134.649 243.441 134.548 243.134 134.427C243.006 134.407 242.878 134.367 242.776 134.306H242.75C242.213 134.125 241.675 133.943 241.138 133.742C240.933 133.681 240.754 133.621 240.549 133.54C240.396 133.843 240.422 134.185 240.601 134.548C240.78 134.931 241.087 135.354 241.368 135.777C242.111 136.784 242.776 137.792 241.368 138.416C240.78 138.678 240.191 138.597 239.603 138.376C239.27 138.255 238.937 138.094 238.605 137.933C237.658 137.449 236.711 136.885 235.764 137.006C235.636 137.006 235.534 137.046 235.406 137.086C234.587 137.368 234.177 137.953 233.819 138.597C233.614 139 233.384 139.423 233.102 139.786C232.693 140.33 232.155 140.794 231.157 140.935C229.468 141.196 228.061 140.935 226.832 140.37C225.809 139.927 224.913 139.303 224.017 138.658C223.045 137.933 222.124 137.167 221.1 136.542C221.1 136.542 221.1 136.542 221.074 136.542C220.742 136.341 220.409 136.16 220.051 135.998C219.974 136.2 219.948 136.422 220 136.663C220 136.945 220.076 137.207 220.23 137.509V137.53C220.588 138.396 221.33 139.323 222.149 140.189C223.122 141.257 224.197 142.244 224.811 142.949C224.887 143.05 224.964 143.151 225.041 143.231C225.937 144.42 226.986 145.407 228.214 146.294C229.571 147.261 231.106 148.087 232.77 148.893C235.431 150.182 238.579 149.799 241.394 150.646C243.134 151.169 251.17 153.99 250.684 156.206C249.071 156.629 247.178 156.327 245.591 155.964C244.004 155.602 242.187 154.312 240.524 154.494C240.345 155.017 240.447 155.662 240.396 156.206C238.707 156.69 237.248 156.287 235.789 155.622C234.817 155.179 233.333 153.547 232.437 154.977C231.772 156.065 234.126 157.919 234.638 158.422C236.429 160.236 238.042 161.706 240.242 163.137C248.611 168.536 257.21 174.56 267.779 177.079C268.419 177.24 269.084 177.381 269.749 177.502C278.425 179.174 288.201 178.731 296.083 182.357C297.9 183.183 302.02 184.876 300.331 187.233C297.951 190.537 288.431 184.11 285.514 185.521C286.128 186.145 286.921 186.588 287.535 187.213C283.799 188.22 280.293 185.299 276.685 185.48C276.48 186.488 276.941 187.495 276.685 188.502C271.95 189.651 267.088 186.488 263.326 184.594C263.096 184.493 262.891 184.372 262.661 184.271C257.977 182.035 261.739 185.843 260.92 187.253C259.052 190.436 238.425 177.562 233.793 175.689C235.406 177.804 238.451 181.572 238.144 184.09C235.201 185.4 232.258 182.055 230.466 180.705C228.624 181.934 232.028 185.259 229.289 186.266C228.266 186.649 225.067 185.722 224.197 185.359C222.635 184.735 222.149 183.909 220.87 183.143C220.665 183.486 220.614 183.848 220.767 184.211C221.765 186.689 225.015 187.999 226.116 190.457C227.268 193.056 229.852 194.305 232.591 195.977C236.199 198.193 240.089 199.966 244.337 201.195C245.591 201.558 249.02 202.404 250.633 203.653C251.247 204.117 251.579 204.62 251.477 205.184C250.658 205.507 249.814 205.688 248.995 205.769C245.693 206.091 242.571 204.56 239.679 202.968C239.475 203.975 240.422 206.836 239.654 207.481C238.067 208.73 235.329 205.769 233.435 205.97C232.846 207.461 235.431 209.677 236.506 210.785C237.632 211.934 239.168 212.921 240.78 213.848C242.418 214.774 244.158 215.621 245.668 216.447C249.43 218.481 253.857 220.395 258.156 221.705C261.176 222.612 264.375 223.035 267.421 223.861C269.263 224.365 270.952 225.17 272.769 225.714C274.535 226.258 276.378 226.54 278.195 226.963C280.575 227.548 282.75 228.414 285.207 228.777C287.203 229.059 289.301 229.16 291.323 229.341C294.292 229.603 298.361 229.502 301.099 230.469C301.918 230.751 305.424 232.403 304.938 233.108C299.947 233.874 293.703 233.27 288.815 232.564C284.209 231.9 286.819 233.149 288.278 234.982C287.228 235.224 286.077 235.043 284.976 235.063C283.543 235.103 282.724 235.546 281.368 235.748C278.527 236.151 275.252 235.264 272.744 234.337C271.055 233.713 269.212 233.068 267.702 232.222C266.96 231.819 266.653 231.497 265.808 231.396C265.066 233.511 266.141 234.579 262.481 234.478C258.873 234.398 254.574 232.847 252.859 230.187C252.014 230.389 251.631 231.134 250.812 231.517C248.048 232.826 244.465 231.658 241.88 230.65C236.992 228.777 231.772 227.487 226.909 225.553C226.397 225.352 225.783 225.07 225.195 224.828C223.992 224.364 222.943 224.203 223.25 225.735C223.301 226.057 223.403 226.359 223.557 226.681C224.99 230.147 230.364 233.411 234.228 234.72C236.89 235.607 239.27 236.03 241.701 237.44C244.26 238.911 247.638 239.616 250.53 240.664C253.755 241.812 256.877 243.142 260.178 244.109C263.761 245.177 267.523 245.136 271.234 245.741C274.381 246.244 277.273 246.909 280.293 247.393C280.319 247.393 280.319 247.393 280.319 247.393C281.905 247.655 283.518 247.856 285.232 247.957C290.043 248.239 294.675 248.904 299.461 249.327C300.28 249.408 301.073 249.508 301.79 249.67C304.682 250.173 306.934 251.16 309.467 252.692C310.261 253.175 313.408 254.384 313.664 255.069C314.406 257.023 307.138 256.117 306.934 256.097C303.632 255.653 300.536 254.203 297.363 253.276H297.337C295.955 252.853 294.599 252.551 293.191 252.47C293.14 253.82 293.601 255.391 293.191 256.721C291.374 257.144 289.199 256.741 287.51 256.217C286.051 255.754 283.953 254.162 282.315 254.344C281.777 255.391 282.955 257.003 282.11 257.97C281.112 259.119 278.988 258.796 277.376 258.555C275.072 258.232 272.82 257.184 270.85 256.258C269.749 255.734 268.367 254.868 267.369 256.097C266.653 257.023 267.753 258.353 267.19 259.3C266.422 260.549 264.554 260.63 262.993 260.448C258.899 260.005 254.497 258.071 250.914 256.842C249.583 258.293 249.711 260.025 247.05 260.448C243.774 260.972 239.807 257.829 237.299 256.298C234.791 254.767 232.565 254.424 229.468 254.283C228.189 254.223 227.293 253.921 227.088 253.095C227.447 257.728 235.073 261.758 239.833 263.229C241.983 263.893 244.286 264.216 246.461 264.78C252.475 266.311 257.363 269.575 263.096 271.509C267.216 272.899 271.182 274.491 275.533 275.398C278.118 275.942 284.157 276.365 282.955 279.629C278.937 280.717 273.409 278.339 269.673 277.211C268.188 276.747 267.574 276.324 266.525 276.989C266.115 277.231 266.192 278.037 265.604 278.379C264.298 279.105 262.481 278.238 261.355 277.735C259.487 276.909 257.568 276.163 255.393 275.982C252.936 275.78 251.298 276.324 249.148 274.954C248.918 276.586 255.674 281.059 257.184 281.643C258.899 282.288 260.383 282.61 261.97 283.436C263.275 284.121 264.298 285.028 265.552 285.773C269.852 288.352 276.019 289.602 280.958 291.354C286.281 293.268 292.347 294.195 298.054 295.001C303.146 295.726 308.06 296.734 313.127 297.56C316.889 298.164 321.342 298.567 324.771 299.937C327.996 301.226 325.59 303.08 323.287 303.966Z" fill="#0A2F44"/>
<path d="M1853.2 266.573C1860.13 268.064 1867.04 271.59 1874.36 272.235C1862.82 272.013 1851.23 272.255 1839.68 272.255C1832.16 272.255 1824.3 271.852 1816.63 271.952C1813.48 271.993 1810.33 272.134 1807.26 272.396C1799.3 273.121 1791.52 273.484 1783.51 274.048C1777.57 274.471 1771.3 277.352 1765.44 276.989C1768.97 270.905 1779.31 266.855 1779.82 259.32C1774.71 257.93 1766.57 263.269 1761.86 264.901C1755.95 266.936 1744.74 271.167 1738.24 268.668C1741.05 265.123 1747.3 262.08 1751.98 259.783C1757.87 256.902 1762.91 252.994 1768.59 250.133C1770.07 249.387 1771.25 248.924 1772.38 248.441C1772.45 248.42 1772.51 248.38 1772.58 248.36C1773.94 247.776 1775.24 247.151 1776.88 245.922C1780.29 243.424 1781.46 241.57 1784.23 238.649C1785.58 237.198 1788.07 236.191 1790.62 235.244C1795.13 233.552 1799.97 232.041 1799.81 228.535C1799.81 227.81 1799.56 226.984 1799.02 226.057C1798.1 224.445 1794.16 223.277 1792.06 221.665C1788.68 219.026 1788.99 218.482 1788.04 214.835C1778.72 217.555 1769.84 219.711 1759.58 219.69C1763.11 217.434 1768.05 217.031 1771.89 215.077C1773.43 214.311 1774.53 213.062 1775.88 212.337C1776.42 212.055 1778.34 211.571 1778.78 211.249C1780.62 209.838 1781.9 207.723 1783.71 206.01C1785.33 204.479 1786.86 204.177 1788.6 203.29C1788.81 203.19 1789.01 203.089 1789.22 202.968C1790.98 201.961 1792.72 201.014 1794.34 199.986C1796.38 198.677 1798.23 197.266 1799.61 195.514C1799.91 195.211 1800.14 194.889 1800.37 194.547C1800.48 194.405 1800.55 194.285 1800.63 194.144C1802.01 191.907 1802.04 189.832 1803.22 187.656C1803.32 187.455 1803.47 187.253 1803.6 187.072C1804.39 186.065 1805.62 185.259 1806.34 184.231C1806.57 183.909 1806.75 183.566 1806.85 183.183C1806.95 182.801 1806.98 182.378 1806.9 181.894C1806.34 181.954 1805.93 182.096 1805.6 182.297V182.317C1805.37 182.458 1805.16 182.639 1805.03 182.841H1805.01C1804.93 182.942 1804.85 183.042 1804.78 183.143C1804.32 183.788 1803.98 184.553 1803.14 185.138C1802.73 185.42 1802.37 185.662 1802.04 185.843C1800.35 186.81 1799.3 186.629 1796.79 186.729H1796.77C1795.74 186.77 1794.51 186.891 1793.36 186.83C1792.77 186.81 1792.21 186.729 1791.7 186.568C1790.5 186.165 1790.01 184.896 1788.99 184.574C1788.73 184.493 1788.45 184.412 1788.22 184.352C1788.01 184.312 1787.81 184.271 1787.63 184.251C1785.15 183.889 1783.33 184.956 1780.77 186.044C1780.26 186.266 1779.7 186.488 1779.08 186.709C1779.01 186.75 1778.9 186.77 1778.83 186.79C1777.47 187.253 1776.19 187.576 1774.94 187.777C1773.15 188.099 1771.43 188.2 1769.59 188.301C1769.2 188.301 1768.82 188.321 1768.41 188.341C1767.64 188.381 1766.88 188.422 1766.06 188.462C1767.26 188.059 1768.36 187.495 1769.41 186.87C1769.43 186.85 1769.43 186.85 1769.46 186.85C1771.33 185.722 1773.07 184.372 1775.06 183.365C1775.3 183.224 1775.53 183.123 1775.76 183.002C1776.32 182.74 1776.91 182.478 1777.52 182.237C1780.26 181.088 1783.23 180.101 1785.56 178.67C1785.66 178.61 1785.76 178.55 1785.84 178.509C1787.12 177.804 1787.45 178.066 1788.47 176.958C1788.73 176.676 1788.91 176.273 1789.04 175.81C1789.19 175.346 1789.32 174.863 1789.47 174.399C1789.6 174.037 1789.73 173.714 1789.93 173.452C1790.16 173.13 1790.39 172.848 1790.65 172.626C1792.11 171.216 1793.7 171.317 1795.49 170.128C1796.66 169.342 1797.33 168.617 1797.71 167.872C1798.35 166.683 1798.33 165.413 1798.81 163.681C1799.22 162.23 1799.86 161.243 1800.63 160.336C1800.91 160.034 1801.22 159.732 1801.53 159.43C1801.83 159.128 1802.17 158.825 1802.52 158.503L1802.91 158.14C1803.11 157.939 1803.34 157.737 1803.55 157.536C1804.21 156.891 1804.78 156.206 1805.24 155.521C1805.26 155.501 1805.26 155.501 1805.26 155.501C1806.85 153.184 1807.54 150.646 1808.59 148.167C1808.67 147.946 1808.77 147.744 1808.87 147.523C1809.33 146.475 1809.87 145.448 1810.61 144.46C1809.82 145.347 1808.74 146.012 1807.51 146.475C1807.44 146.536 1807.34 146.556 1807.23 146.576C1804.32 147.664 1800.55 147.724 1797.3 147.341C1796.46 147.261 1795.64 147.12 1794.9 146.979C1794.1 142.587 1799.4 142.043 1802.42 140.33C1802.65 140.209 1802.88 140.068 1803.09 139.907C1805.31 138.255 1806.16 136.099 1807 133.943C1807.05 133.843 1807.11 133.722 1807.13 133.621L1807.16 133.601C1807.87 131.788 1808.64 130.015 1810.25 128.584C1810.41 128.443 1810.56 128.322 1810.74 128.201C1810.74 128.181 1810.74 128.181 1810.77 128.181C1811.74 127.436 1812.76 126.993 1813.73 126.529C1813.76 126.529 1813.76 126.509 1813.78 126.509C1815.17 125.844 1816.4 125.099 1817.21 123.225C1817.27 123.124 1817.29 123.024 1817.34 122.923C1818.06 121.15 1817.91 119.055 1817.78 117.08C1817.78 117.06 1817.78 117.06 1817.78 117.04C1817.73 116.315 1817.67 115.609 1817.67 114.924C1817.65 110.955 1814.99 100.721 1819.75 97.8596L1825.92 104.327L1826.02 104.428C1826.02 108.8 1825.33 113.454 1826.99 117.664C1828.22 120.707 1830.65 122.641 1829.78 125.824C1829.09 128.423 1828.09 129.551 1828.4 131.224C1828.55 132.05 1828.99 133.017 1829.96 134.367C1831.83 136.966 1834.33 139.061 1837.56 140.572C1839.86 141.64 1842.63 141.801 1844.44 143.513C1841.01 145.387 1836.36 146.636 1832.29 147.12C1831.85 147.16 1831.21 147.16 1830.47 147.14H1830.44C1829.65 147.1 1828.76 147.039 1827.81 146.999C1825.1 146.918 1822.23 146.999 1822.03 148.369C1822.1 148.409 1822.18 148.45 1822.23 148.49C1822.43 148.591 1822.61 148.711 1822.79 148.852C1825.2 150.666 1825.15 154.655 1826.35 156.932C1826.38 156.992 1826.4 157.032 1826.43 157.093C1827.53 158.987 1829.17 160.679 1830.73 162.391C1832.06 163.862 1833.34 165.353 1834.21 167.025C1834.57 167.751 1834.87 168.496 1835.18 169.262C1835.44 170.007 1835.69 170.773 1835.97 171.518C1836.28 172.425 1836.64 173.352 1837.07 174.238C1837.43 175.004 1837.89 175.749 1838.43 176.474C1840.43 179.094 1843.45 180.323 1846.44 181.531C1848.33 182.277 1850.2 183.042 1851.81 184.13C1851.81 184.13 1851.81 184.13 1851.84 184.15C1852.1 184.312 1852.35 184.513 1852.61 184.715C1852.53 184.735 1852.43 184.775 1852.33 184.795C1851.38 185.097 1850.23 185.279 1849 185.38C1846.62 185.601 1843.91 185.521 1841.4 185.42C1839.63 185.319 1837.97 185.198 1836.61 185.138C1835.15 185.057 1833.57 184.815 1831.93 184.493C1831.93 184.493 1831.9 184.493 1831.88 184.493C1831.16 184.332 1830.42 184.171 1829.68 183.989C1823.56 182.579 1816.91 180.544 1811.99 182.015C1812.07 182.176 1812.15 182.337 1812.22 182.478C1814.35 186.729 1820.05 188.724 1824.1 191.645C1826.48 193.358 1827.17 195.917 1827.89 198.354C1827.99 198.657 1828.06 198.939 1828.17 199.221C1828.86 201.376 1829.78 203.371 1832.19 204.519C1835.1 205.889 1836.95 205.043 1839.61 207.401C1840.04 207.763 1840.43 208.126 1840.81 208.468C1842.73 210.241 1844.21 211.692 1847.13 213.022C1850.97 214.754 1868.27 216.124 1865.71 221.06C1862.36 221.322 1859.03 220.093 1855.7 219.771C1852.1 219.449 1848.51 219.771 1844.9 219.449C1842.37 219.227 1835.95 216.809 1833.46 218.038C1832.11 218.703 1831.29 219.872 1830.8 221.262C1829.93 223.72 1830.14 226.843 1830.34 228.857C1828.99 227.467 1819.9 226.641 1818.29 228.132C1817.32 229.019 1817.52 229.986 1818.24 230.933C1819.11 232.141 1820.8 233.27 1821.85 234.055C1827.37 238.226 1834.92 240.2 1840.71 244.31C1845.11 247.413 1847.87 250.959 1853.09 253.336C1856.57 254.908 1866.66 258.474 1867.68 261.637C1869.5 267.419 1845.54 261.436 1840.73 262.725C1841.14 265.969 1850.15 265.928 1853.2 266.573Z" fill="#0A2F44"/>
<path d="M726.275 123.507C722.155 122.903 718.316 121.271 714.401 120.183C710.025 118.974 706.186 116.859 701.835 115.609C698.969 114.783 695.847 114.743 693.058 113.675C691.394 113.051 689.961 112.084 688.272 111.479C694.26 112.789 698.944 113.736 705.29 113.736C709.871 113.736 714.375 113.756 718.777 112.628C720.773 112.124 722.309 111.62 724.458 111.58C726.429 111.519 740.709 112.426 738.918 109.807C733.492 109.203 728.323 108.175 723.076 106.966C720.338 106.342 718.009 105.777 715.169 105.596C711.97 105.395 710.255 104.569 707.261 103.823C702.578 102.655 698.074 101.567 693.314 100.579C689.449 99.7736 685.303 98.7864 682.591 96.55C681.593 95.724 677.805 93.5279 677.626 92.4802C677.344 90.7274 680.774 91.6139 681.516 91.6744C687.274 92.1377 693.032 93.2056 698.841 93.3466C702.245 93.4272 706.135 93.6085 709.334 92.5407C710.665 92.0974 711.688 91.0296 712.942 90.6468C715.783 89.7805 723.179 91.3722 723.895 87.6046C721.055 86.7383 716.218 87.2823 713.096 86.9599C707.338 86.3353 699.763 87.5442 694.337 85.9525C692.392 85.3884 690.857 84.5422 689.398 83.3938C687.632 81.9835 687.12 80.0091 685.611 78.5786C686.378 78.5786 687.12 78.5182 687.786 78.3771C689.833 77.9943 690.985 77.128 692.827 76.3423C686.839 74.388 678.163 73.7835 675.169 68.4445C677.984 67.961 683.103 69.4116 685.483 68.1625C689.296 66.1477 683.717 64.7777 681.695 63.7502C677.524 61.5945 677.524 59.62 675.937 56.2352C674.785 53.7773 673.224 53.5758 671.458 49.1837C671.1 49.2441 670.767 49.3046 670.435 49.365C670.332 51.2991 668.925 51.823 667.594 53.2333C666.366 54.5227 665.675 55.9935 664.472 57.303C662.45 59.4991 658.816 60.4057 657.844 63.1659C661.324 63.9718 663.781 62.5413 661.58 66.3492C660.275 68.6057 658.688 70.5197 656.897 72.3934C655.745 73.6224 654.184 76.3826 652.342 77.2288C649.578 78.4981 644.459 78.0951 642.412 80.2509C644.997 80.9359 649.782 80.7142 652.572 80.4926C654.798 80.3113 656.155 79.8277 657.767 78.6995C658.867 77.9339 659.226 76.1609 661.094 76.4833C661.555 78.9009 656.82 84.2803 654.85 85.4891C651.599 87.5038 646.814 88.4911 642.643 88.5112C638.266 88.5314 636.987 89.4984 633.788 91.5333C628.925 94.6159 622.272 94.4346 616.539 95.7844C618.049 100.882 635.63 95.7038 639.52 95.4822C643.18 95.2808 645.355 97.0134 649.347 96.6306C651.804 96.3888 653.749 95.6031 655.848 94.5756C657.613 93.6891 660.224 91.3721 662.45 91.5333C662.885 94.6763 658.97 98.8468 656.104 100.821C650.857 104.428 644.843 105.636 638.19 107.994C633.276 109.747 633.378 109.182 628.798 109.888C628.132 109.988 625.88 110.633 625.394 110.855C620.711 112.99 623.193 115.206 626.827 115.67C622.963 115.71 618.433 116.758 615.72 118.571C619.149 119.659 626.955 119.075 630.563 118.692C636.347 118.067 642.003 116.012 647.658 114.884C650.781 114.26 652.163 115.347 655.029 115.791C657.332 116.133 660.326 115.65 662.322 114.763C663.73 114.139 664.293 112.99 666.007 112.748C663.755 115.589 659.43 118.45 656.257 120.646C650.55 124.575 644.152 124.857 637.038 126.005C629.719 127.194 622.297 128.222 615.106 129.793C611.191 130.639 608.478 131.626 604.895 132.896C602.771 133.641 600.212 133.621 598.42 134.87C599.291 137.328 612.7 135.878 615.439 135.676C622.348 135.172 629.079 133.178 635.989 132.755C640.902 132.453 644.204 134.709 648.861 134.931C656.769 135.313 663.781 132.775 671.561 132.775C685.866 132.815 700.786 130.458 714.938 128.766C721.106 128.04 727.325 127.436 733.518 126.892C735.847 126.69 745.008 126.872 745.699 123.93C739.941 122.117 732.366 124.394 726.275 123.507Z" fill="#0A2F44"/>
<path d="M622.041 0.24585C622.041 3.22765 621.273 5.80653 620.864 8.76819C620.454 11.9313 621.324 15.2556 620.787 18.3986C620.454 20.3327 620.045 20.373 618.228 21.602C616.078 23.0728 615.95 24.5435 614.568 26.1553C618.458 27.888 612.598 34.0732 610.985 35.7656C612.444 36.6722 613.263 37.196 614.952 37.5386C616.411 37.8408 618.407 37.1961 619.226 38.7474C620.787 41.6688 613.468 42.4948 611.139 42.5351C608.145 42.5956 608.989 42.5552 607.684 44.308C606.891 45.3557 605.739 46.6653 604.792 47.6122C603.922 48.4584 602.284 49.8083 601.286 50.3926C599.776 51.279 597.064 50.6142 596.552 52.4073C599.392 53.0721 603.282 52.8304 605.688 51.8834C608.119 50.9164 612.854 49.5464 615.72 50.5336C620.838 52.2663 608.554 60.3856 605.918 61.5542C604.306 62.2593 603.871 62.5011 602.515 63.4681C601.005 64.5359 599.853 64.4352 597.959 64.959C597.012 65.2209 595.784 66.2686 594.863 66.4902C592.943 66.9939 592.355 66.45 590.947 67.6588C589.514 68.908 589.847 70.8219 587.492 71.6077C586.034 72.0912 583.961 71.7688 582.4 71.7688C579.789 71.7487 574.287 70.7816 573.443 73.5015C580.455 75.9998 585.778 76.987 592.38 73.0986C592.867 74.2671 592.406 75.4558 592.688 76.6848C595.349 77.8735 600.877 74.8917 601.849 72.8568C603.82 72.7762 604.204 74.7103 606.609 74.8514C608.631 74.9722 610.576 74.2872 611.881 73.0986C612.009 73.9447 611.42 74.4888 611.037 75.1536C610.09 76.8057 609.629 77.6116 608.913 79.5457C608.452 80.815 607.377 81.9231 606.916 83.1319C606.507 84.2199 606.763 85.3885 606.072 86.416C603.743 89.9014 599.52 89.8611 595.17 89.8611C593.123 89.8611 589.796 89.2164 588.004 89.9014C586.443 90.5058 585.65 91.4729 584.012 92.1176C581.325 93.1653 578.996 92.8228 575.951 92.8631C573.059 92.9034 571.114 93.7898 568.35 94.1122C568.99 96.8522 578.126 95.9255 580.634 95.9053C581.683 95.9053 583.807 95.6031 584.908 95.8247C586.725 96.2075 587.646 97.6179 589.335 97.9201C592.56 98.464 594.863 95.5427 598.343 95.8651C599.623 95.9859 600.954 96.8724 602.131 96.7918C604.204 96.6508 605.944 94.9382 607.812 94.1726C608.17 95.7441 608.042 97.5775 607.966 99.2095C607.863 101.708 608.017 101.909 605.483 103.178C603.231 104.307 601.133 105.798 598.778 106.765C596.04 107.893 592.867 108.276 590.077 109.525C588.721 110.129 587.134 111.419 585.701 111.822C582.528 112.708 577.896 112.023 574.646 112.003C568.964 111.963 563.078 113.031 558.062 115.247C558.216 119.236 572.393 117.987 575.336 118.067C579.278 118.168 582.681 119.337 586.75 119.135C593.814 118.773 601.9 116.879 609.015 118.208C610.294 121.513 610.576 124.716 610.474 128.161C610.397 131.606 610.346 134.084 614.978 134.185C622.169 134.367 628.874 133.702 635.988 133.258C639.315 133.057 651.753 134.749 654.081 132.352C653.032 128.705 647.684 126.711 646.25 123.003C645.892 122.097 644.689 120.102 645.124 119.236C648.298 118.41 652.136 118.893 655.54 118.128C660.044 117.12 664.6 115.932 669.052 114.783C673.838 113.554 683.947 112.547 683.435 107.027C677.165 105.213 672.047 111.902 666.084 111.016C663.678 110.653 661.554 108.699 658.969 108.175C654.952 107.369 650.627 107.651 646.686 106.503C644.433 105.838 642.898 104.79 640.672 104.206C638.061 103.541 635.425 102.876 632.815 102.171C629.181 101.184 625.982 100.076 622.45 98.9274C625.137 97.779 624.088 95.9658 624.677 94.0115C627.927 92.984 632.636 94.2533 636.167 93.7093C638.42 93.2056 640.646 92.6616 642.847 92.0572C644.92 91.9363 646.967 91.8154 649.04 91.6945C651.42 91.1909 653.109 89.5992 655.259 88.8336C657.127 88.1687 659.84 87.8867 660.505 85.9526C655.08 84.6027 648.477 86.416 643.256 87.242C638.01 88.068 634.427 87.8867 629.693 86.0533C627.927 85.3683 624.626 84.643 623.218 83.5953C621.555 82.3462 620.019 76.5035 620.761 74.7708C623.653 74.9118 626.366 75.8185 629.335 75.8185C633.25 75.8386 636.935 74.5089 640.774 74.7506C642.693 74.8715 652.418 77.6115 651.394 72.8366C648.758 72.0912 645.406 73.018 642.616 72.615C637.165 71.8293 633.864 68.5251 629.642 66.1074C626.699 64.4352 626.519 63.8509 625.777 61.1512C625.086 58.6731 622.604 56.3561 623.32 53.6967C628.106 52.3871 635.784 52.1453 634.76 46.5242C632.278 45.9803 630.409 46.5847 627.901 45.3557C626.084 44.4692 623.141 42.5552 623.244 40.6614C627.185 39.8958 634.862 37.5385 634.99 33.4889C631.356 32.401 619.124 31.5951 620.608 26.256C620.915 25.1278 622.271 25.3091 623.065 24.3824C623.832 23.516 624.702 20.2924 624.216 19.3858C623.474 19.3455 622.758 19.3052 622.015 19.2649V0.24585H622.041Z" fill="#0A2F44"/>
<path d="M1650.74 65.1202C1650.74 68.102 1649.97 70.6809 1649.56 73.6425C1649.16 76.8057 1650.03 80.13 1649.49 83.273C1649.16 85.2071 1648.75 85.2474 1646.93 86.4764C1644.78 87.9471 1644.65 89.4178 1643.27 91.0296C1647.16 92.7623 1641.3 98.9476 1639.69 100.64C1641.15 101.547 1641.96 102.07 1643.65 102.413C1645.11 102.715 1647.11 102.07 1647.93 103.622C1649.49 106.543 1642.17 107.369 1639.84 107.409C1636.85 107.47 1637.69 107.43 1636.39 109.182C1635.59 110.23 1634.44 111.54 1633.49 112.487C1632.62 113.333 1630.99 114.683 1629.99 115.267C1628.48 116.153 1625.76 115.488 1625.25 117.282C1628.09 117.946 1631.98 117.705 1634.39 116.758C1636.82 115.791 1641.55 114.421 1644.42 115.408C1649.54 117.141 1637.26 125.26 1634.62 126.428C1633.01 127.134 1632.57 127.375 1631.22 128.342C1629.71 129.41 1628.55 129.31 1626.66 129.833C1625.71 130.095 1624.49 131.143 1623.56 131.365C1621.64 131.868 1621.06 131.324 1619.65 132.533C1618.22 133.782 1618.55 135.696 1616.19 136.482C1614.73 136.966 1612.66 136.643 1611.1 136.643C1608.49 136.623 1602.99 135.656 1602.14 138.376C1609.16 140.874 1614.48 141.861 1621.08 137.973C1621.57 139.141 1621.11 140.33 1621.39 141.559C1624.05 142.748 1629.58 139.766 1630.55 137.731C1632.52 137.651 1632.9 139.585 1635.31 139.726C1637.33 139.847 1639.28 139.162 1640.61 137.973C1640.74 138.819 1640.15 139.363 1639.74 140.028C1638.79 141.68 1638.33 142.486 1637.61 144.42C1637.15 145.689 1636.08 146.797 1635.62 148.006C1635.21 149.094 1635.46 150.263 1634.77 151.29C1632.44 154.776 1628.22 154.735 1623.87 154.735C1621.82 154.735 1618.5 154.091 1616.71 154.776C1615.14 155.38 1614.35 156.347 1612.71 156.992C1610.03 158.04 1607.7 157.697 1604.65 157.737C1601.76 157.778 1599.81 158.664 1597.05 158.987C1597.69 161.727 1606.83 160.8 1609.33 160.78C1610.38 160.78 1612.51 160.477 1613.61 160.699C1615.43 161.082 1616.35 162.492 1618.04 162.794C1621.26 163.338 1623.56 160.417 1627.04 160.739C1628.32 160.86 1629.65 161.747 1630.83 161.666C1632.9 161.525 1634.64 159.813 1636.51 159.047C1636.87 160.618 1636.74 162.452 1636.67 164.084C1636.56 166.582 1636.72 166.784 1634.18 168.053C1631.93 169.181 1629.83 170.672 1627.48 171.639C1624.74 172.767 1621.57 173.15 1618.78 174.399C1617.42 175.004 1615.84 176.293 1614.4 176.696C1611.23 177.583 1606.6 176.898 1603.35 176.877C1597.67 176.837 1591.78 177.905 1586.76 180.121C1586.92 184.11 1601.09 182.861 1604.04 182.942C1607.98 183.042 1611.38 184.211 1615.45 184.01C1622.51 183.647 1630.6 181.753 1637.72 183.083C1639 186.387 1639.28 189.59 1639.17 193.035C1639.1 196.481 1639.05 198.959 1643.68 199.06C1650.87 199.241 1657.57 198.576 1664.69 198.133C1668.02 197.931 1680.45 199.624 1682.81 197.226C1681.76 193.58 1676.41 191.585 1674.98 187.878C1674.62 186.971 1673.42 184.977 1673.85 184.11C1677.02 183.284 1680.86 183.768 1684.27 183.002C1688.77 181.995 1693.33 180.806 1697.78 179.658C1702.56 178.429 1712.67 177.421 1712.16 171.901C1705.89 170.088 1700.77 176.777 1694.81 175.89C1692.4 175.528 1690.28 173.573 1687.7 173.049C1683.68 172.244 1679.35 172.526 1675.41 171.377C1673.16 170.712 1671.62 169.665 1669.4 169.08C1666.79 168.416 1664.15 167.751 1661.54 167.045C1657.91 166.058 1654.71 164.95 1651.18 163.802C1653.86 162.653 1652.81 160.84 1653.4 158.886C1656.68 157.858 1661.36 159.128 1664.89 158.584C1667.15 158.08 1669.37 157.536 1671.57 156.932C1673.65 156.811 1675.69 156.69 1677.77 156.569C1680.15 156.065 1681.84 154.474 1683.99 153.708C1685.85 153.043 1688.57 152.761 1689.23 150.827C1683.81 149.477 1677.2 151.29 1671.98 152.116C1666.74 152.942 1663.15 152.761 1658.42 150.928C1656.65 150.243 1653.35 149.517 1651.94 148.47C1650.28 147.221 1648.75 141.378 1649.49 139.645C1652.38 139.786 1655.09 140.693 1658.06 140.693C1661.98 140.713 1665.66 139.383 1669.5 139.625C1671.42 139.746 1681.14 142.486 1680.12 137.711C1677.48 136.966 1674.13 137.892 1671.34 137.489C1665.89 136.704 1662.59 133.399 1658.37 130.982C1655.43 129.31 1655.25 128.725 1654.48 126.026C1653.79 123.547 1651.3 121.23 1652.02 118.571C1656.81 117.261 1664.48 117.02 1663.46 111.399C1660.98 110.855 1659.11 111.459 1656.6 110.23C1654.79 109.344 1651.84 107.43 1651.94 105.536C1655.89 104.77 1663.56 102.413 1663.69 98.3633C1660.06 97.2753 1647.82 96.4694 1649.31 91.1304C1649.62 90.0022 1650.97 90.1835 1651.77 89.2567C1652.53 88.3904 1653.4 85.1668 1652.92 84.2602C1652.17 84.2199 1651.46 84.1796 1650.72 84.1393V65.1202H1650.74Z" fill="#0A2F44"/>
</svg>
